<?xml version="1.0" standalone="yes"?>

<svg version="1.1" viewBox="0.0 0.0 1209.0 480.0" fill="none" stroke="none" stroke-linecap="square" stroke-miterlimit="10" xmlns="http://www.w3.org/2000/svg" xmlns:xlink="http://www.w3.org/1999/xlink"><clipPath id="ga08125072_0_29.0"><path d="m0 0l1209.0 0l0 480.0l-1209.0 0l0 -480.0z" clip-rule="nonzero"></path></clipPath><g clip-path="url(#ga08125072_0_29.0)"><path fill="#000000" fill-opacity="0.0" d="m0 0l1209.6011 0l0 480.0l-1209.6011 0z" fill-rule="nonzero"></path><path fill="#000000" fill-opacity="0.0" d="m60.480053 112.0l1088.6299 0l0 347.68503l-1088.6299 0z" fill-rule="nonzero"></path><path fill="#666666" d="m304.29694 233.76855l0 11.140625l-3.578125 0l0 -28.4375l9.0625 0q3.96875 0 6.234375 2.375q2.265625 2.375 2.265625 6.3125q0 4.109375 -2.15625 6.328125q-2.15625 2.203125 -6.078125 2.28125l-5.75 0zm0 -3.0625l5.484375 0q2.390625 0 3.65625 -1.421875q1.265625 -1.421875 1.265625 -4.078125q0 -2.5625 -1.3125 -4.109375q-1.296875 -1.546875 -3.578125 -1.546875l-5.515625 0l0 11.15625zm37.089844 2.484375q0 5.8125 -2.484375 8.96875q-2.46875 3.140625 -7.046875 3.140625q-4.390625 0 -6.9375 -3.046875q-2.546875 -3.0625 -2.65625 -8.65625l0 -5.34375q0 -5.703125 2.515625 -8.9375q2.53125 -3.234375 7.046875 -3.234375q4.484375 0 6.984375 3.09375q2.515625 3.09375 2.578125 8.84375l0 5.171875zm-3.578125 -4.984375q0 -4.515625 -1.46875 -6.703125q-1.46875 -2.203125 -4.515625 -2.203125q-2.953125 0 -4.46875 2.234375q-1.515625 2.21875 -1.53125 6.5625l0 5.09375q0 4.359375 1.515625 6.640625q1.515625 2.28125 4.515625 2.28125q3.015625 0 4.453125 -2.109375q1.453125 -2.109375 1.5 -6.46875l0 -5.328125zm21.523438 9.515625q0 -2.125 -1.15625 -3.25q-1.140625 -1.140625 -4.15625 -2.21875q-3.0 -1.078125 -4.59375 -2.25q-1.59375 -1.1875 -2.390625 -2.703125q-0.78125 -1.515625 -0.78125 -3.46875q0 -3.375 2.25 -5.5625q2.265625 -2.1875 5.90625 -2.1875q2.5 0 4.453125 1.125q1.953125 1.125 3.0 3.125q1.0625 1.984375 1.0625 4.359375l-3.59375 0q0 -2.640625 -1.265625 -4.078125q-1.265625 -1.453125 -3.65625 -1.453125q-2.15625 0 -3.359375 1.21875q-1.1875 1.203125 -1.1875 3.390625q0 1.796875 1.28125 3.015625q1.296875 1.203125 4.0 2.171875q4.1875 1.375 6.0 3.40625q1.8125 2.03125 1.8125 5.3125q0 3.46875 -2.25 5.546875q-2.25 2.078125 -6.109375 2.078125q-2.484375 0 -4.59375 -1.078125q-2.09375 -1.09375 -3.296875 -3.046875q-1.203125 -1.96875 -1.203125 -4.515625l3.59375 0q0 2.640625 1.46875 4.109375q1.484375 1.46875 4.03125 1.46875q2.359375 0 3.546875 -1.203125q1.1875 -1.21875 1.1875 -3.3125zm24.925781 -18.171875l-7.484375 0l0 25.359375l-3.5625 0l0 -25.359375l-7.46875 0l0 -3.078125l18.515625 0l0 3.078125z" fill-rule="nonzero"></path><path fill="#1155cc" d="m400.5821 225.94043q1.984375 -2.5625 5.046875 -2.5625q5.609375 0 5.6875 7.484375l0 14.046875l-3.4375 0l0 -13.890625q0 -2.484375 -0.84375 -3.515625q-0.828125 -1.046875 -2.484375 -1.046875q-1.28125 0 -2.3125 0.859375q-1.03125 0.859375 -1.65625 2.234375l0 15.359375l-3.453125 0l0 -30.0l3.453125 0l0 11.03125zm20.394531 -7.28125l0 5.109375l3.1875 0l0 2.796875l-3.1875 0l0 13.109375q0 1.25 0.40625 1.890625q0.421875 0.640625 1.40625 0.640625q0.6875 0 1.390625 -0.234375l-0.03125 2.9375q-1.171875 0.390625 -2.40625 0.390625q-2.046875 0 -3.125 -1.46875q-1.078125 -1.46875 -1.078125 -4.140625l0 -13.125l-3.21875 0l0 -2.796875l3.21875 0l0 -5.109375l3.4375 0zm11.816406 0l0 5.109375l3.1875 0l0 2.796875l-3.1875 0l0 13.109375q0 1.25 0.40625 1.890625q0.421875 0.640625 1.40625 0.640625q0.6875 0 1.390625 -0.234375l-0.03125 2.9375q-1.171875 0.390625 -2.40625 0.390625q-2.046875 0 -3.125 -1.46875q-1.078125 -1.46875 -1.078125 -4.140625l0 -13.125l-3.21875 0l0 -2.796875l3.21875 0l0 -5.109375l3.4375 0zm22.566406 16.703125q0 5.015625 -1.8125 7.484375q-1.8125 2.453125 -5.109375 2.453125q-3.1875 0 -4.90625 -2.40625l0 10.140625l-3.4375 0l0 -29.265625l3.125 0l0.1875 2.34375q1.734375 -2.734375 4.96875 -2.734375q3.484375 0 5.203125 2.421875q1.71875 2.421875 1.78125 7.25l0 2.3125zm-3.4375 -1.984375q0 -3.546875 -1.09375 -5.234375q-1.09375 -1.6875 -3.515625 -1.6875q-2.484375 0 -3.78125 2.46875l0 11.0q1.28125 2.421875 3.8125 2.421875q2.34375 0 3.4375 -1.6875q1.109375 -1.6875 1.140625 -5.171875l0 -2.109375zm8.1171875 9.640625q0 -0.9375 0.546875 -1.5625q0.5625 -0.625 1.671875 -0.625q1.125 0 1.703125 0.625q0.578125 0.625 0.578125 1.5625q0 0.890625 -0.578125 1.5q-0.578125 0.609375 -1.703125 0.609375q-1.109375 0 -1.671875 -0.609375q-0.546875 -0.609375 -0.546875 -1.5zm0 -17.0q0 -0.9375 0.546875 -1.5625q0.5625 -0.625 1.671875 -0.625q1.125 0 1.703125 0.625q0.578125 0.625 0.578125 1.5625q0 0.890625 -0.578125 1.5q-0.578125 0.609375 -1.703125 0.609375q-1.109375 0 -1.671875 -0.609375q-0.546875 -0.609375 -0.546875 -1.5zm10.0546875 21.328125l-2.921875 0l9.984375 -30.875l2.90625 0l-9.96875 30.875zm14.824219 0l-2.921875 0l9.984375 -30.875l2.90625 0l-9.96875 30.875zm17.136719 -23.578125l0.078125 1.953125q1.9375 -2.34375 5.09375 -2.34375q3.53125 0 4.9375 3.078125q2.0 -3.078125 5.546875 -3.078125q5.84375 0 5.984375 7.296875l0 14.234375l-3.4375 0l0 -13.90625q0 -2.3125 -0.828125 -3.421875q-0.8125 -1.125 -2.765625 -1.125q-1.5625 0 -2.546875 1.21875q-0.96875 1.203125 -1.125 3.078125l0 14.15625l-3.484375 0l0 -14.0625q-0.046875 -4.390625 -3.5625 -4.390625q-2.625 0 -3.703125 2.609375l0 15.84375l-3.4375 0l0 -21.140625l3.25 0zm32.61328 15.390625l3.84375 -15.390625l3.671875 0l-6.90625 24.125q-0.78125 2.71875 -2.21875 4.125q-1.421875 1.421875 -3.234375 1.421875q-0.703125 0 -1.796875 -0.3125l0 -2.921875l0.765625 0.078125q1.5 0 2.34375 -0.71875q0.859375 -0.703125 1.390625 -2.46875l0.671875 -2.359375l-6.203125 -20.96875l3.765625 0l3.90625 15.390625zm16.878906 0.5l4.0 -15.890625l3.515625 0l-6.265625 21.140625l-2.578125 0l-6.34375 -21.140625l3.515625 0l4.15625 15.890625zm21.984375 5.25q-0.3125 -0.6875 -0.4375 -2.3125q-1.84375 2.703125 -4.6875 2.703125q-2.875 0 -4.484375 -1.609375q-1.609375 -1.609375 -1.609375 -4.546875q0 -3.21875 2.1875 -5.109375q2.1875 -1.90625 5.984375 -1.9375l2.546875 0l0 -2.25q0 -1.890625 -0.84375 -2.6875q-0.84375 -0.8125 -2.5625 -0.8125q-1.5625 0 -2.546875 0.9375q-0.96875 0.921875 -0.96875 2.34375l-3.453125 0q0 -1.609375 0.953125 -3.078125q0.96875 -1.484375 2.578125 -2.328125q1.625 -0.84375 3.625 -0.84375q3.234375 0 4.921875 1.625q1.6875 1.609375 1.734375 4.6875l0 10.671875q0.015625 2.4375 0.65625 4.234375l0 0.3125l-3.59375 0zm-4.609375 -2.75q1.28125 0 2.421875 -0.703125q1.15625 -0.703125 1.6875 -1.765625l0 -5.03125l-1.953125 0q-2.46875 0.03125 -3.890625 1.09375q-1.421875 1.0625 -1.421875 2.984375q0 1.796875 0.71875 2.609375q0.71875 0.8125 2.4375 0.8125zm21.628906 -15.140625q-0.71875 -0.140625 -1.5625 -0.140625q-2.65625 0 -3.71875 2.90625l0 15.125l-3.453125 0l0 -21.140625l3.359375 0l0.0625 2.15625q1.390625 -2.546875 3.921875 -2.546875q0.828125 0 1.375 0.28125l0.015625 3.359375zm7.1679688 17.890625l-3.453125 0l0 -21.140625l3.453125 0l0 21.140625zm0.265625 -26.734375q0 0.875 -0.484375 1.46875q-0.484375 0.578125 -1.484375 0.578125q-0.96875 0 -1.46875 -0.578125q-0.484375 -0.59375 -0.484375 -1.46875q0 -0.890625 0.484375 -1.484375q0.5 -0.609375 1.46875 -0.609375q0.984375 0 1.46875 0.625q0.5 0.609375 0.5 1.46875zm16.035156 26.734375q-0.3125 -0.6875 -0.4375 -2.3125q-1.84375 2.703125 -4.6875 2.703125q-2.875 0 -4.484375 -1.609375q-1.609375 -1.609375 -1.609375 -4.546875q0 -3.21875 2.1875 -5.109375q2.1875 -1.90625 5.984375 -1.9375l2.546875 0l0 -2.25q0 -1.890625 -0.84375 -2.6875q-0.84375 -0.8125 -2.5625 -0.8125q-1.5625 0 -2.546875 0.9375q-0.96875 0.921875 -0.96875 2.34375l-3.453125 0q0 -1.609375 0.953125 -3.078125q0.96875 -1.484375 2.578125 -2.328125q1.625 -0.84375 3.625 -0.84375q3.234375 0 4.921875 1.625q1.6875 1.609375 1.734375 4.6875l0 10.671875q0.015625 2.4375 0.65625 4.234375l0 0.3125l-3.59375 0zm-4.609375 -2.75q1.28125 0 2.421875 -0.703125q1.15625 -0.703125 1.6875 -1.765625l0 -5.03125l-1.953125 0q-2.46875 0.03125 -3.890625 1.09375q-1.421875 1.0625 -1.421875 2.984375q0 1.796875 0.71875 2.609375q0.71875 0.8125 2.4375 0.8125zm16.160156 -18.390625l0.09375 2.296875q2.015625 -2.6875 5.140625 -2.6875q5.609375 0 5.6875 7.484375l0 14.046875l-3.4375 0l0 -13.890625q0 -2.484375 -0.84375 -3.515625q-0.828125 -1.046875 -2.484375 -1.046875q-1.28125 0 -2.3125 0.859375q-1.03125 0.859375 -1.65625 2.234375l0 15.359375l-3.453125 0l0 -21.140625l3.265625 0zm20.621094 -5.109375l0 5.109375l3.1875 0l0 2.796875l-3.1875 0l0 13.109375q0 1.25 0.40625 1.890625q0.421875 0.640625 1.40625 0.640625q0.6875 0 1.390625 -0.234375l-0.03125 2.9375q-1.171875 0.390625 -2.40625 0.390625q-2.046875 0 -3.125 -1.46875q-1.078125 -1.46875 -1.078125 -4.140625l0 -13.125l-3.21875 0l0 -2.796875l3.21875 0l0 -5.109375l3.4375 0zm7.5195312 24.359375q0 -0.9375 0.546875 -1.5625q0.5625 -0.625 1.671875 -0.625q1.125 0 1.703125 0.625q0.578125 0.625 0.578125 1.5625q0 0.890625 -0.578125 1.5q-0.578125 0.609375 -1.703125 0.609375q-1.109375 0 -1.671875 -0.609375q-0.546875 -0.609375 -0.546875 -1.5zm14.027344 1.890625l-3.453125 0l0 -21.140625l3.453125 0l0 21.140625zm0.265625 -26.734375q0 0.875 -0.484375 1.46875q-0.484375 0.578125 -1.484375 0.578125q-0.96875 0 -1.46875 -0.578125q-0.484375 -0.59375 -0.484375 -1.46875q0 -0.890625 0.484375 -1.484375q0.5 -0.609375 1.46875 -0.609375q0.984375 0 1.46875 0.625q0.5 0.609375 0.5 1.46875zm8.425781 5.59375l0.09375 2.296875q2.015625 -2.6875 5.140625 -2.6875q5.609375 0 5.6875 7.484375l0 14.046875l-3.4375 0l0 -13.890625q0 -2.484375 -0.84375 -3.515625q-0.828125 -1.046875 -2.484375 -1.046875q-1.28125 0 -2.3125 0.859375q-1.03125 0.859375 -1.65625 2.234375l0 15.359375l-3.453125 0l0 -21.140625l3.265625 0zm17.621094 21.140625l0 -18.34375l-2.765625 0l0 -2.796875l2.765625 0l0 -2.4375q0.046875 -3.21875 1.625 -5.015625q1.578125 -1.8125 4.4375 -1.8125q1.046875 0 2.09375 0.328125l-0.171875 2.921875q-0.75 -0.171875 -1.578125 -0.171875q-2.953125 0 -2.953125 4.203125l0 1.984375l3.609375 0l0 2.796875l-3.609375 0l0 18.34375l-3.453125 0zm10.40625 -11.546875q0 -4.609375 2.234375 -7.296875q2.234375 -2.6875 5.90625 -2.6875q3.671875 0 5.90625 2.625q2.234375 2.609375 2.296875 7.125l0 2.234375q0 4.578125 -2.234375 7.265625q-2.21875 2.671875 -5.921875 2.671875q-3.671875 0 -5.890625 -2.59375q-2.21875 -2.609375 -2.296875 -7.03125l0 -2.3125zm3.453125 2.0q0 3.25 1.28125 5.125q1.28125 1.859375 3.453125 1.859375q4.5625 0 4.703125 -6.59375l0 -2.390625q0 -3.234375 -1.296875 -5.125q-1.28125 -1.890625 -3.453125 -1.890625q-2.125 0 -3.40625 1.890625q-1.28125 1.890625 -1.28125 5.109375l0 2.015625zm18.296875 11.984375l-2.921875 0l9.984375 -30.875l2.90625 0l-9.96875 30.875zm19.871094 -7.6875l4.0 -15.890625l3.515625 0l-6.265625 21.140625l-2.578125 0l-6.34375 -21.140625l3.515625 0l4.15625 15.890625zm21.109375 5.25l-3.46875 0l0 -24.078125l-5.984375 2.671875l0 -3.28125l8.90625 -3.890625l0.546875 0l0 28.578125zm10.699219 2.4375l-2.921875 0l9.984375 -30.875l2.90625 0l-9.96875 30.875zm19.871094 -7.6875l4.0 -15.890625l3.515625 0l-6.265625 21.140625l-2.578125 0l-6.34375 -21.140625l3.515625 0l4.15625 15.890625zm21.984375 5.25q-0.3125 -0.6875 -0.4375 -2.3125q-1.84375 2.703125 -4.6875 2.703125q-2.875 0 -4.484375 -1.609375q-1.609375 -1.609375 -1.609375 -4.546875q0 -3.21875 2.1875 -5.109375q2.1875 -1.90625 5.984375 -1.9375l2.546875 0l0 -2.25q0 -1.890625 -0.84375 -2.6875q-0.84375 -0.8125 -2.5625 -0.8125q-1.5625 0 -2.546875 0.9375q-0.96875 0.921875 -0.96875 2.34375l-3.453125 0q0 -1.609375 0.953125 -3.078125q0.96875 -1.484375 2.578125 -2.328125q1.625 -0.84375 3.625 -0.84375q3.234375 0 4.921875 1.625q1.6875 1.609375 1.734375 4.6875l0 10.671875q0.015625 2.4375 0.65625 4.234375l0 0.3125l-3.59375 0zm-4.609375 -2.75q1.28125 0 2.421875 -0.703125q1.15625 -0.703125 1.6875 -1.765625l0 -5.03125l-1.953125 0q-2.46875 0.03125 -3.890625 1.09375q-1.421875 1.0625 -1.421875 2.984375q0 1.796875 0.71875 2.609375q0.71875 0.8125 2.4375 0.8125zm21.628906 -15.140625q-0.71875 -0.140625 -1.5625 -0.140625q-2.65625 0 -3.71875 2.90625l0 15.125l-3.453125 0l0 -21.140625l3.359375 0l0.0625 2.15625q1.390625 -2.546875 3.921875 -2.546875q0.828125 0 1.375 0.28125l0.015625 3.359375zm7.1679688 17.890625l-3.453125 0l0 -21.140625l3.453125 0l0 21.140625zm0.265625 -26.734375q0 0.875 -0.484375 1.46875q-0.484375 0.578125 -1.484375 0.578125q-0.96875 0 -1.46875 -0.578125q-0.484375 -0.59375 -0.484375 -1.46875q0 -0.890625 0.484375 -1.484375q0.5 -0.609375 1.46875 -0.609375q0.984375 0 1.46875 0.625q0.5 0.609375 0.5 1.46875zm16.035156 26.734375q-0.3125 -0.6875 -0.4375 -2.3125q-1.84375 2.703125 -4.6875 2.703125q-2.875 0 -4.484375 -1.609375q-1.609375 -1.609375 -1.609375 -4.546875q0 -3.21875 2.1875 -5.109375q2.1875 -1.90625 5.984375 -1.9375l2.546875 0l0 -2.25q0 -1.890625 -0.84375 -2.6875q-0.84375 -0.8125 -2.5625 -0.8125q-1.5625 0 -2.546875 0.9375q-0.96875 0.921875 -0.96875 2.34375l-3.453125 0q0 -1.609375 0.953125 -3.078125q0.96875 -1.484375 2.578125 -2.328125q1.625 -0.84375 3.625 -0.84375q3.234375 0 4.921875 1.625q1.6875 1.609375 1.734375 4.6875l0 10.671875q0.015625 2.4375 0.65625 4.234375l0 0.3125l-3.59375 0zm-4.609375 -2.75q1.28125 0 2.421875 -0.703125q1.15625 -0.703125 1.6875 -1.765625l0 -5.03125l-1.953125 0q-2.46875 0.03125 -3.890625 1.09375q-1.421875 1.0625 -1.421875 2.984375q0 1.796875 0.71875 2.609375q0.71875 0.8125 2.4375 0.8125zm16.160156 -18.390625l0.09375 2.296875q2.015625 -2.6875 5.140625 -2.6875q5.609375 0 5.6875 7.484375l0 14.046875l-3.4375 0l0 -13.890625q0 -2.484375 -0.84375 -3.515625q-0.828125 -1.046875 -2.484375 -1.046875q-1.28125 0 -2.3125 0.859375q-1.03125 0.859375 -1.65625 2.234375l0 15.359375l-3.453125 0l0 -21.140625l3.265625 0zm20.621094 -5.109375l0 5.109375l3.1875 0l0 2.796875l-3.1875 0l0 13.109375q0 1.25 0.40625 1.890625q0.421875 0.640625 1.40625 0.640625q0.6875 0 1.390625 -0.234375l-0.03125 2.9375q-1.171875 0.390625 -2.40625 0.390625q-2.046875 0 -3.125 -1.46875q-1.078125 -1.46875 -1.078125 -4.140625l0 -13.125l-3.21875 0l0 -2.796875l3.21875 0l0 -5.109375l3.4375 0zm8.238281 28.6875l-2.921875 0l9.984375 -30.875l2.90625 0l-9.96875 30.875z" fill-rule="nonzero"></path><path stroke="#1155cc" stroke-width="3.1999998092651367" stroke-linejoin="bevel" stroke-linecap="butt" d="m394.55084 251.83887l517.3828 0" fill-rule="nonzero"></path><path fill="#666666" d="m314.80475 320.10187l0 11.140625l-3.578125 0l0 -28.4375l9.0625 0q3.96875 0 6.234375 2.375q2.265625 2.375 2.265625 6.3125q0 4.109375 -2.15625 6.328125q-2.15625 2.203125 -6.078125 2.28125l-5.75 0zm0 -3.0625l5.484375 0q2.390625 0 3.65625 -1.421875q1.265625 -1.421875 1.265625 -4.078125q0 -2.5625 -1.3125 -4.109375q-1.296875 -1.546875 -3.578125 -1.546875l-5.515625 0l0 11.15625zm37.089844 2.484375q0 5.8125 -2.484375 8.96875q-2.46875 3.140625 -7.046875 3.140625q-4.390625 0 -6.9375 -3.046875q-2.546875 -3.0625 -2.65625 -8.65625l0 -5.34375q0 -5.703125 2.515625 -8.9375q2.53125 -3.234375 7.046875 -3.234375q4.484375 0 6.984375 3.09375q2.515625 3.09375 2.578125 8.84375l0 5.171875zm-3.578125 -4.984375q0 -4.515625 -1.46875 -6.703125q-1.46875 -2.203125 -4.515625 -2.203125q-2.953125 0 -4.46875 2.234375q-1.515625 2.21875 -1.53125 6.5625l0 5.09375q0 4.359375 1.515625 6.640625q1.515625 2.28125 4.515625 2.28125q3.015625 0 4.453125 -2.109375q1.453125 -2.109375 1.5 -6.46875l0 -5.328125zm21.523438 9.515625q0 -2.125 -1.15625 -3.25q-1.140625 -1.140625 -4.15625 -2.21875q-3.0 -1.078125 -4.59375 -2.25q-1.59375 -1.1875 -2.390625 -2.703125q-0.78125 -1.515625 -0.78125 -3.46875q0 -3.375 2.25 -5.5625q2.265625 -2.1875 5.90625 -2.1875q2.5 0 4.453125 1.125q1.953125 1.125 3.0 3.125q1.0625 1.984375 1.0625 4.359375l-3.59375 0q0 -2.640625 -1.265625 -4.078125q-1.265625 -1.453125 -3.65625 -1.453125q-2.15625 0 -3.359375 1.21875q-1.1875 1.203125 -1.1875 3.390625q0 1.796875 1.28125 3.015625q1.296875 1.203125 4.0 2.171875q4.1875 1.375 6.0 3.40625q1.8125 2.03125 1.8125 5.3125q0 3.46875 -2.25 5.546875q-2.25 2.078125 -6.109375 2.078125q-2.484375 0 -4.59375 -1.078125q-2.09375 -1.09375 -3.296875 -3.046875q-1.203125 -1.96875 -1.203125 -4.515625l3.59375 0q0 2.640625 1.46875 4.109375q1.484375 1.46875 4.03125 1.46875q2.359375 0 3.546875 -1.203125q1.1875 -1.21875 1.1875 -3.3125zm24.925781 -18.171875l-7.484375 0l0 25.359375l-3.5625 0l0 -25.359375l-7.46875 0l0 -3.078125l18.515625 0l0 3.078125z" fill-rule="nonzero"></path><path fill="#1155cc" d="m411.0899 312.27374q1.984375 -2.5625 5.046875 -2.5625q5.609375 0 5.6875 7.484375l0 14.046875l-3.4375 0l0 -13.890625q0 -2.484375 -0.84375 -3.515625q-0.828125 -1.046875 -2.484375 -1.046875q-1.28125 0 -2.3125 0.859375q-1.03125 0.859375 -1.65625 2.234375l0 15.359375l-3.453125 0l0 -30.0l3.453125 0l0 11.03125zm20.394531 -7.28125l0 5.109375l3.1875 0l0 2.796875l-3.1875 0l0 13.109375q0 1.25 0.40625 1.890625q0.421875 0.640625 1.40625 0.640625q0.6875 0 1.390625 -0.234375l-0.03125 2.9375q-1.171875 0.390625 -2.40625 0.390625q-2.046875 0 -3.125 -1.46875q-1.078125 -1.46875 -1.078125 -4.140625l0 -13.125l-3.21875 0l0 -2.796875l3.21875 0l0 -5.109375l3.4375 0zm11.816406 0l0 5.109375l3.1875 0l0 2.796875l-3.1875 0l0 13.109375q0 1.25 0.40625 1.890625q0.421875 0.640625 1.40625 0.640625q0.6875 0 1.390625 -0.234375l-0.03125 2.9375q-1.171875 0.390625 -2.40625 0.390625q-2.046875 0 -3.125 -1.46875q-1.078125 -1.46875 -1.078125 -4.140625l0 -13.125l-3.21875 0l0 -2.796875l3.21875 0l0 -5.109375l3.4375 0zm22.566406 16.703125q0 5.015625 -1.8125 7.484375q-1.8125 2.453125 -5.109375 2.453125q-3.1875 0 -4.90625 -2.40625l0 10.140625l-3.4375 0l0 -29.265625l3.125 0l0.1875 2.34375q1.734375 -2.734375 4.96875 -2.734375q3.484375 0 5.203125 2.421875q1.71875 2.421875 1.78125 7.25l0 2.3125zm-3.4375 -1.984375q0 -3.546875 -1.09375 -5.234375q-1.09375 -1.6875 -3.515625 -1.6875q-2.484375 0 -3.78125 2.46875l0 11.0q1.28125 2.421875 3.8125 2.421875q2.34375 0 3.4375 -1.6875q1.109375 -1.6875 1.140625 -5.171875l0 -2.109375zm8.1171875 9.640625q0 -0.9375 0.546875 -1.5625q0.5625 -0.625 1.671875 -0.625q1.125 0 1.703125 0.625q0.578125 0.625 0.578125 1.5625q0 0.890625 -0.578125 1.5q-0.578125 0.609375 -1.703125 0.609375q-1.109375 0 -1.671875 -0.609375q-0.546875 -0.609375 -0.546875 -1.5zm0 -17.0q0 -0.9375 0.546875 -1.5625q0.5625 -0.625 1.671875 -0.625q1.125 0 1.703125 0.625q0.578125 0.625 0.578125 1.5625q0 0.890625 -0.578125 1.5q-0.578125 0.609375 -1.703125 0.609375q-1.109375 0 -1.671875 -0.609375q-0.546875 -0.609375 -0.546875 -1.5zm10.0546875 21.328125l-2.921875 0l9.984375 -30.875l2.90625 0l-9.96875 30.875zm14.824219 0l-2.921875 0l9.984375 -30.875l2.90625 0l-9.96875 30.875zm17.136719 -23.578125l0.078125 1.953125q1.9375 -2.34375 5.09375 -2.34375q3.53125 0 4.9375 3.078125q2.0 -3.078125 5.546875 -3.078125q5.84375 0 5.984375 7.296875l0 14.234375l-3.4375 0l0 -13.90625q0 -2.3125 -0.828125 -3.421875q-0.8125 -1.125 -2.765625 -1.125q-1.5625 0 -2.546875 1.21875q-0.96875 1.203125 -1.125 3.078125l0 14.15625l-3.484375 0l0 -14.0625q-0.046875 -4.390625 -3.5625 -4.390625q-2.625 0 -3.703125 2.609375l0 15.84375l-3.4375 0l0 -21.140625l3.25 0zm32.61328 15.390625l3.84375 -15.390625l3.671875 0l-6.90625 24.125q-0.78125 2.71875 -2.21875 4.125q-1.421875 1.421875 -3.234375 1.421875q-0.703125 0 -1.796875 -0.3125l0 -2.921875l0.765625 0.078125q1.5 0 2.34375 -0.71875q0.859375 -0.703125 1.390625 -2.46875l0.671875 -2.359375l-6.203125 -20.96875l3.765625 0l3.90625 15.390625zm16.878906 0.5l4.0 -15.890625l3.515625 0l-6.265625 21.140625l-2.578125 0l-6.34375 -21.140625l3.515625 0l4.15625 15.890625zm21.984375 5.25q-0.3125 -0.6875 -0.4375 -2.3125q-1.84375 2.703125 -4.6875 2.703125q-2.875 0 -4.484375 -1.609375q-1.609375 -1.609375 -1.609375 -4.546875q0 -3.21875 2.1875 -5.109375q2.1875 -1.90625 5.984375 -1.9375l2.546875 0l0 -2.25q0 -1.890625 -0.84375 -2.6875q-0.84375 -0.8125 -2.5625 -0.8125q-1.5625 0 -2.546875 0.9375q-0.96875 0.921875 -0.96875 2.34375l-3.453125 0q0 -1.609375 0.953125 -3.078125q0.96875 -1.484375 2.578125 -2.328125q1.625 -0.84375 3.625 -0.84375q3.234375 0 4.921875 1.625q1.6875 1.609375 1.734375 4.6875l0 10.671875q0.015625 2.4375 0.65625 4.234375l0 0.3125l-3.59375 0zm-4.609375 -2.75q1.28125 0 2.421875 -0.703125q1.15625 -0.703125 1.6875 -1.765625l0 -5.03125l-1.953125 0q-2.46875 0.03125 -3.890625 1.09375q-1.421875 1.0625 -1.421875 2.984375q0 1.796875 0.71875 2.609375q0.71875 0.8125 2.4375 0.8125zm21.628906 -15.140625q-0.71875 -0.140625 -1.5625 -0.140625q-2.65625 0 -3.71875 2.90625l0 15.125l-3.453125 0l0 -21.140625l3.359375 0l0.0625 2.15625q1.390625 -2.546875 3.921875 -2.546875q0.828125 0 1.375 0.28125l0.015625 3.359375zm7.1679688 17.890625l-3.453125 0l0 -21.140625l3.453125 0l0 21.140625zm0.265625 -26.734375q0 0.875 -0.484375 1.46875q-0.484375 0.578125 -1.484375 0.578125q-0.96875 0 -1.46875 -0.578125q-0.484375 -0.59375 -0.484375 -1.46875q0 -0.890625 0.484375 -1.484375q0.5 -0.609375 1.46875 -0.609375q0.984375 0 1.46875 0.625q0.5 0.609375 0.5 1.46875zm16.035156 26.734375q-0.3125 -0.6875 -0.4375 -2.3125q-1.84375 2.703125 -4.6875 2.703125q-2.875 0 -4.484375 -1.609375q-1.609375 -1.609375 -1.609375 -4.546875q0 -3.21875 2.1875 -5.109375q2.1875 -1.90625 5.984375 -1.9375l2.546875 0l0 -2.25q0 -1.890625 -0.84375 -2.6875q-0.84375 -0.8125 -2.5625 -0.8125q-1.5625 0 -2.546875 0.9375q-0.96875 0.921875 -0.96875 2.34375l-3.453125 0q0 -1.609375 0.953125 -3.078125q0.96875 -1.484375 2.578125 -2.328125q1.625 -0.84375 3.625 -0.84375q3.234375 0 4.921875 1.625q1.6875 1.609375 1.734375 4.6875l0 10.671875q0.015625 2.4375 0.65625 4.234375l0 0.3125l-3.59375 0zm-4.609375 -2.75q1.28125 0 2.421875 -0.703125q1.15625 -0.703125 1.6875 -1.765625l0 -5.03125l-1.953125 0q-2.46875 0.03125 -3.890625 1.09375q-1.421875 1.0625 -1.421875 2.984375q0 1.796875 0.71875 2.609375q0.71875 0.8125 2.4375 0.8125zm16.160156 -18.390625l0.09375 2.296875q2.015625 -2.6875 5.140625 -2.6875q5.609375 0 5.6875 7.484375l0 14.046875l-3.4375 0l0 -13.890625q0 -2.484375 -0.84375 -3.515625q-0.828125 -1.046875 -2.484375 -1.046875q-1.28125 0 -2.3125 0.859375q-1.03125 0.859375 -1.65625 2.234375l0 15.359375l-3.453125 0l0 -21.140625l3.265625 0zm20.621094 -5.109375l0 5.109375l3.1875 0l0 2.796875l-3.1875 0l0 13.109375q0 1.25 0.40625 1.890625q0.421875 0.640625 1.40625 0.640625q0.6875 0 1.390625 -0.234375l-0.03125 2.9375q-1.171875 0.390625 -2.40625 0.390625q-2.046875 0 -3.125 -1.46875q-1.078125 -1.46875 -1.078125 -4.140625l0 -13.125l-3.21875 0l0 -2.796875l3.21875 0l0 -5.109375l3.4375 0zm7.5195312 24.359375q0 -0.9375 0.546875 -1.5625q0.5625 -0.625 1.671875 -0.625q1.125 0 1.703125 0.625q0.578125 0.625 0.578125 1.5625q0 0.890625 -0.578125 1.5q-0.578125 0.609375 -1.703125 0.609375q-1.109375 0 -1.671875 -0.609375q-0.546875 -0.609375 -0.546875 -1.5zm14.027344 1.890625l-3.453125 0l0 -21.140625l3.453125 0l0 21.140625zm0.265625 -26.734375q0 0.875 -0.484375 1.46875q-0.484375 0.578125 -1.484375 0.578125q-0.96875 0 -1.46875 -0.578125q-0.484375 -0.59375 -0.484375 -1.46875q0 -0.890625 0.484375 -1.484375q0.5 -0.609375 1.46875 -0.609375q0.984375 0 1.46875 0.625q0.5 0.609375 0.5 1.46875zm8.425781 5.59375l0.09375 2.296875q2.015625 -2.6875 5.140625 -2.6875q5.609375 0 5.6875 7.484375l0 14.046875l-3.4375 0l0 -13.890625q0 -2.484375 -0.84375 -3.515625q-0.828125 -1.046875 -2.484375 -1.046875q-1.28125 0 -2.3125 0.859375q-1.03125 0.859375 -1.65625 2.234375l0 15.359375l-3.453125 0l0 -21.140625l3.265625 0zm17.621094 21.140625l0 -18.34375l-2.765625 0l0 -2.796875l2.765625 0l0 -2.4375q0.046875 -3.21875 1.625 -5.015625q1.578125 -1.8125 4.4375 -1.8125q1.046875 0 2.09375 0.328125l-0.171875 2.921875q-0.75 -0.171875 -1.578125 -0.171875q-2.953125 0 -2.953125 4.203125l0 1.984375l3.609375 0l0 2.796875l-3.609375 0l0 18.34375l-3.453125 0zm10.40625 -11.546875q0 -4.609375 2.234375 -7.296875q2.234375 -2.6875 5.90625 -2.6875q3.671875 0 5.90625 2.625q2.234375 2.609375 2.296875 7.125l0 2.234375q0 4.578125 -2.234375 7.265625q-2.21875 2.671875 -5.921875 2.671875q-3.671875 0 -5.890625 -2.59375q-2.21875 -2.609375 -2.296875 -7.03125l0 -2.3125zm3.453125 2.0q0 3.25 1.28125 5.125q1.28125 1.859375 3.453125 1.859375q4.5625 0 4.703125 -6.59375l0 -2.390625q0 -3.234375 -1.296875 -5.125q-1.28125 -1.890625 -3.453125 -1.890625q-2.125 0 -3.40625 1.890625q-1.28125 1.890625 -1.28125 5.109375l0 2.015625zm18.296875 11.984375l-2.921875 0l9.984375 -30.875l2.90625 0l-9.96875 30.875zm19.871094 -7.6875l4.0 -15.890625l3.515625 0l-6.265625 21.140625l-2.578125 0l-6.34375 -21.140625l3.515625 0l4.15625 15.890625zm21.109375 5.25l-3.46875 0l0 -24.078125l-5.984375 2.671875l0 -3.28125l8.90625 -3.890625l0.546875 0l0 28.578125zm10.699219 2.4375l-2.921875 0l9.984375 -30.875l2.90625 0l-9.96875 30.875zm13.152344 -13.96875q0 -4.9375 1.796875 -7.46875q1.796875 -2.53125 5.34375 -2.53125q3.078125 0 4.765625 2.46875l0.15625 -2.078125l3.171875 0l0 29.265625l-3.453125 0l0 -9.984375q-1.6875 2.25 -4.65625 2.25q-3.421875 0 -5.265625 -2.484375q-1.828125 -2.5 -1.859375 -7.265625l0 -2.171875zm3.453125 1.984375q0 3.546875 1.09375 5.265625q1.09375 1.71875 3.484375 1.71875q2.421875 0 3.75 -2.328125l0 -11.328125q-1.40625 -2.34375 -3.734375 -2.34375q-2.390625 0 -3.484375 1.71875q-1.09375 1.71875 -1.109375 5.1875l0 2.109375zm28.066406 7.6875q-1.71875 2.25 -5.015625 2.25q-2.875 0 -4.34375 -1.984375q-1.453125 -1.984375 -1.484375 -5.765625l0 -13.78125l3.4375 0l0 13.515625q0 4.953125 2.96875 4.953125q3.15625 0 4.34375 -2.8125l0 -15.65625l3.453125 0l0 21.140625l-3.28125 0l-0.078125 -1.859375zm16.117188 2.25q-3.953125 0 -6.0625 -2.34375q-2.109375 -2.359375 -2.140625 -6.921875l0 -2.546875q0 -4.734375 2.0625 -7.421875q2.0625 -2.6875 5.75 -2.6875q3.703125 0 5.53125 2.375q1.84375 2.359375 1.890625 7.359375l0 2.265625l-11.796875 0l0 0.484375q0 3.40625 1.28125 4.953125q1.28125 1.53125 3.671875 1.53125q1.53125 0 2.6875 -0.578125q1.171875 -0.578125 2.1875 -1.828125l1.796875 2.1875q-2.25 3.171875 -6.859375 3.171875zm-0.390625 -18.953125q-2.15625 0 -3.1875 1.484375q-1.03125 1.46875 -1.171875 4.578125l8.328125 0l0 -0.46875q-0.140625 -3.015625 -1.09375 -4.296875q-0.9375 -1.296875 -2.875 -1.296875zm20.292969 0.671875q-0.71875 -0.140625 -1.5625 -0.140625q-2.65625 0 -3.71875 2.90625l0 15.125l-3.453125 0l0 -21.140625l3.359375 0l0.0625 2.15625q1.390625 -2.546875 3.921875 -2.546875q0.828125 0 1.375 0.28125l0.015625 3.359375zm9.214844 12.140625l3.84375 -15.390625l3.671875 0l-6.90625 24.125q-0.78125 2.71875 -2.21875 4.125q-1.421875 1.421875 -3.234375 1.421875q-0.703125 0 -1.796875 -0.3125l0 -2.921875l0.765625 0.078125q1.5 0 2.34375 -0.71875q0.859375 -0.703125 1.390625 -2.46875l0.671875 -2.359375l-6.203125 -20.96875l3.765625 0l3.90625 15.390625zm11.832031 8.1875l-2.921875 0l9.984375 -30.875l2.90625 0l-9.96875 30.875z" fill-rule="nonzero"></path><path stroke="#1155cc" stroke-width="3.1999998092651367" stroke-linejoin="bevel" stroke-linecap="butt" d="m405.05865 338.17218l496.3672 0" fill-rule="nonzero"></path><a xlink:href="http://www.google.com/url?q=http%3A%2F%2Fmyvariant.info%2Fv1%2Fvariant%2F&amp;sa=D&amp;sntz=1&amp;usg=AFQjCNFiHaSpoh1vmliuxG7exhw05uxiqg" target="_blank"><path fill="transparent" fill-opacity="0" d="m394.55084 254.6748l0 -46.875l517.3828 0l0 46.875zm517.3828 0l0 -46.875l0 0l0 46.875z" fill-rule="evenodd"></path></a><a xlink:href="http://www.google.com/url?q=http%3A%2F%2Fmyvariant.info%2Fv1%2Fquery%2F&amp;sa=D&amp;sntz=1&amp;usg=AFQjCNHE0FxF-bF5UbQ7Ac-JjPHg-YbDSw" target="_blank"><path fill="transparent" fill-opacity="0" d="m405.05865 341.00812l0 -46.875l496.3672 0l0 46.875zm496.3672 0l0 -46.875l0 0l0 46.875z" fill-rule="evenodd"></path></a><path fill="#000000" fill-opacity="0.0" d="m60.480053 19.222256l1088.6299 0l0 80.0l-1088.6299 0z" fill-rule="nonzero"></path><path fill="#000000" d="m308.9278 78.30226l0 -34.125004l10.546875 0q5.34375 0 8.109375 2.375q2.78125 2.375 2.78125 6.96875q0 2.609375 -1.15625 4.484375q-1.140625 1.875 -3.125 2.734375q2.296875 0.65625 3.53125 2.640625q1.25 1.9843788 1.25 4.890629q0 4.96875 -2.734375 7.5q-2.734375 2.53125 -7.90625 2.53125l-11.296875 0zm6.890625 -14.843754l0 9.125004l4.40625 0q1.84375 0 2.796875 -1.140625q0.96875 -1.15625 0.96875 -3.265625q0 -4.593754 -3.328125 -4.718754l-4.84375 0zm0 -5.015625l3.578125 0q4.0625 0 4.0625 -4.1875q0 -2.328125 -0.9375 -3.328125q-0.9375 -1.015625 -3.046875 -1.015625l-3.65625 0l0 8.53125zm31.757812 19.859379q-0.28125 -0.59375 -0.5625 -1.96875q-1.78125 2.4375 -4.828125 2.4375q-3.1875 0 -5.296875 -2.109375q-2.09375 -2.109375 -2.09375 -5.46875q0 -3.984375 2.546875 -6.15625q2.546875 -2.1875038 7.328125 -2.2343788l2.015625 0l0 -2.03125q0 -1.71875 -0.59375 -2.421875q-0.578125 -0.703125 -1.703125 -0.703125q-2.484375 0 -2.484375 2.90625l-6.640625 0q0 -3.515625 2.640625 -5.796875q2.640625 -2.28125 6.671875 -2.28125q4.171875 0 6.453125 2.171875q2.28125 2.15625 2.28125 6.1875l0 11.937504q0.046875 3.28125 0.9375 5.125l0 0.40625l-6.671875 0zm-3.921875 -4.734375q1.109375 0 1.875 -0.4375q0.78125 -0.453125 1.15625 -1.0625l0 -5.28125l-1.59375 0q-1.6875 0 -2.671875 1.078125q-0.96875 1.078125 -0.96875 2.890625q0 2.8125 2.203125 2.8125zm22.171875 -26.859379l0 6.234375l3.40625 0l0 4.984375l-3.40625 0l0 12.593754q0 1.5 0.40625 2.0625q0.421875 0.5625 1.59375 0.5625q0.953125 0 1.5625 -0.171875l-0.046875 5.15625q-1.6875 0.640625 -3.65625 0.640625q-6.421875 0 -6.484375 -7.359375l0 -13.484379l-2.9375 0l0 -4.984375l2.9375 0l0 -6.234375l6.625 0zm16.195312 26.546879q2.890625 0 2.9375 -3.75l6.234375 0q-0.046875 4.15625 -2.5625 6.71875q-2.5 2.546875 -6.46875 2.546875q-4.890625 0 -7.46875 -3.046875q-2.578125 -3.046875 -2.625 -8.984375l0 -2.015625q0 -5.968754 2.53125 -9.109379q2.546875 -3.140625 7.515625 -3.140625q4.203125 0 6.609375 2.59375q2.421875 2.578125 2.46875 7.34375l-6.234375 0q-0.03125 -2.140625 -0.71875 -3.28125q-0.671875 -1.15625 -2.234375 -1.15625q-1.734375 0 -2.484375 1.234375q-0.75 1.234375 -0.796875 4.765625l0 2.5781288q0 3.09375 0.296875 4.328125q0.3125 1.234375 1.015625 1.8125q0.703125 0.5625 1.984375 0.5625zm19.390625 -18.093754q2.15625 -2.6875 5.296875 -2.6875q3.46875 0 5.265625 2.4375q1.8125 2.4375 1.828125 7.265625l0 16.125004l-6.65625 0l0 -16.062504q0 -2.21875 -0.6875 -3.21875q-0.6875 -1.0 -2.234375 -1.0q-1.8125 0 -2.8125 1.671875l0 18.609379l-6.640625 0l0 -36.000004l6.640625 0l0 12.859375zm27.328125 9.640629q0 -6.234379 2.078125 -9.281254q2.09375 -3.046875 6.1875 -3.046875q3.328125 0 5.296875 3.0l0.421875 -2.53125l5.796875 0l0 35.10938l-6.65625 0l0 -11.71875q-1.859375 2.4375 -4.875 2.4375q-4.015625 0 -6.109375 -3.109375q-2.09375 -3.109375 -2.140625 -8.9375l0 -1.921875zm6.65625 1.65625q0 3.6875 0.796875 5.25q0.796875 1.546875 2.71875 1.546875q2.015625 0 2.953125 -1.5625l0 -12.078129q-0.9375 -1.640625 -2.9375 -1.640625q-1.890625 0 -2.703125 1.53125q-0.8125 1.515625 -0.828125 5.078129l0 1.875zm30.5625 9.515625q-2.0625 2.796875 -5.53125 2.796875q-3.5 0 -5.3125 -2.40625q-1.796875 -2.40625 -1.796875 -7.0l0 -16.421879l6.640625 0l0 16.593754q0.046875 3.703125 2.453125 3.703125q2.28125 0 3.28125 -1.96875l0 -18.328129l6.6875 0l0 25.359379l-6.234375 0l-0.1875 -2.328125zm21.390625 2.796875q-5.109375 0 -7.96875 -3.046875q-2.859375 -3.046875 -2.859375 -8.71875l0 -2.015625q0 -6.000004 2.625 -9.250004q2.625 -3.265625 7.53125 -3.265625q4.78125 0 7.1875 3.0625q2.421875 3.046875 2.46875 9.046879l0 3.265625l-13.203125 0q0.140625 2.8125 1.234375 4.109375q1.109375 1.296875 3.40625 1.296875q3.328125 0 5.5625 -2.265625l2.59375 4.0q-1.21875 1.6875 -3.546875 2.734375q-2.3125 1.046875 -5.03125 1.046875zm-4.171875 -15.562504l6.640625 0l0 -0.609375q-0.046875 -2.28125 -0.75 -3.453125q-0.703125 -1.171875 -2.4375 -1.171875q-1.734375 0 -2.53125 1.25q-0.78125 1.234375 -0.921875 3.984375zm29.421875 -3.875l-2.203125 -0.1875q-2.71875 0 -3.6875 2.390625l0 16.765629l-6.65625 0l0 -25.359379l6.265625 0l0.1875 2.734375q1.5625 -3.203125 4.328125 -3.203125q1.125 0 1.828125 0.296875l-0.0625 6.5625zm10.3515625 18.968754l-6.65625 0l0 -25.359379l6.65625 0l0 25.359379zm-6.953125 -31.921879q0 -1.546875 0.984375 -2.53125q0.984375 -0.984375 2.625 -0.984375q1.640625 0 2.625 0.984375q0.984375 0.984375 0.984375 2.53125q0 1.515625 -0.984375 2.53125q-0.96875 1.0 -2.640625 1.0q-1.65625 0 -2.625 -1.0q-0.96875 -1.015625 -0.96875 -2.53125zm22.328125 32.39063q-5.109375 0 -7.96875 -3.046875q-2.859375 -3.046875 -2.859375 -8.71875l0 -2.015625q0 -6.000004 2.625 -9.250004q2.625 -3.265625 7.53125 -3.265625q4.78125 0 7.1875 3.0625q2.421875 3.046875 2.46875 9.046879l0 3.265625l-13.203125 0q0.140625 2.8125 1.234375 4.109375q1.109375 1.296875 3.40625 1.296875q3.328125 0 5.5625 -2.265625l2.59375 4.0q-1.21875 1.6875 -3.546875 2.734375q-2.3125 1.046875 -5.03125 1.046875zm-4.171875 -15.562504l6.640625 0l0 -0.609375q-0.046875 -2.28125 -0.75 -3.453125q-0.703125 -1.171875 -2.4375 -1.171875q-1.734375 0 -2.53125 1.25q-0.78125 1.234375 -0.921875 3.984375zm28.125 8.296879q0 -0.84375 -0.8125 -1.5625q-0.796875 -0.71875 -3.59375 -1.9375q-4.09375 -1.65625 -5.640625 -3.4375q-1.53125 -1.7812538 -1.53125 -4.437504q0 -3.328125 2.40625 -5.484375q2.40625 -2.171875 6.359375 -2.171875q4.171875 0 6.671875 2.15625q2.515625 2.15625 2.515625 5.78125l-6.625 0q0 -3.09375 -2.578125 -3.09375q-1.0625 0 -1.75 0.65625q-0.671875 0.65625 -0.671875 1.828125q0 0.84375 0.75 1.5q0.75 0.640625 3.546875 1.828125q4.046875 1.5000038 5.71875 3.3437538q1.6875 1.84375 1.6875 4.765625q0 3.40625 -2.5625 5.46875q-2.546875 2.0625 -6.703125 2.0625q-2.78125 0 -4.921875 -1.09375q-2.125 -1.09375 -3.34375 -3.03125q-1.203125 -1.953125 -1.203125 -4.203125l6.3125 0q0.046875 1.734375 0.796875 2.609375q0.765625 0.859375 2.5 0.859375q2.671875 0 2.671875 -2.40625zm15.28125 -3.703125q0 -3.28125 0.640625 -5.218754q0.65625 -1.9375 2.3125 -3.6875q1.765625 -1.953125 2.34375 -3.1875q0.59375 -1.25 0.59375 -2.515625q0 -3.90625 -2.53125 -3.90625q-1.125 0 -1.875 1.078125q-0.75 1.078125 -0.796875 2.90625l-6.640625 0q0.046875 -4.546875 2.546875 -7.046875q2.5 -2.515625 6.765625 -2.515625q4.359375 0 6.765625 2.421875q2.421875 2.421875 2.421875 6.78125q0 3.609375 -2.984375 7.078125l-1.9375 2.203125q-0.96875 1.15625 -1.375 2.3906288q-0.390625 1.21875 -0.4375 3.21875l-5.8125 0zm-0.609375 7.171875q0 -1.59375 1.015625 -2.59375q1.03125 -1.015625 2.59375 -1.015625q1.625 0 2.625 1.015625q1.015625 1.015625 1.015625 2.59375q0 1.546875 -0.984375 2.578125q-0.984375 1.03125 -2.65625 1.03125q-1.640625 0 -2.625 -1.03125q-0.984375 -1.03125 -0.984375 -2.578125zm39.09375 -15.468754l5.140625 -15.328125l7.5 0l-9.140625 21.750004l0 12.375l-6.984375 0l0 -12.375l-9.171875 -21.750004l7.5 0l5.15625 15.328125zm25.664062 19.265629q-5.109375 0 -7.96875 -3.046875q-2.859375 -3.046875 -2.859375 -8.71875l0 -2.015625q0 -6.000004 2.625 -9.250004q2.625 -3.265625 7.53125 -3.265625q4.78125 0 7.1875 3.0625q2.421875 3.046875 2.46875 9.046879l0 3.265625l-13.203125 0q0.140625 2.8125 1.234375 4.109375q1.109375 1.296875 3.40625 1.296875q3.328125 0 5.5625 -2.265625l2.59375 4.0q-1.21875 1.6875 -3.546875 2.734375q-2.3125 1.046875 -5.03125 1.046875zm-4.171875 -15.562504l6.640625 0l0 -0.609375q-0.046875 -2.28125 -0.75 -3.453125q-0.703125 -1.171875 -2.4375 -1.171875q-1.734375 0 -2.53125 1.25q-0.78125 1.234375 -0.921875 3.984375zm28.125 8.296879q0 -0.84375 -0.8125 -1.5625q-0.796875 -0.71875 -3.59375 -1.9375q-4.09375 -1.65625 -5.640625 -3.4375q-1.53125 -1.7812538 -1.53125 -4.437504q0 -3.328125 2.40625 -5.484375q2.40625 -2.171875 6.359375 -2.171875q4.171875 0 6.671875 2.15625q2.515625 2.15625 2.515625 5.78125l-6.625 0q0 -3.09375 -2.578125 -3.09375q-1.0625 0 -1.75 0.65625q-0.671875 0.65625 -0.671875 1.828125q0 0.84375 0.75 1.5q0.75 0.640625 3.546875 1.828125q4.046875 1.5000038 5.71875 3.3437538q1.6875 1.84375 1.6875 4.765625q0 3.40625 -2.5625 5.46875q-2.546875 2.0625 -6.703125 2.0625q-2.78125 0 -4.921875 -1.09375q-2.125 -1.09375 -3.34375 -3.03125q-1.203125 -1.953125 -1.203125 -4.203125l6.3125 0q0.046875 1.734375 0.796875 2.609375q0.765625 0.859375 2.5 0.859375q2.671875 0 2.671875 -2.40625zm12.546875 15.40625l-3.546875 -1.859375l0.890625 -1.65625q1.5 -2.765625 1.546875 -5.59375l0 -5.265625l5.765625 0l-0.015625 4.703125q-0.03125 2.5 -1.28125 5.171875q-1.234375 2.671875 -3.359375 4.5zm32.101562 -15.40625q0 -0.84375 -0.8125 -1.5625q-0.796875 -0.71875 -3.59375 -1.9375q-4.09375 -1.65625 -5.640625 -3.4375q-1.53125 -1.7812538 -1.53125 -4.437504q0 -3.328125 2.40625 -5.484375q2.40625 -2.171875 6.359375 -2.171875q4.171875 0 6.671875 2.15625q2.515625 2.15625 2.515625 5.78125l-6.625 0q0 -3.09375 -2.578125 -3.09375q-1.0625 0 -1.75 0.65625q-0.671875 0.65625 -0.671875 1.828125q0 0.84375 0.75 1.5q0.75 0.640625 3.546875 1.828125q4.046875 1.5000038 5.71875 3.3437538q1.6875 1.84375 1.6875 4.765625q0 3.40625 -2.5625 5.46875q-2.546875 2.0625 -6.703125 2.0625q-2.78125 0 -4.921875 -1.09375q-2.125 -1.09375 -3.34375 -3.03125q-1.203125 -1.953125 -1.203125 -4.203125l6.3125 0q0.046875 1.734375 0.796875 2.609375q0.765625 0.859375 2.5 0.859375q2.671875 0 2.671875 -2.40625zm23.046875 4.46875q-2.0625 2.796875 -5.53125 2.796875q-3.5 0 -5.3125 -2.40625q-1.796875 -2.40625 -1.796875 -7.0l0 -16.421879l6.640625 0l0 16.593754q0.046875 3.703125 2.453125 3.703125q2.28125 0 3.28125 -1.96875l0 -18.328129l6.6875 0l0 25.359379l-6.234375 0l-0.1875 -2.328125zm30.90625 -9.5625q0 5.984375 -2.046875 9.171875q-2.046875 3.1875 -6.109375 3.1875q-3.09375 0 -4.96875 -2.515625l0 11.796875l-6.625 0l0 -35.10938l6.140625 0l0.234375 2.3125q1.890625 -2.78125 5.171875 -2.78125q4.0625 0 6.109375 2.953125q2.046875 2.953125 2.09375 9.046879l0 1.9375zm-6.609375 -1.65625q0 -3.6875038 -0.8125 -5.203129q-0.796875 -1.53125 -2.71875 -1.53125q-2.046875 0 -2.984375 1.71875l0 11.875004q0.890625 1.640625 3.03125 1.640625q1.96875 0 2.71875 -1.65625q0.765625 -1.671875 0.765625 -5.1875l0 -1.65625zm30.375 1.65625q0 5.984375 -2.046875 9.171875q-2.046875 3.1875 -6.109375 3.1875q-3.09375 0 -4.96875 -2.515625l0 11.796875l-6.625 0l0 -35.10938l6.140625 0l0.234375 2.3125q1.890625 -2.78125 5.171875 -2.78125q4.0625 0 6.109375 2.953125q2.046875 2.953125 2.09375 9.046879l0 1.9375zm-6.609375 -1.65625q0 -3.6875038 -0.8125 -5.203129q-0.796875 -1.53125 -2.71875 -1.53125q-2.046875 0 -2.984375 1.71875l0 11.875004q0.890625 1.640625 3.03125 1.640625q1.96875 0 2.71875 -1.65625q0.765625 -1.671875 0.765625 -5.1875l0 -1.65625zm9.84375 0.046875q0 -5.765629 2.71875 -9.046879q2.71875 -3.28125 7.53125 -3.28125q4.84375 0 7.5625 3.28125q2.71875 3.28125 2.71875 9.093754l0 1.609375q0 5.796875 -2.703125 9.0625q-2.6875 3.25 -7.53125 3.25q-4.875 0 -7.59375 -3.265625q-2.703125 -3.28125 -2.703125 -9.09375l0 -1.609375zm6.65625 1.65625q0 6.796875 3.640625 6.796875q3.34375 0 3.609375 -5.671875l0.015625 -2.78125q0 -3.4687538 -0.96875 -5.140629q-0.953125 -1.6875 -2.703125 -1.6875q-1.6875 0 -2.640625 1.6875q-0.953125 1.671875 -0.953125 5.140629l0 1.65625zm30.523438 -7.125004l-2.203125 -0.1875q-2.71875 0 -3.6875 2.390625l0 16.765629l-6.65625 0l0 -25.359379l6.265625 0l0.1875 2.734375q1.5625 -3.203125 4.328125 -3.203125q1.125 0 1.828125 0.296875l-0.0625 6.5625zm11.1015625 -12.625l0 6.234375l3.40625 0l0 4.984375l-3.40625 0l0 12.593754q0 1.5 0.40625 2.0625q0.421875 0.5625 1.59375 0.5625q0.953125 0 1.5625 -0.171875l-0.046875 5.15625q-1.6875 0.640625 -3.65625 0.640625q-6.421875 0 -6.484375 -7.359375l0 -13.484379l-2.9375 0l0 -4.984375l2.9375 0l0 -6.234375l6.625 0zm17.273438 32.062504q-5.109375 0 -7.96875 -3.046875q-2.859375 -3.046875 -2.859375 -8.71875l0 -2.015625q0 -6.000004 2.625 -9.250004q2.625 -3.265625 7.53125 -3.265625q4.78125 0 7.1875 3.0625q2.421875 3.046875 2.46875 9.046879l0 3.265625l-13.203125 0q0.140625 2.8125 1.234375 4.109375q1.109375 1.296875 3.40625 1.296875q3.328125 0 5.5625 -2.265625l2.59375 4.0q-1.21875 1.6875 -3.546875 2.734375q-2.3125 1.046875 -5.03125 1.046875zm-4.171875 -15.562504l6.640625 0l0 -0.609375q-0.046875 -2.28125 -0.75 -3.453125q-0.703125 -1.171875 -2.4375 -1.171875q-1.734375 0 -2.53125 1.25q-0.78125 1.234375 -0.921875 3.984375zm16.015625 1.6406288q0 -6.234379 2.109375 -9.296879q2.109375 -3.078125 6.140625 -3.078125q2.921875 0 4.875 2.53125l0 -12.703125l6.671875 0l0 36.000004l-6.015625 0l-0.3125 -2.578125q-2.03125 3.046875 -5.25 3.046875q-3.984375 0 -6.078125 -3.046875q-2.09375 -3.046875 -2.140625 -8.953125l0 -1.921875zm6.65625 1.65625q0 3.75 0.796875 5.25q0.796875 1.484375 2.6875 1.484375q1.96875 0 2.984375 -1.765625l0 -11.578129q-0.984375 -1.875 -2.953125 -1.875q-1.828125 0 -2.671875 1.484375q-0.84375 1.46875 -0.84375 5.250004l0 1.75zm24.789062 1.296875l-5.5 0l-0.78125 -23.625004l7.0625 0l-0.78125 23.625004zm-6.390625 7.28125q0 -1.59375 1.0 -2.609375q1.015625 -1.015625 2.625 -1.015625q1.59375 0 2.59375 1.015625q1.015625 1.015625 1.015625 2.609375q0 1.578125 -1.0 2.59375q-0.984375 1.0 -2.609375 1.0q-1.640625 0 -2.640625 -1.0q-0.984375 -1.015625 -0.984375 -2.59375z" fill-rule="nonzero"></path></g></svg>

