<?xml version="1.0" standalone="yes"?>

<svg version="1.1" viewBox="0.0 0.0 1209.0 480.0" fill="none" stroke="none" stroke-linecap="square" stroke-miterlimit="10" xmlns="http://www.w3.org/2000/svg" xmlns:xlink="http://www.w3.org/1999/xlink"><clipPath id="p.0"><path d="m0 0l1209.0 0l0 480.0l-1209.0 0l0 -480.0z" clip-rule="nonzero"></path></clipPath><g clip-path="url(#p.0)"><path fill="#000000" fill-opacity="0.0" d="m0 0l1209.6011 0l0 480.0l-1209.6011 0z" fill-rule="nonzero"></path><path fill="#000000" fill-opacity="0.0" d="m90.720085 70.13133l1028.1575 0l0 185.85826l-1028.1575 0z" fill-rule="nonzero"></path><path fill="#000000" d="m301.50586 185.9296l0 31.5q-0.0625 7.09375 -3.90625 10.859375q-3.84375 3.765625 -11.03125 3.765625q-7.3125 0 -11.171875 -3.8125q-3.859375 -3.8125 -3.859375 -11.03125l0 -31.28125l9.25 0l0 31.3125q0 3.875 1.25 5.53125q1.25 1.65625 4.53125 1.65625q3.28125 0 4.5 -1.640625q1.21875 -1.640625 1.25 -5.390625l0 -31.46875l9.1875 0zm32.875 29.65625q0 7.96875 -2.734375 12.21875q-2.734375 4.25 -8.140625 4.25q-4.125 0 -6.625 -3.34375l0 15.71875l-8.84375 0l0 -46.8125l8.1875 0l0.3125 3.09375q2.53125 -3.71875 6.90625 -3.71875q5.40625 0 8.140625 3.9375q2.734375 3.9375 2.796875 12.0625l0 2.59375zm-8.8125 -2.21875q0 -4.90625 -1.078125 -6.9375q-1.078125 -2.03125 -3.640625 -2.03125q-2.71875 0 -3.96875 2.28125l0 15.84375q1.1875 2.1875 4.03125 2.1875q2.625 0 3.640625 -2.21875q1.015625 -2.21875 1.015625 -6.90625l0 -2.21875zm30.0625 2.25l-15.28125 0l0 -7.375l15.28125 0l0 7.375zm17.625 -26.3125l0 8.3125l4.53125 0l0 6.65625l-4.53125 0l0 16.78125q0 2.0 0.546875 2.75q0.546875 0.75 2.109375 0.75q1.28125 0 2.09375 -0.21875l-0.0625 6.875q-2.25 0.84375 -4.875 0.84375q-8.5625 0 -8.65625 -9.8125l0 -17.96875l-3.90625 0l0 -6.65625l3.90625 0l0 -8.3125l8.84375 0zm8.34375 24.125q0 -7.6875 3.625 -12.0625q3.625 -4.375 10.03125 -4.375q6.46875 0 10.09375 4.375q3.625 4.375 3.625 12.125l0 2.15625q0 7.71875 -3.59375 12.0625q-3.59375 4.34375 -10.0625 4.34375q-6.5 0 -10.109375 -4.359375q-3.609375 -4.359375 -3.609375 -12.109375l0 -2.15625zm8.875 2.21875q0 9.0625 4.84375 9.0625q4.46875 0 4.8125 -7.5625l0.03125 -3.71875q0 -4.625 -1.28125 -6.859375q-1.28125 -2.234375 -3.625 -2.234375q-2.25 0 -3.515625 2.234375q-1.265625 2.234375 -1.265625 6.859375l0 2.21875zm39.90625 -0.03125l-15.28125 0l0 -7.375l15.28125 0l0 7.375zm6.15625 -2.125q0 -8.3125 2.8125 -12.40625q2.8125 -4.09375 8.1875 -4.09375q3.90625 0 6.5 3.375l0 -16.9375l8.90625 0l0 48.0l-8.03125 0l-0.40625 -3.4375q-2.71875 4.0625 -7.0 4.0625q-5.3125 0 -8.109375 -4.0625q-2.796875 -4.0625 -2.859375 -11.9375l0 -2.5625zm8.875 2.21875q0 5.0 1.0625 6.984375q1.0625 1.984375 3.59375 1.984375q2.625 0 3.96875 -2.34375l0 -15.4375q-1.3125 -2.5 -3.9375 -2.5q-2.4375 0 -3.5625 1.96875q-1.125 1.96875 -1.125 7.0l0 2.34375zm40.09375 15.71875q-0.375 -0.78125 -0.75 -2.625q-2.375 3.25 -6.4375 3.25q-4.25 0 -7.046875 -2.8125q-2.796875 -2.8125 -2.796875 -7.28125q0 -5.3125 3.390625 -8.21875q3.390625 -2.90625 9.765625 -2.96875l2.6875 0l0 -2.71875q0 -2.28125 -0.78125 -3.21875q-0.78125 -0.9375 -2.28125 -0.9375q-3.3125 0 -3.3125 3.875l-8.84375 0q0 -4.6875 3.515625 -7.734375q3.515625 -3.046875 8.890625 -3.046875q5.5625 0 8.609375 2.890625q3.046875 2.890625 3.046875 8.265625l0 15.90625q0.0625 4.375 1.25 6.84375l0 0.53125l-8.90625 0zm-5.21875 -6.3125q1.46875 0 2.5 -0.59375q1.03125 -0.59375 1.53125 -1.40625l0 -7.03125l-2.125 0q-2.25 0 -3.546875 1.4375q-1.296875 1.4375 -1.296875 3.84375q0 3.75 2.9375 3.75zm29.5625 -35.8125l0 8.3125l4.53125 0l0 6.65625l-4.53125 0l0 16.78125q0 2.0 0.546875 2.75q0.546875 0.75 2.109375 0.75q1.28125 0 2.09375 -0.21875l-0.0625 6.875q-2.25 0.84375 -4.875 0.84375q-8.5625 0 -8.65625 -9.8125l0 -17.96875l-3.90625 0l0 -6.65625l3.90625 0l0 -8.3125l8.84375 0zm23.03125 42.75q-6.8125 0 -10.625 -4.0625q-3.8125 -4.0625 -3.8125 -11.625l0 -2.6875q0 -8.0 3.5 -12.34375q3.5 -4.34375 10.03125 -4.34375q6.375 0 9.59375 4.078125q3.21875 4.078125 3.28125 12.078125l0 4.34375l-17.59375 0q0.1875 3.75 1.65625 5.484375q1.46875 1.734375 4.53125 1.734375q4.4375 0 7.40625 -3.03125l3.46875 5.34375q-1.625 2.25 -4.71875 3.640625q-3.09375 1.390625 -6.71875 1.390625zm-5.5625 -20.75l8.84375 0l0 -0.8125q-0.0625 -3.03125 -1.0 -4.59375q-0.9375 -1.5625 -3.25 -1.5625q-2.3125 0 -3.359375 1.65625q-1.046875 1.65625 -1.234375 5.3125z" fill-rule="nonzero"></path><path fill="#000000" d="m571.55273 222.0546l5.734375 -24.75l7.6875 0l-9.84375 34.125l-7.171875 0l-9.765625 -34.125l7.640625 0l5.71875 24.75zm28.359375 9.375q-0.28125 -0.59375 -0.5625 -1.96875q-1.78125 2.4375 -4.828125 2.4375q-3.1875 0 -5.296875 -2.109375q-2.09375 -2.109375 -2.09375 -5.46875q0 -3.984375 2.546875 -6.15625q2.546875 -2.1875 7.328125 -2.234375l2.015625 0l0 -2.03125q0 -1.71875 -0.59375 -2.421875q-0.578125 -0.703125 -1.703125 -0.703125q-2.484375 0 -2.484375 2.90625l-6.640625 0q0 -3.515625 2.640625 -5.796875q2.640625 -2.28125 6.671875 -2.28125q4.171875 0 6.453125 2.171875q2.28125 2.15625 2.28125 6.1875l0 11.9375q0.046875 3.28125 0.9375 5.125l0 0.40625l-6.671875 0zm-3.921875 -4.734375q1.109375 0 1.875 -0.4375q0.78125 -0.453125 1.15625 -1.0625l0 -5.28125l-1.59375 0q-1.6875 0 -2.671875 1.078125q-0.96875 1.078125 -0.96875 2.890625q0 2.8125 2.203125 2.8125zm26.984375 -14.234375l-2.203125 -0.1875q-2.71875 0 -3.6875 2.390625l0 16.765625l-6.65625 0l0 -25.359375l6.265625 0l0.1875 2.734375q1.5625 -3.203125 4.328125 -3.203125q1.125 0 1.828125 0.296875l-0.0625 6.5625zm10.3515625 18.96875l-6.65625 0l0 -25.359375l6.65625 0l0 25.359375zm-6.953125 -31.921875q0 -1.546875 0.984375 -2.53125q0.984375 -0.984375 2.625 -0.984375q1.640625 0 2.625 0.984375q0.984375 0.984375 0.984375 2.53125q0 1.515625 -0.984375 2.53125q-0.96875 1.0 -2.640625 1.0q-1.65625 0 -2.625 -1.0q-0.96875 -1.015625 -0.96875 -2.53125zm24.140625 31.921875q-0.28125 -0.59375 -0.5625 -1.96875q-1.78125 2.4375 -4.828125 2.4375q-3.1875 0 -5.296875 -2.109375q-2.09375 -2.109375 -2.09375 -5.46875q0 -3.984375 2.546875 -6.15625q2.546875 -2.1875 7.328125 -2.234375l2.015625 0l0 -2.03125q0 -1.71875 -0.59375 -2.421875q-0.578125 -0.703125 -1.703125 -0.703125q-2.484375 0 -2.484375 2.90625l-6.640625 0q0 -3.515625 2.640625 -5.796875q2.640625 -2.28125 6.671875 -2.28125q4.171875 0 6.453125 2.171875q2.28125 2.15625 2.28125 6.1875l0 11.9375q0.046875 3.28125 0.9375 5.125l0 0.40625l-6.671875 0zm-3.921875 -4.734375q1.109375 0 1.875 -0.4375q0.78125 -0.453125 1.15625 -1.0625l0 -5.28125l-1.59375 0q-1.6875 0 -2.671875 1.078125q-0.96875 1.078125 -0.96875 2.890625q0 2.8125 2.203125 2.8125zm20.53125 -20.625l0.1875 2.5q2.25 -2.96875 5.890625 -2.96875q6.53125 0 6.71875 9.15625l0 16.671875l-6.65625 0l0 -16.171875q0 -2.15625 -0.640625 -3.125q-0.640625 -0.984375 -2.265625 -0.984375q-1.796875 0 -2.8125 1.859375l0 18.421875l-6.65625 0l0 -25.359375l6.234375 0zm25.265625 -6.234375l0 6.234375l3.40625 0l0 4.984375l-3.40625 0l0 12.59375q0 1.5 0.40625 2.0625q0.421875 0.5625 1.59375 0.5625q0.953125 0 1.5625 -0.171875l-0.046875 5.15625q-1.6875 0.640625 -3.65625 0.640625q-6.421875 0 -6.484375 -7.359375l0 -13.484375l-2.9375 0l0 -4.984375l2.9375 0l0 -6.234375l6.625 0zm34.710938 24.609375l-9.390625 0l-1.828125 6.984375l-7.296875 0l10.671875 -34.125l6.296875 0l10.734375 34.125l-7.359375 0l-1.828125 -6.984375zm-7.890625 -5.75l6.375 0l-3.1875 -12.15625l-3.1875 12.15625zm26.007812 -12.625l0.1875 2.5q2.25 -2.96875 5.890625 -2.96875q6.53125 0 6.71875 9.15625l0 16.671875l-6.65625 0l0 -16.171875q0 -2.15625 -0.640625 -3.125q-0.640625 -0.984375 -2.265625 -0.984375q-1.796875 0 -2.8125 1.859375l0 18.421875l-6.65625 0l0 -25.359375l6.234375 0zm23.625 0l0.1875 2.5q2.25 -2.96875 5.890625 -2.96875q6.53125 0 6.71875 9.15625l0 16.671875l-6.65625 0l0 -16.171875q0 -2.15625 -0.640625 -3.125q-0.640625 -0.984375 -2.265625 -0.984375q-1.796875 0 -2.8125 1.859375l0 18.421875l-6.65625 0l0 -25.359375l6.234375 0zm16.78125 11.859375q0 -5.765625 2.71875 -9.046875q2.71875 -3.28125 7.53125 -3.28125q4.84375 0 7.5625 3.28125q2.71875 3.28125 2.71875 9.09375l0 1.609375q0 5.796875 -2.703125 9.0625q-2.6875 3.25 -7.53125 3.25q-4.875 0 -7.59375 -3.265625q-2.703125 -3.28125 -2.703125 -9.09375l0 -1.609375zm6.65625 1.65625q0 6.796875 3.640625 6.796875q3.34375 0 3.609375 -5.671875l0.015625 -2.78125q0 -3.46875 -0.96875 -5.140625q-0.953125 -1.6875 -2.703125 -1.6875q-1.6875 0 -2.640625 1.6875q-0.953125 1.671875 -0.953125 5.140625l0 1.65625zm25.710938 -19.75l0 6.234375l3.40625 0l0 4.984375l-3.40625 0l0 12.59375q0 1.5 0.40625 2.0625q0.421875 0.5625 1.59375 0.5625q0.953125 0 1.5625 -0.171875l-0.046875 5.15625q-1.6875 0.640625 -3.65625 0.640625q-6.421875 0 -6.484375 -7.359375l0 -13.484375l-2.9375 0l0 -4.984375l2.9375 0l0 -6.234375l6.625 0zm19.085938 31.59375q-0.28125 -0.59375 -0.5625 -1.96875q-1.78125 2.4375 -4.828125 2.4375q-3.1875 0 -5.296875 -2.109375q-2.09375 -2.109375 -2.09375 -5.46875q0 -3.984375 2.546875 -6.15625q2.546875 -2.1875 7.328125 -2.234375l2.015625 0l0 -2.03125q0 -1.71875 -0.59375 -2.421875q-0.578125 -0.703125 -1.703125 -0.703125q-2.484375 0 -2.484375 2.90625l-6.640625 0q0 -3.515625 2.640625 -5.796875q2.640625 -2.28125 6.671875 -2.28125q4.171875 0 6.453125 2.171875q2.28125 2.15625 2.28125 6.1875l0 11.9375q0.046875 3.28125 0.9375 5.125l0 0.40625l-6.671875 0zm-3.921875 -4.734375q1.109375 0 1.875 -0.4375q0.78125 -0.453125 1.15625 -1.0625l0 -5.28125l-1.59375 0q-1.6875 0 -2.671875 1.078125q-0.96875 1.078125 -0.96875 2.890625q0 2.8125 2.203125 2.8125zm22.171875 -26.859375l0 6.234375l3.40625 0l0 4.984375l-3.40625 0l0 12.59375q0 1.5 0.40625 2.0625q0.421875 0.5625 1.59375 0.5625q0.953125 0 1.5625 -0.171875l-0.046875 5.15625q-1.6875 0.640625 -3.65625 0.640625q-6.421875 0 -6.484375 -7.359375l0 -13.484375l-2.9375 0l0 -4.984375l2.9375 0l0 -6.234375l6.625 0zm13.9921875 31.59375l-6.65625 0l0 -25.359375l6.65625 0l0 25.359375zm-6.953125 -31.921875q0 -1.546875 0.984375 -2.53125q0.984375 -0.984375 2.625 -0.984375q1.640625 0 2.625 0.984375q0.984375 0.984375 0.984375 2.53125q0 1.515625 -0.984375 2.53125q-0.96875 1.0 -2.640625 1.0q-1.65625 0 -2.625 -1.0q-0.96875 -1.015625 -0.96875 -2.53125zm11.3125 18.421875q0 -5.765625 2.71875 -9.046875q2.71875 -3.28125 7.53125 -3.28125q4.84375 0 7.5625 3.28125q2.71875 3.28125 2.71875 9.09375l0 1.609375q0 5.796875 -2.703125 9.0625q-2.6875 3.25 -7.53125 3.25q-4.875 0 -7.59375 -3.265625q-2.703125 -3.28125 -2.703125 -9.09375l0 -1.609375zm6.65625 1.65625q0 6.796875 3.640625 6.796875q3.34375 0 3.609375 -5.671875l0.015625 -2.78125q0 -3.46875 -0.96875 -5.140625q-0.953125 -1.6875 -2.703125 -1.6875q-1.6875 0 -2.640625 1.6875q-0.953125 1.671875 -0.953125 5.140625l0 1.65625zm24.070312 -13.515625l0.1875 2.5q2.25 -2.96875 5.890625 -2.96875q6.53125 0 6.71875 9.15625l0 16.671875l-6.65625 0l0 -16.171875q0 -2.15625 -0.640625 -3.125q-0.640625 -0.984375 -2.265625 -0.984375q-1.796875 0 -2.8125 1.859375l0 18.421875l-6.65625 0l0 -25.359375l6.234375 0zm28.78125 18.5625q0 -0.84375 -0.8125 -1.5625q-0.796875 -0.71875 -3.59375 -1.9375q-4.09375 -1.65625 -5.640625 -3.4375q-1.53125 -1.78125 -1.53125 -4.4375q0 -3.328125 2.40625 -5.484375q2.40625 -2.171875 6.359375 -2.171875q4.171875 0 6.671875 2.15625q2.515625 2.15625 2.515625 5.78125l-6.625 0q0 -3.09375 -2.578125 -3.09375q-1.0625 0 -1.75 0.65625q-0.671875 0.65625 -0.671875 1.828125q0 0.84375 0.75 1.5q0.75 0.640625 3.546875 1.828125q4.046875 1.5 5.71875 3.34375q1.6875 1.84375 1.6875 4.765625q0 3.40625 -2.5625 5.46875q-2.546875 2.0625 -6.703125 2.0625q-2.78125 0 -4.921875 -1.09375q-2.125 -1.09375 -3.34375 -3.03125q-1.203125 -1.953125 -1.203125 -4.203125l6.3125 0q0.046875 1.734375 0.796875 2.609375q0.765625 0.859375 2.5 0.859375q2.671875 0 2.671875 -2.40625z" fill-rule="nonzero"></path><path fill="#000000" fill-opacity="0.0" d="m90.720085 265.03854l1028.1575 0l0 73.22833l-1028.1575 0z" fill-rule="nonzero"></path><path fill="#666666" d="m310.04297 320.11853l0 -28.4375l6.78125 0q4.984375 0 7.734375 3.125q2.75 3.109375 2.75 8.75l0 4.765625q0 5.640625 -2.796875 8.71875q-2.78125 3.078125 -8.09375 3.078125l-6.375 0zm3.578125 -25.359375l0 22.296875l2.875 0q3.765625 0 5.5 -2.15625q1.75 -2.171875 1.78125 -6.40625l0 -5.03125q0 -4.5 -1.734375 -6.59375q-1.71875 -2.109375 -5.21875 -2.109375l-3.203125 0zm26.332031 25.75q-3.953125 0 -6.0625 -2.34375q-2.109375 -2.359375 -2.140625 -6.921875l0 -2.546875q0 -4.734375 2.0625 -7.421875q2.0625 -2.6875 5.75 -2.6875q3.703125 0 5.53125 2.375q1.84375 2.359375 1.890625 7.359375l0 2.265625l-11.796875 0l0 0.484375q0 3.40625 1.28125 4.953125q1.28125 1.53125 3.671875 1.53125q1.53125 0 2.6875 -0.578125q1.171875 -0.578125 2.1875 -1.828125l1.796875 2.1875q-2.25 3.171875 -6.859375 3.171875zm-0.390625 -18.953125q-2.15625 0 -3.1875 1.484375q-1.03125 1.46875 -1.171875 4.578125l8.328125 0l0 -0.46875q-0.140625 -3.015625 -1.09375 -4.296875q-0.9375 -1.296875 -2.875 -1.296875zm15.292969 18.5625l-3.453125 0l0 -30.0l3.453125 0l0 30.0zm9.160156 0l-3.453125 0l0 -21.140625l3.453125 0l0 21.140625zm0.265625 -26.734375q0 0.875 -0.484375 1.46875q-0.484375 0.578125 -1.484375 0.578125q-0.96875 0 -1.46875 -0.578125q-0.484375 -0.59375 -0.484375 -1.46875q0 -0.890625 0.484375 -1.484375q0.5 -0.609375 1.46875 -0.609375q0.984375 0 1.46875 0.625q0.5 0.609375 0.5 1.46875zm11.160156 21.484375l4.0 -15.890625l3.515625 0l-6.265625 21.140625l-2.578125 0l-6.34375 -21.140625l3.515625 0l4.15625 15.890625zm18.671875 5.640625q-3.953125 0 -6.0625 -2.34375q-2.109375 -2.359375 -2.140625 -6.921875l0 -2.546875q0 -4.734375 2.0625 -7.421875q2.0625 -2.6875 5.75 -2.6875q3.703125 0 5.53125 2.375q1.84375 2.359375 1.890625 7.359375l0 2.265625l-11.796875 0l0 0.484375q0 3.40625 1.28125 4.953125q1.28125 1.53125 3.671875 1.53125q1.53125 0 2.6875 -0.578125q1.171875 -0.578125 2.1875 -1.828125l1.796875 2.1875q-2.25 3.171875 -6.859375 3.171875zm-0.390625 -18.953125q-2.15625 0 -3.1875 1.484375q-1.03125 1.46875 -1.171875 4.578125l8.328125 0l0 -0.46875q-0.140625 -3.015625 -1.09375 -4.296875q-0.9375 -1.296875 -2.875 -1.296875zm20.292969 0.671875q-0.71875 -0.140625 -1.5625 -0.140625q-2.65625 0 -3.71875 2.90625l0 15.125l-3.453125 0l0 -21.140625l3.359375 0l0.0625 2.15625q1.390625 -2.546875 3.921875 -2.546875q0.828125 0 1.375 0.28125l0.015625 3.359375zm10.996094 18.28125q-3.953125 0 -6.0625 -2.34375q-2.109375 -2.359375 -2.140625 -6.921875l0 -2.546875q0 -4.734375 2.0625 -7.421875q2.0625 -2.6875 5.75 -2.6875q3.703125 0 5.53125 2.375q1.84375 2.359375 1.890625 7.359375l0 2.265625l-11.796875 0l0 0.484375q0 3.40625 1.28125 4.953125q1.28125 1.53125 3.671875 1.53125q1.53125 0 2.6875 -0.578125q1.171875 -0.578125 2.1875 -1.828125l1.796875 2.1875q-2.25 3.171875 -6.859375 3.171875zm-0.390625 -18.953125q-2.15625 0 -3.1875 1.484375q-1.03125 1.46875 -1.171875 4.578125l8.328125 0l0 -0.46875q-0.140625 -3.015625 -1.09375 -4.296875q-0.9375 -1.296875 -2.875 -1.296875zm10.839844 7.03125q0 -4.875 1.828125 -7.4375q1.828125 -2.5625 5.234375 -2.5625q3.03125 0 4.734375 2.46875l0 -10.9375l3.453125 0l0 30.0l-3.15625 0l-0.1875 -2.265625q-1.6875 2.65625 -4.859375 2.65625q-3.28125 0 -5.15625 -2.546875q-1.859375 -2.546875 -1.890625 -7.203125l0 -2.171875zm3.453125 1.984375q0 3.546875 1.046875 5.21875q1.0625 1.671875 3.453125 1.671875q2.578125 0 3.84375 -2.59375l0 -10.671875q-1.328125 -2.53125 -3.828125 -2.53125q-2.390625 0 -3.453125 1.671875q-1.046875 1.65625 -1.0625 5.125l0 2.109375zm41.58203 0q0 4.9375 -1.78125 7.4375q-1.765625 2.5 -5.15625 2.5q-3.359375 0 -5.03125 -2.890625l-0.171875 2.5l-3.15625 0l0 -30.0l3.4375 0l0 11.1875q1.703125 -2.71875 4.890625 -2.71875q3.46875 0 5.203125 2.46875q1.75 2.453125 1.765625 7.421875l0 2.09375zm-3.4375 -1.984375q0 -3.75 -1.046875 -5.328125q-1.046875 -1.59375 -3.390625 -1.59375q-2.671875 0 -3.984375 2.890625l0 10.046875q1.296875 2.859375 4.03125 2.859375q2.34375 0 3.359375 -1.640625q1.015625 -1.640625 1.03125 -5.09375l0 -2.140625zm13.6328125 5.78125l3.84375 -15.390625l3.671875 0l-6.90625 24.125q-0.78125 2.71875 -2.21875 4.125q-1.421875 1.421875 -3.234375 1.421875q-0.703125 0 -1.796875 -0.3125l0 -2.921875l0.765625 0.078125q1.5 0 2.34375 -0.71875q0.859375 -0.703125 1.390625 -2.46875l0.671875 -2.359375l-6.203125 -20.96875l3.765625 0l3.90625 15.390625z" fill-rule="nonzero"></path><path fill="#666666" d="m527.65234 305.0404l-11.53125 0l0 15.078125l-4.28125 0l0 -34.125l17.765625 0l0 3.703125l-13.484375 0l0 11.671875l11.53125 0l0 3.671875zm19.71875 15.078125q-0.375 -0.828125 -0.546875 -2.765625q-2.203125 3.234375 -5.625 3.234375q-3.4375 0 -5.375 -1.9375q-1.9375 -1.9375 -1.9375 -5.453125q0 -3.859375 2.625 -6.125q2.625 -2.28125 7.203125 -2.328125l3.046875 0l0 -2.703125q0 -2.265625 -1.015625 -3.21875q-1.0 -0.96875 -3.0625 -0.96875q-1.875 0 -3.046875 1.109375q-1.171875 1.109375 -1.171875 2.828125l-4.15625 0q0 -1.953125 1.140625 -3.71875q1.15625 -1.765625 3.09375 -2.765625q1.953125 -1.015625 4.34375 -1.015625q3.890625 0 5.921875 1.9375q2.03125 1.921875 2.078125 5.625l0 12.796875q0.015625 2.9375 0.796875 5.09375l0 0.375l-4.3125 0zm-5.53125 -3.3125q1.515625 0 2.890625 -0.84375q1.390625 -0.84375 2.03125 -2.109375l0 -6.046875l-2.34375 0q-2.953125 0.046875 -4.671875 1.328125q-1.703125 1.28125 -1.703125 3.578125q0 2.15625 0.859375 3.125q0.875 0.96875 2.9375 0.96875zm27.789062 -3.1875q0 -1.328125 -1.015625 -2.28125q-1.0 -0.96875 -3.875 -2.265625q-3.359375 -1.375 -4.734375 -2.359375q-1.359375 -0.984375 -2.046875 -2.234375q-0.671875 -1.265625 -0.671875 -3.0q0 -3.09375 2.25 -5.140625q2.265625 -2.046875 5.78125 -2.046875q3.703125 0 5.953125 2.15625q2.25 2.15625 2.25 5.53125l-4.125 0q0 -1.71875 -1.15625 -2.921875q-1.140625 -1.203125 -2.921875 -1.203125q-1.828125 0 -2.875 0.953125q-1.03125 0.9375 -1.03125 2.53125q0 1.265625 0.75 2.046875q0.765625 0.765625 3.671875 2.03125q4.625 1.8125 6.28125 3.53125q1.671875 1.71875 1.671875 4.375q0 3.296875 -2.28125 5.28125q-2.265625 1.984375 -6.09375 1.984375q-3.953125 0 -6.421875 -2.265625q-2.453125 -2.28125 -2.453125 -5.78125l4.171875 0q0.0625 2.109375 1.28125 3.3125q1.21875 1.1875 3.421875 1.1875q2.0625 0 3.140625 -0.921875q1.078125 -0.921875 1.078125 -2.5zm14.9765625 -25.0l0 6.140625l3.828125 0l0 3.34375l-3.828125 0l0 15.734375q0 1.5 0.484375 2.28125q0.5 0.765625 1.703125 0.765625q0.8125 0 1.65625 -0.28125l-0.046875 3.515625q-1.40625 0.46875 -2.875 0.46875q-2.46875 0 -3.765625 -1.75q-1.28125 -1.765625 -1.28125 -4.984375l0 -15.75l-3.859375 0l0 -3.34375l3.859375 0l0 -6.140625l4.125 0z" fill-rule="nonzero"></path><path fill="#666666" d="m611.0703 308.61853l-5.0 0l0 11.5l-3.59375 0l0 -28.4375l7.96875 0q4.1875 0 6.328125 2.1875q2.15625 2.171875 2.15625 6.359375q0 2.640625 -1.171875 4.609375q-1.15625 1.953125 -3.28125 2.953125l5.5 12.09375l0 0.234375l-3.84375 0l-5.0625 -11.5zm-5.0 -3.078125l4.34375 0q2.25 0 3.578125 -1.4375q1.34375 -1.453125 1.34375 -3.875q0 -5.46875 -4.96875 -5.46875l-4.296875 0l0 10.78125zm31.277344 1.4375l-10.0625 0l0 10.078125l11.71875 0l0 3.0625l-15.296875 0l0 -28.4375l15.109375 0l0 3.078125l-11.53125 0l0 9.140625l10.0625 0l0 3.078125zm18.644531 5.953125q0 -2.125 -1.15625 -3.25q-1.140625 -1.140625 -4.15625 -2.21875q-3.0 -1.078125 -4.59375 -2.25q-1.59375 -1.1875 -2.390625 -2.703125q-0.78125 -1.515625 -0.78125 -3.46875q0 -3.375 2.25 -5.5625q2.265625 -2.1875 5.90625 -2.1875q2.5 0 4.453125 1.125q1.953125 1.125 3.0 3.125q1.0625 1.984375 1.0625 4.359375l-3.59375 0q0 -2.640625 -1.265625 -4.078125q-1.265625 -1.453125 -3.65625 -1.453125q-2.15625 0 -3.359375 1.21875q-1.1875 1.203125 -1.1875 3.390625q0 1.796875 1.28125 3.015625q1.296875 1.203125 4.0 2.171875q4.1875 1.375 6.0 3.40625q1.8125 2.03125 1.8125 5.3125q0 3.46875 -2.25 5.546875q-2.25 2.078125 -6.109375 2.078125q-2.484375 0 -4.59375 -1.078125q-2.09375 -1.09375 -3.296875 -3.046875q-1.203125 -1.96875 -1.203125 -4.515625l3.59375 0q0 2.640625 1.46875 4.109375q1.484375 1.46875 4.03125 1.46875q2.359375 0 3.546875 -1.203125q1.1875 -1.21875 1.1875 -3.3125zm24.925781 -18.171875l-7.484375 0l0 25.359375l-3.5625 0l0 -25.359375l-7.46875 0l0 -3.078125l18.515625 0l0 3.078125zm18.792969 16.390625l0.375 3.1875l0.5625 -2.8125l4.546875 -19.84375l2.984375 0l4.421875 19.84375l0.5625 2.890625l0.40625 -3.28125l3.484375 -19.453125l3.578125 0l-5.671875 28.4375l-3.21875 0l-4.75 -20.71875l-0.296875 -1.6875l-0.28125 1.6875l-4.921875 20.71875l-3.25 0l-5.640625 -28.4375l3.578125 0l3.53125 19.46875zm32.109375 9.359375q-3.953125 0 -6.0625 -2.34375q-2.109375 -2.359375 -2.140625 -6.921875l0 -2.546875q0 -4.734375 2.0625 -7.421875q2.0625 -2.6875 5.75 -2.6875q3.703125 0 5.53125 2.375q1.84375 2.359375 1.890625 7.359375l0 2.265625l-11.796875 0l0 0.484375q0 3.40625 1.28125 4.953125q1.28125 1.53125 3.671875 1.53125q1.53125 0 2.6875 -0.578125q1.171875 -0.578125 2.1875 -1.828125l1.796875 2.1875q-2.25 3.171875 -6.859375 3.171875zm-0.390625 -18.953125q-2.15625 0 -3.1875 1.484375q-1.03125 1.46875 -1.171875 4.578125l8.328125 0l0 -0.46875q-0.140625 -3.015625 -1.09375 -4.296875q-0.9375 -1.296875 -2.875 -1.296875zm26.871094 9.015625q0 4.9375 -1.78125 7.4375q-1.765625 2.5 -5.15625 2.5q-3.359375 0 -5.03125 -2.890625l-0.171875 2.5l-3.15625 0l0 -30.0l3.4375 0l0 11.1875q1.703125 -2.71875 4.890625 -2.71875q3.46875 0 5.203125 2.46875q1.75 2.453125 1.765625 7.421875l0 2.09375zm-3.4375 -1.984375q0 -3.75 -1.046875 -5.328125q-1.046875 -1.59375 -3.390625 -1.59375q-2.671875 0 -3.984375 2.890625l0 10.046875q1.296875 2.859375 4.03125 2.859375q2.34375 0 3.359375 -1.640625q1.015625 -1.640625 1.03125 -5.09375l0 -2.140625zm29.917969 4.34375q0 -2.125 -1.15625 -3.25q-1.140625 -1.140625 -4.15625 -2.21875q-3.0 -1.078125 -4.59375 -2.25q-1.59375 -1.1875 -2.390625 -2.703125q-0.78125 -1.515625 -0.78125 -3.46875q0 -3.375 2.25 -5.5625q2.265625 -2.1875 5.90625 -2.1875q2.5 0 4.453125 1.125q1.953125 1.125 3.0 3.125q1.0625 1.984375 1.0625 4.359375l-3.59375 0q0 -2.640625 -1.265625 -4.078125q-1.265625 -1.453125 -3.65625 -1.453125q-2.15625 0 -3.359375 1.21875q-1.1875 1.203125 -1.1875 3.390625q0 1.796875 1.28125 3.015625q1.296875 1.203125 4.0 2.171875q4.1875 1.375 6.0 3.40625q1.8125 2.03125 1.8125 5.3125q0 3.46875 -2.25 5.546875q-2.25 2.078125 -6.109375 2.078125q-2.484375 0 -4.59375 -1.078125q-2.09375 -1.09375 -3.296875 -3.046875q-1.203125 -1.96875 -1.203125 -4.515625l3.59375 0q0 2.640625 1.46875 4.109375q1.484375 1.46875 4.03125 1.46875q2.359375 0 3.546875 -1.203125q1.1875 -1.21875 1.1875 -3.3125zm15.378906 7.578125q-3.953125 0 -6.0625 -2.34375q-2.109375 -2.359375 -2.140625 -6.921875l0 -2.546875q0 -4.734375 2.0625 -7.421875q2.0625 -2.6875 5.75 -2.6875q3.703125 0 5.53125 2.375q1.84375 2.359375 1.890625 7.359375l0 2.265625l-11.796875 0l0 0.484375q0 3.40625 1.28125 4.953125q1.28125 1.53125 3.671875 1.53125q1.53125 0 2.6875 -0.578125q1.171875 -0.578125 2.1875 -1.828125l1.796875 2.1875q-2.25 3.171875 -6.859375 3.171875zm-0.390625 -18.953125q-2.15625 0 -3.1875 1.484375q-1.03125 1.46875 -1.171875 4.578125l8.328125 0l0 -0.46875q-0.140625 -3.015625 -1.09375 -4.296875q-0.9375 -1.296875 -2.875 -1.296875zm20.292969 0.671875q-0.71875 -0.140625 -1.5625 -0.140625q-2.65625 0 -3.71875 2.90625l0 15.125l-3.453125 0l0 -21.140625l3.359375 0l0.0625 2.15625q1.390625 -2.546875 3.921875 -2.546875q0.828125 0 1.375 0.28125l0.015625 3.359375zm9.433594 12.640625l4.0 -15.890625l3.515625 0l-6.265625 21.140625l-2.578125 0l-6.34375 -21.140625l3.515625 0l4.15625 15.890625zm14.84375 5.25l-3.453125 0l0 -21.140625l3.453125 0l0 21.140625zm0.265625 -26.734375q0 0.875 -0.484375 1.46875q-0.484375 0.578125 -1.484375 0.578125q-0.96875 0 -1.46875 -0.578125q-0.484375 -0.59375 -0.484375 -1.46875q0 -0.890625 0.484375 -1.484375q0.5 -0.609375 1.46875 -0.609375q0.984375 0 1.46875 0.625q0.5 0.609375 0.5 1.46875zm12.503906 24.171875q1.71875 0 2.75 -1.0625q1.046875 -1.0625 1.140625 -3.03125l3.265625 0q-0.125 3.046875 -2.171875 5.046875q-2.03125 2.0 -4.984375 2.0q-3.921875 0 -5.984375 -2.46875q-2.0625 -2.46875 -2.0625 -7.359375l0 -2.328125q0 -4.78125 2.046875 -7.265625q2.0625 -2.5 5.984375 -2.5q3.234375 0 5.140625 2.0625q1.90625 2.046875 2.03125 5.59375l-3.265625 0q-0.125 -2.34375 -1.125 -3.515625q-1.0 -1.171875 -2.78125 -1.171875q-2.3125 0 -3.421875 1.515625q-1.109375 1.515625 -1.15625 4.96875l0 2.703125q0 3.734375 1.109375 5.28125q1.109375 1.53125 3.484375 1.53125zm18.695312 2.953125q-3.953125 0 -6.0625 -2.34375q-2.109375 -2.359375 -2.140625 -6.921875l0 -2.546875q0 -4.734375 2.0625 -7.421875q2.0625 -2.6875 5.75 -2.6875q3.703125 0 5.53125 2.375q1.84375 2.359375 1.890625 7.359375l0 2.265625l-11.796875 0l0 0.484375q0 3.40625 1.28125 4.953125q1.28125 1.53125 3.671875 1.53125q1.53125 0 2.6875 -0.578125q1.171875 -0.578125 2.1875 -1.828125l1.796875 2.1875q-2.25 3.171875 -6.859375 3.171875zm-0.390625 -18.953125q-2.15625 0 -3.1875 1.484375q-1.03125 1.46875 -1.171875 4.578125l8.328125 0l0 -0.46875q-0.140625 -3.015625 -1.09375 -4.296875q-0.9375 -1.296875 -2.875 -1.296875zm21.839844 13.15625q0 -1.125 -0.84375 -1.921875q-0.84375 -0.796875 -3.25 -1.875q-2.78125 -1.15625 -3.9375 -1.96875q-1.140625 -0.828125 -1.703125 -1.859375q-0.5625 -1.046875 -0.5625 -2.5q0 -2.578125 1.875 -4.28125q1.890625 -1.71875 4.828125 -1.71875q3.078125 0 4.953125 1.796875q1.875 1.796875 1.875 4.609375l-3.4375 0q0 -1.421875 -0.953125 -2.421875q-0.953125 -1.015625 -2.4375 -1.015625q-1.53125 0 -2.40625 0.796875q-0.859375 0.796875 -0.859375 2.125q0 1.046875 0.625 1.703125q0.640625 0.640625 3.0625 1.6875q3.84375 1.5 5.234375 2.9375q1.390625 1.4375 1.390625 3.640625q0 2.765625 -1.90625 4.421875q-1.890625 1.640625 -5.0625 1.640625q-3.3125 0 -5.359375 -1.890625q-2.046875 -1.90625 -2.046875 -4.8125l3.46875 0q0.0625 1.765625 1.078125 2.765625q1.015625 0.984375 2.859375 0.984375q1.71875 0 2.609375 -0.765625q0.90625 -0.78125 0.90625 -2.078125z" fill-rule="nonzero"></path></g></svg>

