<?xml version="1.0" standalone="yes"?>

<svg version="1.1" viewBox="0.0 0.0 1209.0 480.0" fill="none" stroke="none" stroke-linecap="square" stroke-miterlimit="10" xmlns="http://www.w3.org/2000/svg" xmlns:xlink="http://www.w3.org/1999/xlink"><clipPath id="ga08125072_0_5.0"><path d="m0 0l1209.0 0l0 480.0l-1209.0 0l0 -480.0z" clip-rule="nonzero"></path></clipPath><g clip-path="url(#ga08125072_0_5.0)"><path fill="#000000" fill-opacity="0.0" d="m0 0l1209.6011 0l0 480.0l-1209.6011 0z" fill-rule="nonzero"></path><path fill="#000000" fill-opacity="0.0" d="m90.720085 70.13133l1028.1575 0l0 185.85826l-1028.1575 0z" fill-rule="nonzero"></path><path fill="#000000" d="m248.45506 215.4296l0 16.0l-9.1875 0l0 -45.5l15.5 0q6.7500153 0 10.76564 4.1875q4.015625 4.1875 4.015625 10.875q0 6.6875 -3.96875 10.5625q-3.96875 3.875 -11.000015 3.875l-6.125 0zm0 -7.65625l6.3125 0q2.6250153 0 4.0625153 -1.71875q1.4375 -1.71875 1.4375 -5.0q0 -3.40625 -1.46875 -5.421875q-1.46875 -2.015625 -3.9375153 -2.046875l-6.40625 0l0 14.1875zm43.468765 -1.625l-2.9375 -0.25q-3.625 0 -4.90625 3.1875l0 22.34375l-8.875 0l0 -33.8125l8.34375 0l0.25 3.65625q2.09375 -4.28125 5.78125 -4.28125q1.5 0 2.4375 0.40625l-0.09375 8.75zm18.1875 25.90625q-6.8125 0 -10.625 -4.0625q-3.8125 -4.0625 -3.8125 -11.625l0 -2.6875q0 -8.0 3.5 -12.34375q3.5 -4.34375 10.03125 -4.34375q6.375 0 9.59375 4.078125q3.21875 4.078125 3.28125 12.078125l0 4.34375l-17.59375 0q0.1875 3.75 1.65625 5.484375q1.46875 1.734375 4.53125 1.734375q4.4375 0 7.40625 -3.03125l3.46875 5.34375q-1.625 2.25 -4.71875 3.640625q-3.09375 1.390625 -6.71875 1.390625zm-5.5625 -20.75l8.84375 0l0 -0.8125q-0.0625 -3.03125 -1.0 -4.59375q-0.9375 -1.5625 -3.25 -1.5625q-2.3125 0 -3.359375 1.65625q-1.046875 1.65625 -1.234375 5.3125zm38.4375 4.3125l-15.28125 0l0 -7.375l15.28125 0l0 7.375zm22.3125 6.75q0 -1.125 -1.078125 -2.078125q-1.078125 -0.953125 -4.796875 -2.578125q-5.46875 -2.21875 -7.515625 -4.59375q-2.046875 -2.375 -2.046875 -5.90625q0 -4.4375 3.203125 -7.328125q3.203125 -2.890625 8.484375 -2.890625q5.5625 0 8.90625 2.875q3.34375 2.875 3.34375 7.71875l-8.84375 0q0 -4.125 -3.4375 -4.125q-1.40625 0 -2.3125 0.875q-0.90625 0.875 -0.90625 2.4375q0 1.125 1.0 1.984375q1.0 0.859375 4.71875 2.453125q5.40625 2.0 7.640625 4.453125q2.234375 2.453125 2.234375 6.359375q0 4.53125 -3.40625 7.28125q-3.40625 2.75 -8.9375 2.75q-3.71875 0 -6.5625 -1.453125q-2.84375 -1.453125 -4.453125 -4.046875q-1.609375 -2.59375 -1.609375 -5.59375l8.40625 0q0.0625 2.3125 1.078125 3.46875q1.015625 1.15625 3.328125 1.15625q3.5625 0 3.5625 -3.21875zm24.375 -33.0625l0 8.3125l4.53125 0l0 6.65625l-4.53125 0l0 16.78125q0 2.0 0.546875 2.75q0.546875 0.75 2.109375 0.75q1.28125 0 2.09375 -0.21875l-0.0625 6.875q-2.25 0.84375 -4.875 0.84375q-8.5625 0 -8.65625 -9.8125l0 -17.96875l-3.90625 0l0 -6.65625l3.90625 0l0 -8.3125l8.84375 0zm26.0625 16.84375l-2.9375 -0.25q-3.625 0 -4.90625 3.1875l0 22.34375l-8.875 0l0 -33.8125l8.34375 0l0.25 3.65625q2.09375 -4.28125 5.78125 -4.28125q1.5 0 2.4375 0.40625l-0.09375 8.75zm21.15625 22.1875q-2.75 3.71875 -7.375 3.71875q-4.65625 0 -7.0625 -3.203125q-2.40625 -3.203125 -2.40625 -9.328125l0 -21.90625l8.84375 0l0 22.125q0.0625 4.9375 3.28125 4.9375q3.03125 0 4.375 -2.625l0 -24.4375l8.90625 0l0 33.8125l-8.3125 0l-0.25 -3.09375zm27.09375 -3.625q3.84375 0 3.90625 -5.0l8.3125 0q-0.0625 5.53125 -3.40625 8.9375q-3.34375 3.40625 -8.625 3.40625q-6.53125 0 -9.96875 -4.0625q-3.4375 -4.0625 -3.5 -11.96875l0 -2.6875q0 -7.96875 3.390625 -12.15625q3.390625 -4.1875 10.015625 -4.1875q5.59375 0 8.8125 3.453125q3.21875 3.453125 3.28125 9.796875l-8.3125 0q-0.03125 -2.84375 -0.9375 -4.375q-0.90625 -1.53125 -3.0 -1.53125q-2.3125 0 -3.3125 1.640625q-1.0 1.640625 -1.0625 6.359375l0 3.4375q0 4.125 0.40625 5.765625q0.40625 1.640625 1.34375 2.40625q0.9375 0.765625 2.65625 0.765625zm27.5 -35.40625l0 8.3125l4.53125 0l0 6.65625l-4.53125 0l0 16.78125q0 2.0 0.546875 2.75q0.546875 0.75 2.109375 0.75q1.28125 0 2.09375 -0.21875l-0.0625 6.875q-2.25 0.84375 -4.875 0.84375q-8.5625 0 -8.65625 -9.8125l0 -17.96875l-3.90625 0l0 -6.65625l3.90625 0l0 -8.3125l8.84375 0zm26.0 39.03125q-2.75 3.71875 -7.375 3.71875q-4.65625 0 -7.0625 -3.203125q-2.40625 -3.203125 -2.40625 -9.328125l0 -21.90625l8.84375 0l0 22.125q0.0625 4.9375 3.28125 4.9375q3.03125 0 4.375 -2.625l0 -24.4375l8.90625 0l0 33.8125l-8.3125 0l-0.25 -3.09375zm31.5625 -22.1875l-2.9375 -0.25q-3.625 0 -4.90625 3.1875l0 22.34375l-8.875 0l0 -33.8125l8.34375 0l0.25 3.65625q2.09375 -4.28125 5.78125 -4.28125q1.5 0 2.4375 0.40625l-0.09375 8.75zm18.1875 25.90625q-6.8125 0 -10.625 -4.0625q-3.8125 -4.0625 -3.8125 -11.625l0 -2.6875q0 -8.0 3.5 -12.34375q3.5 -4.34375 10.03125 -4.34375q6.375 0 9.59375 4.078125q3.21875 4.078125 3.28125 12.078125l0 4.34375l-17.59375 0q0.1875 3.75 1.65625 5.484375q1.46875 1.734375 4.53125 1.734375q4.4375 0 7.40625 -3.03125l3.46875 5.34375q-1.625 2.25 -4.71875 3.640625q-3.09375 1.390625 -6.71875 1.390625zm-5.5625 -20.75l8.84375 0l0 -0.8125q-0.0625 -3.03125 -1.0 -4.59375q-0.9375 -1.5625 -3.25 -1.5625q-2.3125 0 -3.359375 1.65625q-1.046875 1.65625 -1.234375 5.3125zm21.34375 2.1875q0 -8.3125 2.8125 -12.40625q2.8125 -4.09375 8.1875 -4.09375q3.90625 0 6.5 3.375l0 -16.9375l8.90625 0l0 48.0l-8.03125 0l-0.40625 -3.4375q-2.71875 4.0625 -7.0 4.0625q-5.3125 0 -8.109375 -4.0625q-2.796875 -4.0625 -2.859375 -11.9375l0 -2.5625zm8.875 2.21875q0 5.0 1.0625 6.984375q1.0625 1.984375 3.59375 1.984375q2.625 0 3.96875 -2.34375l0 -15.4375q-1.3125 -2.5 -3.9375 -2.5q-2.4375 0 -3.5625 1.96875q-1.125 1.96875 -1.125 7.0l0 2.34375zm54.1875 -29.78125l9.1875 0l0 31.5q0 6.625 -3.6875 10.625q-3.6875 4.0 -9.5 4.0q-6.25 0 -9.71875 -3.71875q-3.46875 -3.71875 -3.46875 -10.34375l9.21875 0q0 6.4375 3.96875 6.4375q4.0 0 4.0 -7.4375l0 -31.0625zm35.625 33.5625q0 -2.78125 -1.421875 -4.203125q-1.421875 -1.421875 -5.171875 -2.953125q-6.84375 -2.59375 -9.84375 -6.078125q-3.0 -3.484375 -3.0 -8.234375q0 -5.75 4.078125 -9.234375q4.078125 -3.484375 10.359375 -3.484375q4.1875 0 7.46875 1.765625q3.28125 1.765625 5.046875 4.984375q1.765625 3.21875 1.765625 7.3125l-9.15625 0q0 -3.1875 -1.359375 -4.859375q-1.359375 -1.671875 -3.921875 -1.671875q-2.40625 0 -3.75 1.421875q-1.34375 1.421875 -1.34375 3.828125q0 1.875 1.5 3.390625q1.5 1.515625 5.3125 3.140625q6.65625 2.40625 9.671875 5.90625q3.015625 3.5 3.015625 8.90625q0 5.9375 -3.78125 9.28125q-3.78125 3.34375 -10.28125 3.34375q-4.40625 0 -8.03125 -1.8125q-3.625 -1.8125 -5.671875 -5.1875q-2.046875 -3.375 -2.046875 -7.96875l9.21875 0q0 3.9375 1.53125 5.71875q1.53125 1.78125 5.0 1.78125q4.8125 0 4.8125 -5.09375zm47.375 -6.71875q0 9.15625 -4.328125 14.21875q-4.328125 5.0625 -12.015625 5.0625q-7.65625 0 -12.03125 -5.015625q-4.375 -5.015625 -4.4375 -14.046875l0 -7.78125q0 -9.375 4.34375 -14.640625q4.34375 -5.265625 12.0625 -5.265625q7.59375 0 11.96875 5.171875q4.375 5.171875 4.4375 14.515625l0 7.78125zm-9.21875 -7.625q0 -6.15625 -1.75 -9.15625q-1.75 -3.0 -5.4375 -3.0q-3.65625 0 -5.40625 2.890625q-1.75 2.890625 -1.8125 8.796875l0 8.09375q0 5.96875 1.78125 8.796875q1.78125 2.828125 5.5 2.828125q3.59375 0 5.34375 -2.765625q1.75 -2.765625 1.78125 -8.578125l0 -7.90625zm47.625 26.28125l-9.1875 0l-13.4375 -29.84375l0 29.84375l-9.1875 0l0 -45.5l9.1875 0l13.46875 29.875l0 -29.875l9.15625 0l0 45.5zm20.65625 -18.0q0 -7.6875 3.625 -12.0625q3.625 -4.375 10.03125 -4.375q6.46875 0 10.09375 4.375q3.625 4.375 3.625 12.125l0 2.15625q0 7.71875 -3.59375 12.0625q-3.59375 4.34375 -10.0625 4.34375q-6.5 0 -10.109375 -4.359375q-3.609375 -4.359375 -3.609375 -12.109375l0 -2.15625zm8.875 2.21875q0 9.0625 4.84375 9.0625q4.46875 0 4.8125 -7.5625l0.03125 -3.71875q0 -4.625 -1.28125 -6.859375q-1.28125 -2.234375 -3.625 -2.234375q-2.25 0 -3.515625 2.234375q-1.265625 2.234375 -1.265625 6.859375l0 2.21875zm50.375 -0.03125q0 8.21875 -2.625 12.328125q-2.625 4.109375 -8.25 4.109375q-4.40625 0 -7.0625 -3.96875l-0.28125 3.34375l-8.15625 0l0 -48.0l8.84375 0l0 16.9375q2.5 -3.375 6.59375 -3.375q5.625 0 8.25 4.078125q2.625 4.078125 2.6875 11.953125l0 2.59375zm-8.84375 -2.21875q0 -5.34375 -1.03125 -7.171875q-1.03125 -1.828125 -3.59375 -1.828125q-2.78125 0 -4.0625 2.53125l0 15.40625q1.1875 2.375 4.125 2.375q2.53125 0 3.515625 -1.65625q0.984375 -1.65625 1.046875 -6.4375l0 -3.21875zm23.46875 -15.78125l0 35.625q0 5.78125 -2.65625 8.8125q-2.65625 3.03125 -7.53125 3.03125q-2.0625 0 -4.0 -0.53125l-0.03125 -7.21875q1.46875 0.28125 2.34375 0.28125q2.9375 0 3.0 -4.125l0 -35.875l8.875 0zm-9.46875 -8.75q0 -2.0625 1.3125 -3.375q1.3125 -1.3125 3.5 -1.3125q2.1875 0 3.5 1.3125q1.3125 1.3125 1.3125 3.375q0 2.03125 -1.296875 3.375q-1.296875 1.34375 -3.515625 1.34375q-2.21875 0 -3.515625 -1.34375q-1.296875 -1.34375 -1.296875 -3.375zm29.53125 43.1875q-6.8125 0 -10.625 -4.0625q-3.8125 -4.0625 -3.8125 -11.625l0 -2.6875q0 -8.0 3.5 -12.34375q3.5 -4.34375 10.03125 -4.34375q6.375 0 9.59375 4.078125q3.21875 4.078125 3.28125 12.078125l0 4.34375l-17.59375 0q0.1875 3.75 1.65625 5.484375q1.46875 1.734375 4.53125 1.734375q4.4375 0 7.40625 -3.03125l3.46875 5.34375q-1.625 2.25 -4.71875 3.640625q-3.09375 1.390625 -6.71875 1.390625zm-5.5625 -20.75l8.84375 0l0 -0.8125q-0.0625 -3.03125 -1.0 -4.59375q-0.9375 -1.5625 -3.25 -1.5625q-2.3125 0 -3.359375 1.65625q-1.046875 1.65625 -1.234375 5.3125zm34.75 13.40625q3.84375 0 3.90625 -5.0l8.3125 0q-0.0625 5.53125 -3.40625 8.9375q-3.34375 3.40625 -8.625 3.40625q-6.53125 0 -9.96875 -4.0625q-3.4375 -4.0625 -3.5 -11.96875l0 -2.6875q0 -7.96875 3.390625 -12.15625q3.390625 -4.1875 10.015625 -4.1875q5.59375 0 8.8125 3.453125q3.21875 3.453125 3.28125 9.796875l-8.3125 0q-0.03125 -2.84375 -0.9375 -4.375q-0.90625 -1.53125 -3.0 -1.53125q-2.3125 0 -3.3125 1.640625q-1.0 1.640625 -1.0625 6.359375l0 3.4375q0 4.125 0.40625 5.765625q0.40625 1.640625 1.34375 2.40625q0.9375 0.765625 2.65625 0.765625zm27.5 -35.40625l0 8.3125l4.53125 0l0 6.65625l-4.53125 0l0 16.78125q0 2.0 0.546875 2.75q0.546875 0.75 2.109375 0.75q1.28125 0 2.09375 -0.21875l-0.0625 6.875q-2.25 0.84375 -4.875 0.84375q-8.5625 0 -8.65625 -9.8125l0 -17.96875l-3.90625 0l0 -6.65625l3.90625 0l0 -8.3125l8.84375 0zm24.34375 33.0625q0 -1.125 -1.078125 -2.078125q-1.078125 -0.953125 -4.796875 -2.578125q-5.46875 -2.21875 -7.515625 -4.59375q-2.046875 -2.375 -2.046875 -5.90625q0 -4.4375 3.203125 -7.328125q3.203125 -2.890625 8.484375 -2.890625q5.5625 0 8.90625 2.875q3.34375 2.875 3.34375 7.71875l-8.84375 0q0 -4.125 -3.4375 -4.125q-1.40625 0 -2.3125 0.875q-0.90625 0.875 -0.90625 2.4375q0 1.125 1.0 1.984375q1.0 0.859375 4.71875 2.453125q5.40625 2.0 7.640625 4.453125q2.234375 2.453125 2.234375 6.359375q0 4.53125 -3.40625 7.28125q-3.40625 2.75 -8.9375 2.75q-3.71875 0 -6.5625 -1.453125q-2.84375 -1.453125 -4.453125 -4.046875q-1.609375 -2.59375 -1.609375 -5.59375l8.40625 0q0.0625 2.3125 1.078125 3.46875q1.015625 1.15625 3.328125 1.15625q3.5625 0 3.5625 -3.21875z" fill-rule="nonzero"></path><path fill="#000000" fill-opacity="0.0" d="m90.720085 265.03854l1028.1575 0l0 73.22833l-1028.1575 0z" fill-rule="nonzero"></path><path fill="#666666" d="m322.7578 305.01666l-9.609375 0l-2.203125 7.421875l-3.671875 0l9.15625 -28.4375l3.0625 0l9.1875 28.4375l-3.671875 0l-2.25 -7.421875zm-8.671875 -3.09375l7.75 0l-3.875 -12.921875l-3.875 12.921875zm17.28125 -1.015625q0 -4.9375 1.796875 -7.46875q1.796875 -2.53125 5.265625 -2.53125q3.21875 0 4.890625 2.765625l0.1875 -2.375l3.125 0l0 21.34375q0 3.921875 -2.015625 6.015625q-2.015625 2.109375 -5.609375 2.109375q-1.5625 0 -3.515625 -0.78125q-1.9375 -0.765625 -2.90625 -1.90625l1.40625 -2.375q2.140625 2.109375 4.75 2.109375q4.3125 0 4.421875 -4.703125l0 -2.765625q-1.671875 2.484375 -4.765625 2.484375q-3.28125 0 -5.125 -2.46875q-1.828125 -2.46875 -1.90625 -7.109375l0 -2.34375zm3.46875 1.984375q0 3.546875 1.03125 5.21875q1.046875 1.671875 3.4375 1.671875q2.578125 0 3.859375 -2.640625l0 -10.5625q-1.34375 -2.59375 -3.828125 -2.59375q-2.375 0 -3.4375 1.671875q-1.046875 1.65625 -1.0625 5.125l0 2.109375zm16.238281 -1.984375q0 -4.9375 1.796875 -7.46875q1.796875 -2.53125 5.265625 -2.53125q3.21875 0 4.890625 2.765625l0.1875 -2.375l3.125 0l0 21.34375q0 3.921875 -2.015625 6.015625q-2.015625 2.109375 -5.609375 2.109375q-1.5625 0 -3.515625 -0.78125q-1.9375 -0.765625 -2.90625 -1.90625l1.40625 -2.375q2.140625 2.109375 4.75 2.109375q4.3125 0 4.421875 -4.703125l0 -2.765625q-1.671875 2.484375 -4.765625 2.484375q-3.28125 0 -5.125 -2.46875q-1.828125 -2.46875 -1.90625 -7.109375l0 -2.34375zm3.46875 1.984375q0 3.546875 1.03125 5.21875q1.046875 1.671875 3.4375 1.671875q2.578125 0 3.859375 -2.640625l0 -10.5625q-1.34375 -2.59375 -3.828125 -2.59375q-2.375 0 -3.4375 1.671875q-1.046875 1.65625 -1.0625 5.125l0 2.109375zm25.660156 -8.34375q-0.71875 -0.140625 -1.5625 -0.140625q-2.65625 0 -3.71875 2.90625l0 15.125l-3.453125 0l0 -21.140625l3.359375 0l0.0625 2.15625q1.390625 -2.546875 3.921875 -2.546875q0.828125 0 1.375 0.28125l0.015625 3.359375zm10.996094 18.28125q-3.953125 0 -6.0625 -2.34375q-2.109375 -2.359375 -2.140625 -6.921875l0 -2.546875q0 -4.734375 2.0625 -7.421875q2.0625 -2.6875 5.75 -2.6875q3.703125 0 5.53125 2.375q1.84375 2.359375 1.890625 7.359375l0 2.265625l-11.796875 0l0 0.484375q0 3.40625 1.28125 4.953125q1.28125 1.53125 3.671875 1.53125q1.53125 0 2.6875 -0.578125q1.171875 -0.578125 2.1875 -1.828125l1.796875 2.1875q-2.25 3.171875 -6.859375 3.171875zm-0.390625 -18.953125q-2.15625 0 -3.1875 1.484375q-1.03125 1.46875 -1.171875 4.578125l8.328125 0l0 -0.46875q-0.140625 -3.015625 -1.09375 -4.296875q-0.9375 -1.296875 -2.875 -1.296875zm10.871094 7.03125q0 -4.9375 1.796875 -7.46875q1.796875 -2.53125 5.265625 -2.53125q3.21875 0 4.890625 2.765625l0.1875 -2.375l3.125 0l0 21.34375q0 3.921875 -2.015625 6.015625q-2.015625 2.109375 -5.609375 2.109375q-1.5625 0 -3.515625 -0.78125q-1.9375 -0.765625 -2.90625 -1.90625l1.40625 -2.375q2.140625 2.109375 4.75 2.109375q4.3125 0 4.421875 -4.703125l0 -2.765625q-1.671875 2.484375 -4.765625 2.484375q-3.28125 0 -5.125 -2.46875q-1.828125 -2.46875 -1.90625 -7.109375l0 -2.34375zm3.46875 1.984375q0 3.546875 1.03125 5.21875q1.046875 1.671875 3.4375 1.671875q2.578125 0 3.859375 -2.640625l0 -10.5625q-1.34375 -2.59375 -3.828125 -2.59375q-2.375 0 -3.4375 1.671875q-1.046875 1.65625 -1.0625 5.125l0 2.109375zm27.800781 9.546875q-0.3125 -0.6875 -0.4375 -2.3125q-1.84375 2.703125 -4.6875 2.703125q-2.875 0 -4.484375 -1.609375q-1.609375 -1.609375 -1.609375 -4.546875q0 -3.21875 2.1875 -5.109375q2.1875 -1.90625 5.984375 -1.9375l2.546875 0l0 -2.25q0 -1.890625 -0.84375 -2.6875q-0.84375 -0.8125 -2.5625 -0.8125q-1.5625 0 -2.546875 0.9375q-0.96875 0.921875 -0.96875 2.34375l-3.453125 0q0 -1.609375 0.953125 -3.078125q0.96875 -1.484375 2.578125 -2.328125q1.625 -0.84375 3.625 -0.84375q3.234375 0 4.921875 1.625q1.6875 1.609375 1.734375 4.6875l0 10.671875q0.015625 2.4375 0.65625 4.234375l0 0.3125l-3.59375 0zm-4.609375 -2.75q1.28125 0 2.421875 -0.703125q1.15625 -0.703125 1.6875 -1.765625l0 -5.03125l-1.953125 0q-2.46875 0.03125 -3.890625 1.09375q-1.421875 1.0625 -1.421875 2.984375q0 1.796875 0.71875 2.609375q0.71875 0.8125 2.4375 0.8125zm17.425781 -23.5l0 5.109375l3.1875 0l0 2.796875l-3.1875 0l0 13.109375q0 1.25 0.40625 1.890625q0.421875 0.640625 1.40625 0.640625q0.6875 0 1.390625 -0.234375l-0.03125 2.9375q-1.171875 0.390625 -2.40625 0.390625q-2.046875 0 -3.125 -1.46875q-1.078125 -1.46875 -1.078125 -4.140625l0 -13.125l-3.21875 0l0 -2.796875l3.21875 0l0 -5.109375l3.4375 0zm14.847656 26.640625q-3.953125 0 -6.0625 -2.34375q-2.109375 -2.359375 -2.140625 -6.921875l0 -2.546875q0 -4.734375 2.0625 -7.421875q2.0625 -2.6875 5.75 -2.6875q3.703125 0 5.53125 2.375q1.84375 2.359375 1.890625 7.359375l0 2.265625l-11.796875 0l0 0.484375q0 3.40625 1.28125 4.953125q1.28125 1.53125 3.671875 1.53125q1.53125 0 2.6875 -0.578125q1.171875 -0.578125 2.1875 -1.828125l1.796875 2.1875q-2.25 3.171875 -6.859375 3.171875zm-0.390625 -18.953125q-2.15625 0 -3.1875 1.484375q-1.03125 1.46875 -1.171875 4.578125l8.328125 0l0 -0.46875q-0.140625 -3.015625 -1.09375 -4.296875q-0.9375 -1.296875 -2.875 -1.296875zm10.839844 7.03125q0 -4.875 1.828125 -7.4375q1.828125 -2.5625 5.234375 -2.5625q3.03125 0 4.734375 2.46875l0 -10.9375l3.453125 0l0 30.0l-3.15625 0l-0.1875 -2.265625q-1.6875 2.65625 -4.859375 2.65625q-3.28125 0 -5.15625 -2.546875q-1.859375 -2.546875 -1.890625 -7.203125l0 -2.171875zm3.453125 1.984375q0 3.546875 1.046875 5.21875q1.0625 1.671875 3.453125 1.671875q2.578125 0 3.84375 -2.59375l0 -10.671875q-1.328125 -2.53125 -3.828125 -2.53125q-2.390625 0 -3.453125 1.671875q-1.046875 1.65625 -1.0625 5.125l0 2.109375zm27.800781 9.546875l0 -18.34375l-2.765625 0l0 -2.796875l2.765625 0l0 -2.4375q0.046875 -3.21875 1.625 -5.015625q1.578125 -1.8125 4.4375 -1.8125q1.046875 0 2.09375 0.328125l-0.171875 2.921875q-0.75 -0.171875 -1.578125 -0.171875q-2.953125 0 -2.953125 4.203125l0 1.984375l3.609375 0l0 2.796875l-3.609375 0l0 18.34375l-3.453125 0zm19.859375 -17.890625q-0.71875 -0.140625 -1.5625 -0.140625q-2.65625 0 -3.71875 2.90625l0 15.125l-3.453125 0l0 -21.140625l3.359375 0l0.0625 2.15625q1.390625 -2.546875 3.921875 -2.546875q0.828125 0 1.375 0.28125l0.015625 3.359375zm2.7148438 6.34375q0 -4.609375 2.234375 -7.296875q2.234375 -2.6875 5.90625 -2.6875q3.671875 0 5.90625 2.625q2.234375 2.609375 2.296875 7.125l0 2.234375q0 4.578125 -2.234375 7.265625q-2.21875 2.671875 -5.921875 2.671875q-3.671875 0 -5.890625 -2.59375q-2.21875 -2.609375 -2.296875 -7.03125l0 -2.3125zm3.453125 2.0q0 3.25 1.28125 5.125q1.28125 1.859375 3.453125 1.859375q4.5625 0 4.703125 -6.59375l0 -2.390625q0 -3.234375 -1.296875 -5.125q-1.28125 -1.890625 -3.453125 -1.890625q-2.125 0 -3.40625 1.890625q-1.28125 1.890625 -1.28125 5.109375l0 2.015625zm20.609375 -11.59375l0.078125 1.953125q1.9375 -2.34375 5.09375 -2.34375q3.53125 0 4.9375 3.078125q2.0 -3.078125 5.546875 -3.078125q5.84375 0 5.984375 7.296875l0 14.234375l-3.4375 0l0 -13.90625q0 -2.3125 -0.828125 -3.421875q-0.8125 -1.125 -2.765625 -1.125q-1.5625 0 -2.546875 1.21875q-0.96875 1.203125 -1.125 3.078125l0 14.15625l-3.484375 0l0 -14.0625q-0.046875 -4.390625 -3.5625 -4.390625q-2.625 0 -3.703125 2.609375l0 15.84375l-3.4375 0l0 -21.140625l3.25 0zm46.664062 8.421875l-10.59375 -5.03125l0 -3.71875l14.0625 7.390625l0 2.84375l-14.0625 7.40625l0 -3.75l10.59375 -5.140625zm17.726562 12.71875l-3.46875 0l0 -24.078125l-5.984375 2.671875l0 -3.28125l8.90625 -3.890625l0.546875 0l0 28.578125zm24.652344 -12.125q0 6.28125 -1.84375 9.40625q-1.828125 3.109375 -5.75 3.109375q-3.8125 0 -5.6875 -2.984375q-1.875 -3.0 -1.953125 -8.984375l0 -4.890625q0 -6.234375 1.84375 -9.296875q1.84375 -3.0625 5.75 -3.0625q3.84375 0 5.6875 2.90625q1.859375 2.90625 1.953125 8.8125l0 4.984375zm-3.453125 -4.953125q0 -4.5 -1.0 -6.640625q-1.0 -2.140625 -3.1875 -2.140625q-2.125 0 -3.125 2.109375q-1.0 2.09375 -1.03125 6.328125l0 5.859375q0 4.484375 1.03125 6.75q1.03125 2.25 3.171875 2.25q2.109375 0 3.09375 -2.125q1.0 -2.125 1.046875 -6.5l0 -5.890625zm32.734375 7.53125q0 5.015625 -1.8125 7.484375q-1.8125 2.453125 -5.109375 2.453125q-3.1875 0 -4.90625 -2.40625l0 10.140625l-3.4375 0l0 -29.265625l3.125 0l0.1875 2.34375q1.734375 -2.734375 4.96875 -2.734375q3.484375 0 5.203125 2.421875q1.71875 2.421875 1.78125 7.25l0 2.3125zm-3.4375 -1.984375q0 -3.546875 -1.09375 -5.234375q-1.09375 -1.6875 -3.515625 -1.6875q-2.484375 0 -3.78125 2.46875l0 11.0q1.28125 2.421875 3.8125 2.421875q2.34375 0 3.4375 -1.6875q1.109375 -1.6875 1.140625 -5.171875l0 -2.109375zm7.1640625 -0.015625q0 -4.609375 2.234375 -7.296875q2.234375 -2.6875 5.90625 -2.6875q3.671875 0 5.90625 2.625q2.234375 2.609375 2.296875 7.125l0 2.234375q0 4.578125 -2.234375 7.265625q-2.21875 2.671875 -5.921875 2.671875q-3.671875 0 -5.890625 -2.59375q-2.21875 -2.609375 -2.296875 -7.03125l0 -2.3125zm3.453125 2.0q0 3.25 1.28125 5.125q1.28125 1.859375 3.453125 1.859375q4.5625 0 4.703125 -6.59375l0 -2.390625q0 -3.234375 -1.296875 -5.125q-1.28125 -1.890625 -3.453125 -1.890625q-2.125 0 -3.40625 1.890625q-1.28125 1.890625 -1.28125 5.109375l0 2.015625zm32.625 0q0 5.015625 -1.8125 7.484375q-1.8125 2.453125 -5.109375 2.453125q-3.1875 0 -4.90625 -2.40625l0 10.140625l-3.4375 0l0 -29.265625l3.125 0l0.1875 2.34375q1.734375 -2.734375 4.96875 -2.734375q3.484375 0 5.203125 2.421875q1.71875 2.421875 1.78125 7.25l0 2.3125zm-3.4375 -1.984375q0 -3.546875 -1.09375 -5.234375q-1.09375 -1.6875 -3.515625 -1.6875q-2.484375 0 -3.78125 2.46875l0 11.0q1.28125 2.421875 3.8125 2.421875q2.34375 0 3.4375 -1.6875q1.109375 -1.6875 1.140625 -5.171875l0 -2.109375zm18.664062 9.671875q-1.71875 2.25 -5.015625 2.25q-2.875 0 -4.34375 -1.984375q-1.453125 -1.984375 -1.484375 -5.765625l0 -13.78125l3.4375 0l0 13.515625q0 4.953125 2.96875 4.953125q3.15625 0 4.34375 -2.8125l0 -15.65625l3.453125 0l0 21.140625l-3.28125 0l-0.078125 -1.859375zm12.2890625 1.859375l-3.453125 0l0 -30.0l3.453125 0l0 30.0zm16.300781 0q-0.3125 -0.6875 -0.4375 -2.3125q-1.84375 2.703125 -4.6875 2.703125q-2.875 0 -4.484375 -1.609375q-1.609375 -1.609375 -1.609375 -4.546875q0 -3.21875 2.1875 -5.109375q2.1875 -1.90625 5.984375 -1.9375l2.546875 0l0 -2.25q0 -1.890625 -0.84375 -2.6875q-0.84375 -0.8125 -2.5625 -0.8125q-1.5625 0 -2.546875 0.9375q-0.96875 0.921875 -0.96875 2.34375l-3.453125 0q0 -1.609375 0.953125 -3.078125q0.96875 -1.484375 2.578125 -2.328125q1.625 -0.84375 3.625 -0.84375q3.234375 0 4.921875 1.625q1.6875 1.609375 1.734375 4.6875l0 10.671875q0.015625 2.4375 0.65625 4.234375l0 0.3125l-3.59375 0zm-4.609375 -2.75q1.28125 0 2.421875 -0.703125q1.15625 -0.703125 1.6875 -1.765625l0 -5.03125l-1.953125 0q-2.46875 0.03125 -3.890625 1.09375q-1.421875 1.0625 -1.421875 2.984375q0 1.796875 0.71875 2.609375q0.71875 0.8125 2.4375 0.8125zm21.628906 -15.140625q-0.71875 -0.140625 -1.5625 -0.140625q-2.65625 0 -3.71875 2.90625l0 15.125l-3.453125 0l0 -21.140625l3.359375 0l0.0625 2.15625q1.390625 -2.546875 3.921875 -2.546875q0.828125 0 1.375 0.28125l0.015625 3.359375zm22.875 12.484375q0 -1.125 -0.84375 -1.921875q-0.84375 -0.796875 -3.25 -1.875q-2.78125 -1.15625 -3.9375 -1.96875q-1.140625 -0.828125 -1.703125 -1.859375q-0.5625 -1.046875 -0.5625 -2.5q0 -2.578125 1.875 -4.28125q1.890625 -1.71875 4.828125 -1.71875q3.078125 0 4.953125 1.796875q1.875 1.796875 1.875 4.609375l-3.4375 0q0 -1.421875 -0.953125 -2.421875q-0.953125 -1.015625 -2.4375 -1.015625q-1.53125 0 -2.40625 0.796875q-0.859375 0.796875 -0.859375 2.125q0 1.046875 0.625 1.703125q0.640625 0.640625 3.0625 1.6875q3.84375 1.5 5.234375 2.9375q1.390625 1.4375 1.390625 3.640625q0 2.765625 -1.90625 4.421875q-1.890625 1.640625 -5.0625 1.640625q-3.3125 0 -5.359375 -1.890625q-2.046875 -1.90625 -2.046875 -4.8125l3.46875 0q0.0625 1.765625 1.078125 2.765625q1.015625 0.984375 2.859375 0.984375q1.71875 0 2.609375 -0.765625q0.90625 -0.78125 0.90625 -2.078125zm7.2226562 -6.140625q0 -4.609375 2.234375 -7.296875q2.234375 -2.6875 5.90625 -2.6875q3.671875 0 5.90625 2.625q2.234375 2.609375 2.296875 7.125l0 2.234375q0 4.578125 -2.234375 7.265625q-2.21875 2.671875 -5.921875 2.671875q-3.671875 0 -5.890625 -2.59375q-2.21875 -2.609375 -2.296875 -7.03125l0 -2.3125zm3.453125 2.0q0 3.25 1.28125 5.125q1.28125 1.859375 3.453125 1.859375q4.5625 0 4.703125 -6.59375l0 -2.390625q0 -3.234375 -1.296875 -5.125q-1.28125 -1.890625 -3.453125 -1.890625q-2.125 0 -3.40625 1.890625q-1.28125 1.890625 -1.28125 5.109375l0 2.015625zm28.125 7.6875q-1.71875 2.25 -5.015625 2.25q-2.875 0 -4.34375 -1.984375q-1.453125 -1.984375 -1.484375 -5.765625l0 -13.78125l3.4375 0l0 13.515625q0 4.953125 2.96875 4.953125q3.15625 0 4.34375 -2.8125l0 -15.65625l3.453125 0l0 21.140625l-3.28125 0l-0.078125 -1.859375zm17.289062 -16.03125q-0.71875 -0.140625 -1.5625 -0.140625q-2.65625 0 -3.71875 2.90625l0 15.125l-3.453125 0l0 -21.140625l3.359375 0l0.0625 2.15625q1.390625 -2.546875 3.921875 -2.546875q0.828125 0 1.375 0.28125l0.015625 3.359375zm10.777344 15.328125q1.71875 0 2.75 -1.0625q1.046875 -1.0625 1.140625 -3.03125l3.265625 0q-0.125 3.046875 -2.171875 5.046875q-2.03125 2.0 -4.984375 2.0q-3.921875 0 -5.984375 -2.46875q-2.0625 -2.46875 -2.0625 -7.359375l0 -2.328125q0 -4.78125 2.046875 -7.265625q2.0625 -2.5 5.984375 -2.5q3.234375 0 5.140625 2.0625q1.90625 2.046875 2.03125 5.59375l-3.265625 0q-0.125 -2.34375 -1.125 -3.515625q-1.0 -1.171875 -2.78125 -1.171875q-2.3125 0 -3.421875 1.515625q-1.109375 1.515625 -1.15625 4.96875l0 2.703125q0 3.734375 1.109375 5.28125q1.109375 1.53125 3.484375 1.53125zm18.695312 2.953125q-3.953125 0 -6.0625 -2.34375q-2.109375 -2.359375 -2.140625 -6.921875l0 -2.546875q0 -4.734375 2.0625 -7.421875q2.0625 -2.6875 5.75 -2.6875q3.703125 0 5.53125 2.375q1.84375 2.359375 1.890625 7.359375l0 2.265625l-11.796875 0l0 0.484375q0 3.40625 1.28125 4.953125q1.28125 1.53125 3.671875 1.53125q1.53125 0 2.6875 -0.578125q1.171875 -0.578125 2.1875 -1.828125l1.796875 2.1875q-2.25 3.171875 -6.859375 3.171875zm-0.390625 -18.953125q-2.15625 0 -3.1875 1.484375q-1.03125 1.46875 -1.171875 4.578125l8.328125 0l0 -0.46875q-0.140625 -3.015625 -1.09375 -4.296875q-0.9375 -1.296875 -2.875 -1.296875zm21.839844 13.15625q0 -1.125 -0.84375 -1.921875q-0.84375 -0.796875 -3.25 -1.875q-2.78125 -1.15625 -3.9375 -1.96875q-1.140625 -0.828125 -1.703125 -1.859375q-0.5625 -1.046875 -0.5625 -2.5q0 -2.578125 1.875 -4.28125q1.890625 -1.71875 4.828125 -1.71875q3.078125 0 4.953125 1.796875q1.875 1.796875 1.875 4.609375l-3.4375 0q0 -1.421875 -0.953125 -2.421875q-0.953125 -1.015625 -2.4375 -1.015625q-1.53125 0 -2.40625 0.796875q-0.859375 0.796875 -0.859375 2.125q0 1.046875 0.625 1.703125q0.640625 0.640625 3.0625 1.6875q3.84375 1.5 5.234375 2.9375q1.390625 1.4375 1.390625 3.640625q0 2.765625 -1.90625 4.421875q-1.890625 1.640625 -5.0625 1.640625q-3.3125 0 -5.359375 -1.890625q-2.046875 -1.90625 -2.046875 -4.8125l3.46875 0q0.0625 1.765625 1.078125 2.765625q1.015625 0.984375 2.859375 0.984375q1.71875 0 2.609375 -0.765625q0.90625 -0.78125 0.90625 -2.078125z" fill-rule="nonzero"></path></g></svg>

