<?xml version="1.0" standalone="yes"?>

<svg version="1.1" viewBox="0.0 0.0 1209.0 480.0" fill="none" stroke="none" stroke-linecap="square" stroke-miterlimit="10" xmlns="http://www.w3.org/2000/svg" xmlns:xlink="http://www.w3.org/1999/xlink"><clipPath id="ga08125072_0_0.0"><path d="m0 0l1209.0 0l0 480.0l-1209.0 0l0 -480.0z" clip-rule="nonzero"></path></clipPath><g clip-path="url(#ga08125072_0_0.0)"><path fill="#000000" fill-opacity="0.0" d="m0 0l1209.6011 0l0 480.0l-1209.6011 0z" fill-rule="nonzero"></path><path fill="#000000" fill-opacity="0.0" d="m60.480053 112.0l1088.6299 0l0 347.68503l-1088.6299 0z" fill-rule="nonzero"></path><path fill="#666666" d="m243.73055 170.53542l-0.625 0.78125q-2.6875 3.140625 -7.890625 3.140625q-4.609375 0 -7.234375 -3.046875q-2.625 -3.0625 -2.6875 -8.65625l0 -5.578125q0 -5.984375 2.390625 -8.953125q2.390625 -2.984375 7.15625 -2.984375q4.0625 0 6.359375 2.265625q2.296875 2.265625 2.53125 6.46875l-3.578125 0q-0.203125 -2.65625 -1.46875 -4.15625q-1.265625 -1.5 -3.8125 -1.5q-3.078125 0 -4.5 2.015625q-1.421875 2.0 -1.484375 6.390625l0 5.796875q0 4.296875 1.640625 6.59375q1.640625 2.296875 4.703125 2.296875q2.890625 0 4.40625 -1.40625l0.515625 -0.484375l0 -6.5625l-5.1875 0l0 -3.046875l8.765625 0l0 10.625zm19.476547 -9.609375l-10.062485 0l0 10.078125l11.718735 0l0 3.0625l-15.29686 0l0 -28.4375l15.10936 0l0 3.078125l-11.531235 0l0 9.140625l10.062485 0l0 3.078125zm22.847656 -12.21875l-7.484375 0l0 25.359375l-3.5625 0l0 -25.359375l-7.46875 0l0 -3.078125l18.515625 0l0 3.078125z" fill-rule="nonzero"></path><path fill="#000000" d="m302.37897 155.09792q1.984375 -2.5625 5.046875 -2.5625q5.609375 0 5.6875 7.484375l0 14.046875l-3.4375 0l0 -13.890625q0 -2.484375 -0.84375 -3.515625q-0.828125 -1.046875 -2.484375 -1.046875q-1.28125 0 -2.3125 0.859375q-1.03125 0.859375 -1.65625 2.234375l0 15.359375l-3.453125 0l0 -30.0l3.453125 0l0 11.03125zm20.394531 -7.28125l0 5.109375l3.1875 0l0 2.796875l-3.1875 0l0 13.109375q0 1.25 0.40625 1.890625q0.421875 0.640625 1.40625 0.640625q0.6875 0 1.390625 -0.234375l-0.03125 2.9375q-1.171875 0.390625 -2.40625 0.390625q-2.046875 0 -3.125 -1.46875q-1.078125 -1.46875 -1.078125 -4.140625l0 -13.125l-3.21875 0l0 -2.796875l3.21875 0l0 -5.109375l3.4375 0zm11.816406 0l0 5.109375l3.1875 0l0 2.796875l-3.1875 0l0 13.109375q0 1.25 0.40625 1.890625q0.421875 0.640625 1.40625 0.640625q0.6875 0 1.390625 -0.234375l-0.03125 2.9375q-1.171875 0.390625 -2.40625 0.390625q-2.046875 0 -3.125 -1.46875q-1.078125 -1.46875 -1.078125 -4.140625l0 -13.125l-3.21875 0l0 -2.796875l3.21875 0l0 -5.109375l3.4375 0zm22.566406 16.703125q0 5.015625 -1.8125 7.484375q-1.8125 2.453125 -5.109375 2.453125q-3.1875 0 -4.90625 -2.40625l0 10.140625l-3.4375 0l0 -29.265625l3.125 0l0.1875 2.34375q1.734375 -2.734375 4.96875 -2.734375q3.484375 0 5.203125 2.421875q1.71875 2.421875 1.78125 7.25l0 2.3125zm-3.4375 -1.984375q0 -3.546875 -1.09375 -5.234375q-1.09375 -1.6875 -3.515625 -1.6875q-2.484375 0 -3.78125 2.46875l0 11.0q1.28125 2.421875 3.8125 2.421875q2.34375 0 3.4375 -1.6875q1.109375 -1.6875 1.140625 -5.171875l0 -2.109375zm8.1171875 9.640625q0 -0.9375 0.546875 -1.5625q0.5625 -0.625 1.671875 -0.625q1.125 0 1.703125 0.625q0.578125 0.625 0.578125 1.5625q0 0.890625 -0.578125 1.5q-0.578125 0.609375 -1.703125 0.609375q-1.109375 0 -1.671875 -0.609375q-0.546875 -0.609375 -0.546875 -1.5zm0 -17.0q0 -0.9375 0.546875 -1.5625q0.5625 -0.625 1.671875 -0.625q1.125 0 1.703125 0.625q0.578125 0.625 0.578125 1.5625q0 0.890625 -0.578125 1.5q-0.578125 0.609375 -1.703125 0.609375q-1.109375 0 -1.671875 -0.609375q-0.546875 -0.609375 -0.546875 -1.5zm10.0546875 21.328125l-2.921875 0l9.984375 -30.875l2.90625 0l-9.96875 30.875zm14.824219 0l-2.921875 0l9.984375 -30.875l2.90625 0l-9.96875 30.875zm17.136719 -23.578125l0.078125 1.953125q1.9375 -2.34375 5.09375 -2.34375q3.53125 0 4.9375 3.078125q2.0 -3.078125 5.546875 -3.078125q5.84375 0 5.984375 7.296875l0 14.234375l-3.4375 0l0 -13.90625q0 -2.3125 -0.828125 -3.421875q-0.8125 -1.125 -2.765625 -1.125q-1.5625 0 -2.546875 1.21875q-0.96875 1.203125 -1.125 3.078125l0 14.15625l-3.484375 0l0 -14.0625q-0.046875 -4.390625 -3.5625 -4.390625q-2.625 0 -3.703125 2.609375l0 15.84375l-3.4375 0l0 -21.140625l3.25 0zm32.61328 15.390625l3.84375 -15.390625l3.671875 0l-6.90625 24.125q-0.78125 2.71875 -2.21875 4.125q-1.421875 1.421875 -3.234375 1.421875q-0.703125 0 -1.796875 -0.3125l0 -2.921875l0.765625 0.078125q1.5 0 2.34375 -0.71875q0.859375 -0.703125 1.390625 -2.46875l0.671875 -2.359375l-6.203125 -20.96875l3.765625 0l3.90625 15.390625zm16.878906 0.5l4.0 -15.890625l3.515625 0l-6.265625 21.140625l-2.578125 0l-6.34375 -21.140625l3.515625 0l4.15625 15.890625zm21.984375 5.25q-0.3125 -0.6875 -0.4375 -2.3125q-1.84375 2.703125 -4.6875 2.703125q-2.875 0 -4.484375 -1.609375q-1.609375 -1.609375 -1.609375 -4.546875q0 -3.21875 2.1875 -5.109375q2.1875 -1.90625 5.984375 -1.9375l2.546875 0l0 -2.25q0 -1.890625 -0.84375 -2.6875q-0.84375 -0.8125 -2.5625 -0.8125q-1.5625 0 -2.546875 0.9375q-0.96875 0.921875 -0.96875 2.34375l-3.453125 0q0 -1.609375 0.953125 -3.078125q0.96875 -1.484375 2.578125 -2.328125q1.625 -0.84375 3.625 -0.84375q3.234375 0 4.921875 1.625q1.6875 1.609375 1.734375 4.6875l0 10.671875q0.015625 2.4375 0.65625 4.234375l0 0.3125l-3.59375 0zm-4.609375 -2.75q1.28125 0 2.421875 -0.703125q1.15625 -0.703125 1.6875 -1.765625l0 -5.03125l-1.953125 0q-2.46875 0.03125 -3.890625 1.09375q-1.421875 1.0625 -1.421875 2.984375q0 1.796875 0.71875 2.609375q0.71875 0.8125 2.4375 0.8125zm21.628906 -15.140625q-0.71875 -0.140625 -1.5625 -0.140625q-2.65625 0 -3.71875 2.90625l0 15.125l-3.453125 0l0 -21.140625l3.359375 0l0.0625 2.15625q1.390625 -2.546875 3.921875 -2.546875q0.828125 0 1.375 0.28125l0.015625 3.359375zm7.1679688 17.890625l-3.453125 0l0 -21.140625l3.453125 0l0 21.140625zm0.265625 -26.734375q0 0.875 -0.484375 1.46875q-0.484375 0.578125 -1.484375 0.578125q-0.96875 0 -1.46875 -0.578125q-0.484375 -0.59375 -0.484375 -1.46875q0 -0.890625 0.484375 -1.484375q0.5 -0.609375 1.46875 -0.609375q0.984375 0 1.46875 0.625q0.5 0.609375 0.5 1.46875zm16.035156 26.734375q-0.3125 -0.6875 -0.4375 -2.3125q-1.84375 2.703125 -4.6875 2.703125q-2.875 0 -4.484375 -1.609375q-1.609375 -1.609375 -1.609375 -4.546875q0 -3.21875 2.1875 -5.109375q2.1875 -1.90625 5.984375 -1.9375l2.546875 0l0 -2.25q0 -1.890625 -0.84375 -2.6875q-0.84375 -0.8125 -2.5625 -0.8125q-1.5625 0 -2.546875 0.9375q-0.96875 0.921875 -0.96875 2.34375l-3.453125 0q0 -1.609375 0.953125 -3.078125q0.96875 -1.484375 2.578125 -2.328125q1.625 -0.84375 3.625 -0.84375q3.234375 0 4.921875 1.625q1.6875 1.609375 1.734375 4.6875l0 10.671875q0.015625 2.4375 0.65625 4.234375l0 0.3125l-3.59375 0zm-4.609375 -2.75q1.28125 0 2.421875 -0.703125q1.15625 -0.703125 1.6875 -1.765625l0 -5.03125l-1.953125 0q-2.46875 0.03125 -3.890625 1.09375q-1.421875 1.0625 -1.421875 2.984375q0 1.796875 0.71875 2.609375q0.71875 0.8125 2.4375 0.8125zm16.160156 -18.390625l0.09375 2.296875q2.015625 -2.6875 5.140625 -2.6875q5.609375 0 5.6875 7.484375l0 14.046875l-3.4375 0l0 -13.890625q0 -2.484375 -0.84375 -3.515625q-0.828125 -1.046875 -2.484375 -1.046875q-1.28125 0 -2.3125 0.859375q-1.03125 0.859375 -1.65625 2.234375l0 15.359375l-3.453125 0l0 -21.140625l3.265625 0zm20.621094 -5.109375l0 5.109375l3.1875 0l0 2.796875l-3.1875 0l0 13.109375q0 1.25 0.40625 1.890625q0.421875 0.640625 1.40625 0.640625q0.6875 0 1.390625 -0.234375l-0.03125 2.9375q-1.171875 0.390625 -2.40625 0.390625q-2.046875 0 -3.125 -1.46875q-1.078125 -1.46875 -1.078125 -4.140625l0 -13.125l-3.21875 0l0 -2.796875l3.21875 0l0 -5.109375l3.4375 0zm7.5195312 24.359375q0 -0.9375 0.546875 -1.5625q0.5625 -0.625 1.671875 -0.625q1.125 0 1.703125 0.625q0.578125 0.625 0.578125 1.5625q0 0.890625 -0.578125 1.5q-0.578125 0.609375 -1.703125 0.609375q-1.109375 0 -1.671875 -0.609375q-0.546875 -0.609375 -0.546875 -1.5zm14.027344 1.890625l-3.453125 0l0 -21.140625l3.453125 0l0 21.140625zm0.265625 -26.734375q0 0.875 -0.484375 1.46875q-0.484375 0.578125 -1.484375 0.578125q-0.96875 0 -1.46875 -0.578125q-0.484375 -0.59375 -0.484375 -1.46875q0 -0.890625 0.484375 -1.484375q0.5 -0.609375 1.46875 -0.609375q0.984375 0 1.46875 0.625q0.5 0.609375 0.5 1.46875zm8.425781 5.59375l0.09375 2.296875q2.015625 -2.6875 5.140625 -2.6875q5.609375 0 5.6875 7.484375l0 14.046875l-3.4375 0l0 -13.890625q0 -2.484375 -0.84375 -3.515625q-0.828125 -1.046875 -2.484375 -1.046875q-1.28125 0 -2.3125 0.859375q-1.03125 0.859375 -1.65625 2.234375l0 15.359375l-3.453125 0l0 -21.140625l3.265625 0zm17.621094 21.140625l0 -18.34375l-2.765625 0l0 -2.796875l2.765625 0l0 -2.4375q0.046875 -3.21875 1.625 -5.015625q1.578125 -1.8125 4.4375 -1.8125q1.046875 0 2.09375 0.328125l-0.171875 2.921875q-0.75 -0.171875 -1.578125 -0.171875q-2.953125 0 -2.953125 4.203125l0 1.984375l3.609375 0l0 2.796875l-3.609375 0l0 18.34375l-3.453125 0zm10.40625 -11.546875q0 -4.609375 2.234375 -7.296875q2.234375 -2.6875 5.90625 -2.6875q3.671875 0 5.90625 2.625q2.234375 2.609375 2.296875 7.125l0 2.234375q0 4.578125 -2.234375 7.265625q-2.21875 2.671875 -5.921875 2.671875q-3.671875 0 -5.890625 -2.59375q-2.21875 -2.609375 -2.296875 -7.03125l0 -2.3125zm3.453125 2.0q0 3.25 1.28125 5.125q1.28125 1.859375 3.453125 1.859375q4.5625 0 4.703125 -6.59375l0 -2.390625q0 -3.234375 -1.296875 -5.125q-1.28125 -1.890625 -3.453125 -1.890625q-2.125 0 -3.40625 1.890625q-1.28125 1.890625 -1.28125 5.109375l0 2.015625zm18.296875 11.984375l-2.921875 0l9.984375 -30.875l2.90625 0l-9.96875 30.875zm19.871094 -7.6875l4.0 -15.890625l3.515625 0l-6.265625 21.140625l-2.578125 0l-6.34375 -21.140625l3.515625 0l4.15625 15.890625zm21.109375 5.25l-3.46875 0l0 -24.078125l-5.984375 2.671875l0 -3.28125l8.90625 -3.890625l0.546875 0l0 28.578125zm10.699219 2.4375l-2.921875 0l9.984375 -30.875l2.90625 0l-9.96875 30.875zm19.871094 -7.6875l4.0 -15.890625l3.515625 0l-6.265625 21.140625l-2.578125 0l-6.34375 -21.140625l3.515625 0l4.15625 15.890625zm21.984375 5.25q-0.3125 -0.6875 -0.4375 -2.3125q-1.84375 2.703125 -4.6875 2.703125q-2.875 0 -4.484375 -1.609375q-1.609375 -1.609375 -1.609375 -4.546875q0 -3.21875 2.1875 -5.109375q2.1875 -1.90625 5.984375 -1.9375l2.546875 0l0 -2.25q0 -1.890625 -0.84375 -2.6875q-0.84375 -0.8125 -2.5625 -0.8125q-1.5625 0 -2.546875 0.9375q-0.96875 0.921875 -0.96875 2.34375l-3.453125 0q0 -1.609375 0.953125 -3.078125q0.96875 -1.484375 2.578125 -2.328125q1.625 -0.84375 3.625 -0.84375q3.234375 0 4.921875 1.625q1.6875 1.609375 1.734375 4.6875l0 10.671875q0.015625 2.4375 0.65625 4.234375l0 0.3125l-3.59375 0zm-4.609375 -2.75q1.28125 0 2.421875 -0.703125q1.15625 -0.703125 1.6875 -1.765625l0 -5.03125l-1.953125 0q-2.46875 0.03125 -3.890625 1.09375q-1.421875 1.0625 -1.421875 2.984375q0 1.796875 0.71875 2.609375q0.71875 0.8125 2.4375 0.8125zm21.628906 -15.140625q-0.71875 -0.140625 -1.5625 -0.140625q-2.65625 0 -3.71875 2.90625l0 15.125l-3.453125 0l0 -21.140625l3.359375 0l0.0625 2.15625q1.390625 -2.546875 3.921875 -2.546875q0.828125 0 1.375 0.28125l0.015625 3.359375zm7.1679688 17.890625l-3.453125 0l0 -21.140625l3.453125 0l0 21.140625zm0.265625 -26.734375q0 0.875 -0.484375 1.46875q-0.484375 0.578125 -1.484375 0.578125q-0.96875 0 -1.46875 -0.578125q-0.484375 -0.59375 -0.484375 -1.46875q0 -0.890625 0.484375 -1.484375q0.5 -0.609375 1.46875 -0.609375q0.984375 0 1.46875 0.625q0.5 0.609375 0.5 1.46875zm16.035156 26.734375q-0.3125 -0.6875 -0.4375 -2.3125q-1.84375 2.703125 -4.6875 2.703125q-2.875 0 -4.484375 -1.609375q-1.609375 -1.609375 -1.609375 -4.546875q0 -3.21875 2.1875 -5.109375q2.1875 -1.90625 5.984375 -1.9375l2.546875 0l0 -2.25q0 -1.890625 -0.84375 -2.6875q-0.84375 -0.8125 -2.5625 -0.8125q-1.5625 0 -2.546875 0.9375q-0.96875 0.921875 -0.96875 2.34375l-3.453125 0q0 -1.609375 0.953125 -3.078125q0.96875 -1.484375 2.578125 -2.328125q1.625 -0.84375 3.625 -0.84375q3.234375 0 4.921875 1.625q1.6875 1.609375 1.734375 4.6875l0 10.671875q0.015625 2.4375 0.65625 4.234375l0 0.3125l-3.59375 0zm-4.609375 -2.75q1.28125 0 2.421875 -0.703125q1.15625 -0.703125 1.6875 -1.765625l0 -5.03125l-1.953125 0q-2.46875 0.03125 -3.890625 1.09375q-1.421875 1.0625 -1.421875 2.984375q0 1.796875 0.71875 2.609375q0.71875 0.8125 2.4375 0.8125zm16.160156 -18.390625l0.09375 2.296875q2.015625 -2.6875 5.140625 -2.6875q5.609375 0 5.6875 7.484375l0 14.046875l-3.4375 0l0 -13.890625q0 -2.484375 -0.84375 -3.515625q-0.828125 -1.046875 -2.484375 -1.046875q-1.28125 0 -2.3125 0.859375q-1.03125 0.859375 -1.65625 2.234375l0 15.359375l-3.453125 0l0 -21.140625l3.265625 0zm20.621094 -5.109375l0 5.109375l3.1875 0l0 2.796875l-3.1875 0l0 13.109375q0 1.25 0.40625 1.890625q0.421875 0.640625 1.40625 0.640625q0.6875 0 1.390625 -0.234375l-0.03125 2.9375q-1.171875 0.390625 -2.40625 0.390625q-2.046875 0 -3.125 -1.46875q-1.078125 -1.46875 -1.078125 -4.140625l0 -13.125l-3.21875 0l0 -2.796875l3.21875 0l0 -5.109375l3.4375 0zm8.238281 28.6875l-2.921875 0l9.984375 -30.875l2.90625 0l-9.96875 30.875z" fill-rule="nonzero"></path><path fill="#ff0000" d="m818.668 161.48854l9.96875 4.9375l0 3.828125l-13.359375 -7.40625l0 -2.84375l13.359375 -7.390625l0 3.828125l-9.96875 5.046875zm34.58203 12.578125l-3.59375 0l0 -13.140625l-11.453125 0l0 13.140625l-3.578125 0l0 -28.4375l3.578125 0l0 12.21875l11.453125 0l0 -12.21875l3.59375 0l0 28.4375zm23.976562 -3.53125l-0.625 0.78125q-2.6875 3.140625 -7.890625 3.140625q-4.609375 0 -7.234375 -3.046875q-2.625 -3.0625 -2.6875 -8.65625l0 -5.578125q0 -5.984375 2.390625 -8.953125q2.390625 -2.984375 7.15625 -2.984375q4.0625 0 6.359375 2.265625q2.296875 2.265625 2.53125 6.46875l-3.578125 0q-0.203125 -2.65625 -1.46875 -4.15625q-1.265625 -1.5 -3.8125 -1.5q-3.078125 0 -4.5 2.015625q-1.421875 2.0 -1.484375 6.390625l0 5.796875q0 4.296875 1.640625 6.59375q1.640625 2.296875 4.703125 2.296875q2.890625 0 4.40625 -1.40625l0.515625 -0.484375l0 -6.5625l-5.1875 0l0 -3.046875l8.765625 0l0 10.625zm13.9609375 -1.953125l6.515625 -22.953125l3.921875 0l-8.84375 28.4375l-3.125 0l-8.828125 -28.4375l3.90625 0l6.453125 22.953125zm26.699219 -1.703125q0 -2.125 -1.15625 -3.25q-1.140625 -1.140625 -4.15625 -2.21875q-3.0 -1.078125 -4.59375 -2.25q-1.59375 -1.1875 -2.390625 -2.703125q-0.78125 -1.515625 -0.78125 -3.46875q0 -3.375 2.25 -5.5625q2.265625 -2.1875 5.90625 -2.1875q2.5 0 4.453125 1.125q1.953125 1.125 3.0 3.125q1.0625 1.984375 1.0625 4.359375l-3.59375 0q0 -2.640625 -1.265625 -4.078125q-1.265625 -1.453125 -3.65625 -1.453125q-2.15625 0 -3.359375 1.21875q-1.1875 1.203125 -1.1875 3.390625q0 1.796875 1.28125 3.015625q1.296875 1.203125 4.0 2.171875q4.1875 1.375 6.0 3.40625q1.8125 2.03125 1.8125 5.3125q0 3.46875 -2.25 5.546875q-2.25 2.078125 -6.109375 2.078125q-2.484375 0 -4.59375 -1.078125q-2.09375 -1.09375 -3.296875 -3.046875q-1.203125 -1.96875 -1.203125 -4.515625l3.59375 0q0 2.640625 1.46875 4.109375q1.484375 1.46875 4.03125 1.46875q2.359375 0 3.546875 -1.203125q1.1875 -1.21875 1.1875 -3.3125zm20.957031 10.140625l-15.25 0l0 -2.953125l15.25 0l0 2.953125zm6.7851562 -2.953125l-3.453125 0l0 -21.140625l3.453125 0l0 21.140625zm0.265625 -26.734375q0 0.875 -0.484375 1.46875q-0.484375 0.578125 -1.484375 0.578125q-0.96875 0 -1.46875 -0.578125q-0.484375 -0.59375 -0.484375 -1.46875q0 -0.890625 0.484375 -1.484375q0.5 -0.609375 1.46875 -0.609375q0.984375 0 1.46875 0.625q0.5 0.609375 0.5 1.46875zm4.4414062 15.203125q0 -4.875 1.828125 -7.4375q1.828125 -2.5625 5.234375 -2.5625q3.03125 0 4.734375 2.46875l0 -10.9375l3.453125 0l0 30.0l-3.15625 0l-0.1875 -2.265625q-1.6875 2.65625 -4.859375 2.65625q-3.28125 0 -5.15625 -2.546875q-1.859375 -2.546875 -1.890625 -7.203125l0 -2.171875zm3.453125 1.984375q0 3.546875 1.046875 5.21875q1.0625 1.671875 3.453125 1.671875q2.578125 0 3.84375 -2.59375l0 -10.671875q-1.328125 -2.53125 -3.828125 -2.53125q-2.390625 0 -3.453125 1.671875q-1.046875 1.65625 -1.0625 5.125l0 2.109375zm27.78125 -3.171875l-10.59375 -5.03125l0 -3.71875l14.0625 7.390625l0 2.84375l-14.0625 7.40625l0 -3.75l10.59375 -5.140625z" fill-rule="nonzero"></path><path fill="#000000" d="m83.82381 236.81374q1.71875 0 3.375 0.890625q1.65625 0.890625 2.578125 2.546875q0.921875 1.65625 0.921875 3.4375q0 2.859375 -2.015625 4.875q-2.015625 2.015625 -4.859375 2.015625q-2.859375 0 -4.875 -2.015625q-2.015625 -2.015625 -2.015625 -4.875q0 -1.796875 0.921875 -3.4375q0.921875 -1.65625 2.578125 -2.546875q1.65625 -0.890625 3.390625 -0.890625z" fill-rule="nonzero"></path><path fill="#000000" d="m134.16756 249.89186l-0.5 0.625q-2.15625 2.515625 -6.3125 2.515625q-3.6875 0 -5.796875 -2.4375q-2.09375 -2.453125 -2.140625 -6.921875l0 -4.46875q0 -4.78125 1.90625 -7.15625q1.921875 -2.390625 5.734375 -2.390625q3.25 0 5.078125 1.8125q1.84375 1.8125 2.03125 5.171875l-2.859375 0q-0.171875 -2.125 -1.1875 -3.3125q-1.0 -1.203125 -3.046875 -1.203125q-2.453125 0 -3.59375 1.609375q-1.140625 1.59375 -1.1875 5.109375l0 4.640625q0 3.4375 1.3125 5.28125q1.3125 1.828125 3.765625 1.828125q2.3125 0 3.515625 -1.125l0.421875 -0.390625l0 -5.25l-4.15625 0l0 -2.4375l7.015625 0l0 8.5zm10.328125 3.140625q-3.15625 0 -4.84375 -1.875q-1.6875 -1.890625 -1.71875 -5.53125l0 -2.046875q0 -3.78125 1.640625 -5.921875q1.65625 -2.15625 4.609375 -2.15625q2.96875 0 4.4375 1.890625q1.46875 1.890625 1.5 5.890625l0 1.8125l-9.4375 0l0 0.390625q0 2.71875 1.015625 3.953125q1.03125 1.234375 2.953125 1.234375q1.21875 0 2.140625 -0.453125q0.9375 -0.46875 1.75 -1.46875l1.4375 1.75q-1.796875 2.53125 -5.484375 2.53125zm-0.3125 -15.15625q-1.71875 0 -2.546875 1.1875q-0.828125 1.171875 -0.9375 3.65625l6.65625 0l0 -0.375q-0.109375 -2.40625 -0.875 -3.4375q-0.75 -1.03125 -2.296875 -1.03125zm12.875 -6.15625l0 4.09375l2.546875 0l0 2.234375l-2.546875 0l0 10.484375q0 1.0 0.328125 1.515625q0.328125 0.515625 1.125 0.515625q0.546875 0 1.109375 -0.1875l-0.03125 2.34375q-0.9375 0.3125 -1.921875 0.3125q-1.640625 0 -2.5 -1.171875q-0.859375 -1.171875 -0.859375 -3.3125l0 -10.5l-2.578125 0l0 -2.234375l2.578125 0l0 -4.09375l2.75 0zm14.375 21.0l0 -14.671875l-2.203125 0l0 -2.234375l2.203125 0l0 -1.953125q0.046875 -2.578125 1.296875 -4.015625q1.265625 -1.453125 3.5625 -1.453125q0.828125 0 1.671875 0.265625l-0.140625 2.34375q-0.59375 -0.140625 -1.265625 -0.140625q-2.359375 0 -2.359375 3.359375l0 1.59375l2.890625 0l0 2.234375l-2.890625 0l0 14.671875l-2.765625 0zm17.53125 -1.484375q-1.375 1.796875 -4.015625 1.796875q-2.296875 0 -3.46875 -1.578125q-1.171875 -1.59375 -1.1875 -4.625l0 -11.015625l2.75 0l0 10.8125q0 3.953125 2.375 3.953125q2.515625 0 3.46875 -2.25l0 -12.515625l2.765625 0l0 16.90625l-2.625 0l-0.0625 -1.484375zm9.828125 1.484375l-2.765625 0l0 -24.0l2.765625 0l0 24.0zm7.328125 0l-2.765625 0l0 -24.0l2.765625 0l0 24.0zm20.375 0q-0.25 -0.546875 -0.359375 -1.84375q-1.46875 2.15625 -3.75 2.15625q-2.296875 0 -3.59375 -1.28125q-1.28125 -1.296875 -1.28125 -3.640625q0 -2.578125 1.75 -4.09375q1.75 -1.515625 4.796875 -1.546875l2.03125 0l0 -1.796875q0 -1.515625 -0.671875 -2.15625q-0.671875 -0.640625 -2.046875 -0.640625q-1.25 0 -2.03125 0.75q-0.78125 0.734375 -0.78125 1.875l-2.765625 0q0 -1.296875 0.765625 -2.46875q0.765625 -1.1875 2.0625 -1.859375q1.296875 -0.671875 2.890625 -0.671875q2.59375 0 3.9375 1.296875q1.359375 1.28125 1.390625 3.75l0 8.53125q0.015625 1.953125 0.53125 3.390625l0 0.25l-2.875 0zm-3.6875 -2.203125q1.015625 0 1.9375 -0.5625q0.921875 -0.5625 1.34375 -1.40625l0 -4.03125l-1.5625 0q-1.96875 0.03125 -3.109375 0.890625q-1.140625 0.84375 -1.140625 2.375q0 1.4375 0.578125 2.09375q0.578125 0.640625 1.953125 0.640625zm12.921875 -14.703125l0.078125 1.828125q1.609375 -2.140625 4.109375 -2.140625q4.484375 0 4.546875 5.984375l0 11.234375l-2.75 0l0 -11.109375q0 -1.984375 -0.671875 -2.8125q-0.65625 -0.84375 -1.984375 -0.84375q-1.03125 0 -1.859375 0.6875q-0.8125 0.6875 -1.3125 1.796875l0 12.28125l-2.765625 0l0 -16.90625l2.609375 0zm15.484375 0l0.078125 1.828125q1.609375 -2.140625 4.109375 -2.140625q4.4843597 0 4.5468597 5.984375l0 11.234375l-2.75 0l0 -11.109375q0 -1.984375 -0.671875 -2.8125q-0.65623474 -0.84375 -1.9843597 -0.84375q-1.03125 0 -1.859375 0.6875q-0.8125 0.6875 -1.3125 1.796875l0 12.28125l-2.765625 0l0 -16.90625l2.609375 0zm12.29686 7.671875q0 -3.6875 1.78125 -5.828125q1.796875 -2.15625 4.734375 -2.15625q2.9375 0 4.71875 2.09375q1.796875 2.09375 1.84375 5.703125l0 1.78125q0 3.671875 -1.78125 5.8125q-1.78125 2.140625 -4.75 2.140625q-2.9375 0 -4.71875 -2.078125q-1.765625 -2.078125 -1.828125 -5.625l0 -1.84375zm2.765625 1.59375q0 2.609375 1.015625 4.109375q1.03125 1.484375 2.765625 1.484375q3.65625 0 3.765625 -5.28125l0 -1.90625q0 -2.59375 -1.03125 -4.09375q-1.03125 -1.515625 -2.765625 -1.515625q-1.703125 0 -2.734375 1.515625q-1.015625 1.5 -1.015625 4.078125l0 1.609375zm17.5 -13.359375l0 4.09375l2.546875 0l0 2.234375l-2.546875 0l0 10.484375q0 1.0 0.328125 1.515625q0.328125 0.515625 1.125 0.515625q0.546875 0 1.109375 -0.1875l-0.03125 2.34375q-0.9375 0.3125 -1.921875 0.3125q-1.640625 0 -2.5 -1.171875q-0.859375 -1.171875 -0.859375 -3.3125l0 -10.5l-2.578125 0l0 -2.234375l2.578125 0l0 -4.09375l2.75 0zm14.53125 21.0q-0.25 -0.546875 -0.359375 -1.84375q-1.46875 2.15625 -3.75 2.15625q-2.296875 0 -3.59375 -1.28125q-1.28125 -1.296875 -1.28125 -3.640625q0 -2.578125 1.75 -4.09375q1.75 -1.515625 4.796875 -1.546875l2.03125 0l0 -1.796875q0 -1.515625 -0.671875 -2.15625q-0.671875 -0.640625 -2.046875 -0.640625q-1.25 0 -2.03125 0.75q-0.78125 0.734375 -0.78125 1.875l-2.765625 0q0 -1.296875 0.765625 -2.46875q0.765625 -1.1875 2.0625 -1.859375q1.296875 -0.671875 2.890625 -0.671875q2.59375 0 3.9375 1.296875q1.359375 1.28125 1.390625 3.75l0 8.53125q0.015625 1.953125 0.53125 3.390625l0 0.25l-2.875 0zm-3.6875 -2.203125q1.015625 0 1.9375 -0.5625q0.921875 -0.5625 1.34375 -1.40625l0 -4.03125l-1.5625 0q-1.96875 0.03125 -3.109375 0.890625q-1.140625 0.84375 -1.140625 2.375q0 1.4375 0.578125 2.09375q0.578125 0.640625 1.953125 0.640625zm13.9375 -18.796875l0 4.09375l2.546875 0l0 2.234375l-2.546875 0l0 10.484375q0 1.0 0.328125 1.515625q0.328125 0.515625 1.125 0.515625q0.546875 0 1.109375 -0.1875l-0.03125 2.34375q-0.9375 0.3125 -1.921875 0.3125q-1.640625 0 -2.5 -1.171875q-0.859375 -1.171875 -0.859375 -3.3125l0 -10.5l-2.578125 0l0 -2.234375l2.578125 0l0 -4.09375l2.75 0zm8.8125 21.0l-2.765625 0l0 -16.90625l2.765625 0l0 16.90625zm0.21875 -21.390625q0 0.703125 -0.390625 1.171875q-0.390625 0.46875 -1.1875 0.46875q-0.78125 0 -1.171875 -0.46875q-0.390625 -0.46875 -0.390625 -1.171875q0 -0.703125 0.390625 -1.1875q0.390625 -0.484375 1.171875 -0.484375q0.78125 0 1.171875 0.5q0.40625 0.484375 0.40625 1.171875zm3.546875 12.15625q0 -3.6875 1.78125 -5.828125q1.796875 -2.15625 4.734375 -2.15625q2.9375 0 4.71875 2.09375q1.796875 2.09375 1.84375 5.703125l0 1.78125q0 3.671875 -1.78125 5.8125q-1.78125 2.140625 -4.75 2.140625q-2.9375 0 -4.71875 -2.078125q-1.765625 -2.078125 -1.828125 -5.625l0 -1.84375zm2.765625 1.59375q0 2.609375 1.015625 4.109375q1.03125 1.484375 2.765625 1.484375q3.65625 0 3.765625 -5.28125l0 -1.90625q0 -2.59375 -1.03125 -4.09375q-1.03125 -1.515625 -2.765625 -1.515625q-1.703125 0 -2.734375 1.515625q-1.015625 1.5 -1.015625 4.078125l0 1.609375zm16.484375 -9.265625l0.078125 1.828125q1.609375 -2.140625 4.109375 -2.140625q4.484375 0 4.546875 5.984375l0 11.234375l-2.75 0l0 -11.109375q0 -1.984375 -0.671875 -2.8125q-0.65625 -0.84375 -1.984375 -0.84375q-1.03125 0 -1.859375 0.6875q-0.8125 0.6875 -1.3125 1.796875l0 12.28125l-2.765625 0l0 -16.90625l2.609375 0zm21.09375 12.578125q0 -0.890625 -0.671875 -1.53125q-0.671875 -0.640625 -2.59375 -1.5q-2.234375 -0.921875 -3.15625 -1.578125q-0.90625 -0.65625 -1.359375 -1.484375q-0.453125 -0.84375 -0.453125 -2.0q0 -2.0625 1.5 -3.421875q1.515625 -1.375 3.859375 -1.375q2.46875 0 3.96875 1.4375q1.5 1.4375 1.5 3.6875l-2.75 0q0 -1.140625 -0.765625 -1.9375q-0.765625 -0.8125 -1.953125 -0.8125q-1.21875 0 -1.921875 0.640625q-0.6875 0.625 -0.6875 1.6875q0 0.84375 0.5 1.359375q0.515625 0.515625 2.453125 1.359375q3.078125 1.203125 4.1875 2.359375q1.109375 1.140625 1.109375 2.90625q0 2.203125 -1.515625 3.53125q-1.515625 1.3125 -4.0625 1.3125q-2.640625 0 -4.28125 -1.515625q-1.640625 -1.515625 -1.640625 -3.84375l2.78125 0q0.046875 1.40625 0.859375 2.203125q0.8125 0.796875 2.28125 0.796875q1.375 0 2.09375 -0.609375q0.71875 -0.625 0.71875 -1.671875z" fill-rule="nonzero"></path><path fill="#000000" d="m135.94598 289.76248q1.03125 0 2.015625 0.53125q0.984375 0.515625 1.53125 1.5q0.546875 0.984375 0.546875 2.046875q0 1.6875 -1.203125 2.890625q-1.1875 1.203125 -2.875 1.203125q-1.703125 0 -2.90625 -1.203125q-1.1875 -1.203125 -1.1875 -2.890625q0 -1.0625 0.546875 -2.046875q0.546875 -0.984375 1.53125 -1.5q0.984375 -0.53125 2.0 -0.53125zm0.015625 0.703125q-0.875 0 -1.6875 0.4375q-0.796875 0.421875 -1.25 1.25q-0.453125 0.8125 -0.453125 1.6875q0 1.390625 0.984375 2.390625q1.0 1.0 2.40625 1.0q1.390625 0 2.375 -1.0q1.0 -1.0 1.0 -2.390625q0 -0.875 -0.46875 -1.6875q-0.453125 -0.828125 -1.265625 -1.25q-0.796875 -0.4375 -1.640625 -0.4375z" fill-rule="nonzero"></path><path fill="#1155cc" d="m168.49568 289.7156q0.984375 -1.28125 2.515625 -1.28125q2.8125 0 2.84375 3.75l0 7.015625l-1.71875 0l0 -6.9375q0 -1.25 -0.421875 -1.765625q-0.40625 -0.53125 -1.234375 -0.53125q-0.640625 0 -1.15625 0.4375q-0.515625 0.421875 -0.828125 1.125l0 7.671875l-1.71875 0l0 -15.0l1.71875 0l0 5.515625zm10.205078 -3.640625l0 2.5625l1.578125 0l0 1.390625l-1.578125 0l0 6.546875q0 0.625 0.203125 0.953125q0.203125 0.328125 0.703125 0.328125q0.34375 0 0.6875 -0.125l-0.015625 1.46875q-0.59375 0.203125 -1.203125 0.203125q-1.03125 0 -1.5625 -0.734375q-0.53125 -0.734375 -0.53125 -2.078125l0 -6.5625l-1.625 0l0 -1.390625l1.625 0l0 -2.5625l1.71875 0zm5.908203 0l0 2.5625l1.578125 0l0 1.390625l-1.578125 0l0 6.546875q0 0.625 0.203125 0.953125q0.203125 0.328125 0.703125 0.328125q0.34375 0 0.6875 -0.125l-0.015625 1.46875q-0.59375 0.203125 -1.203125 0.203125q-1.03125 0 -1.5625 -0.734375q-0.53125 -0.734375 -0.53125 -2.078125l0 -6.5625l-1.625 0l0 -1.390625l1.625 0l0 -2.5625l1.71875 0zm11.267578 8.34375q0 2.515625 -0.90625 3.75q-0.890625 1.234375 -2.546875 1.234375q-1.59375 0 -2.453125 -1.203125l0 5.0625l-1.71875 0l0 -14.625l1.5625 0l0.09375 1.171875q0.859375 -1.375 2.484375 -1.375q1.734375 0 2.59375 1.21875q0.859375 1.203125 0.890625 3.625l0 1.140625zm-1.71875 -0.984375q0 -1.78125 -0.546875 -2.625q-0.546875 -0.84375 -1.75 -0.84375q-1.25 0 -1.890625 1.25l0 5.5q0.640625 1.203125 1.90625 1.203125q1.171875 0 1.71875 -0.84375q0.5625 -0.84375 0.5625 -2.578125l0 -1.0625zm4.0664062 4.8125q0 -0.46875 0.28125 -0.78125q0.28125 -0.3125 0.828125 -0.3125q0.5625 0 0.84375 0.3125q0.296875 0.3125 0.296875 0.78125q0 0.453125 -0.296875 0.765625q-0.28125 0.296875 -0.84375 0.296875q-0.546875 0 -0.828125 -0.296875q-0.28125 -0.3125 -0.28125 -0.765625zm0 -9.0q0 -0.46875 0.28125 -0.78125q0.28125 -0.3125 0.828125 -0.3125q0.5625 0 0.84375 0.3125q0.296875 0.3125 0.296875 0.78125q0 0.453125 -0.296875 0.765625q-0.28125 0.296875 -0.84375 0.296875q-0.546875 0 -0.828125 -0.296875q-0.28125 -0.3125 -0.28125 -0.765625zm5.0273438 11.171875l-1.46875 0l5.0 -15.4375l1.453125 0l-4.984375 15.4375zm7.4121094 0l-1.46875 0l5.0 -15.4375l1.453125 0l-4.984375 15.4375zm8.568359 -11.78125l0.03125 0.96875q0.96875 -1.171875 2.5625 -1.171875q1.765625 0 2.46875 1.53125q0.984375 -1.53125 2.765625 -1.53125q2.921875 0 2.984375 3.640625l0 7.125l-1.71875 0l0 -6.953125q0 -1.15625 -0.40625 -1.71875q-0.40625 -0.5625 -1.390625 -0.5625q-0.78125 0 -1.265625 0.609375q-0.484375 0.609375 -0.5625 1.546875l0 7.078125l-1.734375 0l0 -7.03125q-0.03125 -2.203125 -1.796875 -2.203125q-1.296875 0 -1.84375 1.3125l0 7.921875l-1.71875 0l0 -10.5625l1.625 0zm16.314453 7.6875l1.921875 -7.6875l1.828125 0l-3.453125 12.0625q-0.390625 1.359375 -1.109375 2.0625q-0.703125 0.703125 -1.609375 0.703125q-0.359375 0 -0.90625 -0.15625l0 -1.46875l0.375 0.046875q0.765625 0 1.1875 -0.359375q0.421875 -0.359375 0.6875 -1.234375l0.34375 -1.1875l-3.109375 -10.46875l1.890625 0l1.953125 7.6875zm8.423828 0.25l2.015625 -7.9375l1.75 0l-3.140625 10.5625l-1.28125 0l-3.171875 -10.5625l1.75 0l2.078125 7.9375zm11.0078125 2.625q-0.15625 -0.34375 -0.234375 -1.15625q-0.90625 1.359375 -2.34375 1.359375q-1.4375 0 -2.25 -0.8125q-0.796875 -0.8125 -0.796875 -2.265625q0 -1.625 1.09375 -2.5625q1.09375 -0.953125 3.0 -0.96875l1.265625 0l0 -1.125q0 -0.953125 -0.421875 -1.34375q-0.40625 -0.40625 -1.265625 -0.40625q-0.78125 0 -1.28125 0.46875q-0.484375 0.46875 -0.484375 1.171875l-1.71875 0q0 -0.8125 0.46875 -1.546875q0.484375 -0.734375 1.296875 -1.15625q0.8125 -0.421875 1.796875 -0.421875q1.625 0 2.46875 0.8125q0.84373474 0.796875 0.85935974 2.34375l0 5.328125q0.015625 1.21875 0.34375 2.125l0 0.15625l-1.7968597 0zm-2.3125 -1.375q0.640625 0 1.21875 -0.34375q0.578125 -0.359375 0.828125 -0.890625l0 -2.515625l-0.96875 0q-1.234375 0.015625 -1.953125 0.546875q-0.703125 0.53125 -0.703125 1.484375q0 0.90625 0.359375 1.3125q0.359375 0.40625 1.21875 0.40625zm10.814438 -7.578125q-0.359375 -0.0625 -0.78125 -0.0625q-1.328125 0 -1.859375 1.453125l0 7.5625l-1.71875 0l0 -10.5625l1.671875 0l0.03125 1.0625q0.6875 -1.265625 1.96875 -1.265625q0.40625 0 0.671875 0.140625l0.015625 1.671875zm3.5839844 8.953125l-1.734375 0l0 -10.5625l1.734375 0l0 10.5625zm0.140625 -13.375q0 0.4375 -0.25 0.734375q-0.25 0.296875 -0.734375 0.296875q-0.5 0 -0.75 -0.296875q-0.234375 -0.296875 -0.234375 -0.734375q0 -0.4375 0.234375 -0.734375q0.25 -0.3125 0.734375 -0.3125q0.5 0 0.75 0.3125q0.25 0.3125 0.25 0.734375zm8.017578 13.375q-0.15625 -0.34375 -0.234375 -1.15625q-0.90625 1.359375 -2.34375 1.359375q-1.4375 0 -2.25 -0.8125q-0.796875 -0.8125 -0.796875 -2.265625q0 -1.625 1.09375 -2.5625q1.09375 -0.953125 3.0 -0.96875l1.265625 0l0 -1.125q0 -0.953125 -0.421875 -1.34375q-0.40625 -0.40625 -1.265625 -0.40625q-0.78125 0 -1.28125 0.46875q-0.484375 0.46875 -0.484375 1.171875l-1.71875 0q0 -0.8125 0.46875 -1.546875q0.484375 -0.734375 1.296875 -1.15625q0.8125 -0.421875 1.796875 -0.421875q1.625 0 2.46875 0.8125q0.84375 0.796875 0.859375 2.34375l0 5.328125q0.015625 1.21875 0.34375 2.125l0 0.15625l-1.796875 0zm-2.3125 -1.375q0.640625 0 1.21875 -0.34375q0.578125 -0.359375 0.828125 -0.890625l0 -2.515625l-0.96875 0q-1.234375 0.015625 -1.953125 0.546875q-0.703125 0.53125 -0.703125 1.484375q0 0.90625 0.359375 1.3125q0.359375 0.40625 1.21875 0.40625zm8.080078 -9.1875l0.046875 1.140625q1.0 -1.34375 2.5625 -1.34375q2.8125 0 2.84375 3.75l0 7.015625l-1.71875 0l0 -6.9375q0 -1.25 -0.421875 -1.765625q-0.40625 -0.53125 -1.234375 -0.53125q-0.640625 0 -1.15625 0.4375q-0.515625 0.421875 -0.828125 1.125l0 7.671875l-1.71875 0l0 -10.5625l1.625 0zm10.318359 -2.5625l0 2.5625l1.578125 0l0 1.390625l-1.578125 0l0 6.546875q0 0.625 0.203125 0.953125q0.203125 0.328125 0.703125 0.328125q0.34375 0 0.6875 -0.125l-0.015625 1.46875q-0.59375 0.203125 -1.203125 0.203125q-1.03125 0 -1.5625 -0.734375q-0.53125 -0.734375 -0.53125 -2.078125l0 -6.5625l-1.625 0l0 -1.390625l1.625 0l0 -2.5625l1.71875 0zm3.7519531 12.171875q0 -0.46875 0.28125 -0.78125q0.28125 -0.3125 0.828125 -0.3125q0.5625 0 0.84375 0.3125q0.296875 0.3125 0.296875 0.78125q0 0.453125 -0.296875 0.765625q-0.28125 0.296875 -0.84375 0.296875q-0.546875 0 -0.828125 -0.296875q-0.28125 -0.3125 -0.28125 -0.765625zm7.013672 0.953125l-1.734375 0l0 -10.5625l1.734375 0l0 10.5625zm0.140625 -13.375q0 0.4375 -0.25 0.734375q-0.25 0.296875 -0.734375 0.296875q-0.5 0 -0.75 -0.296875q-0.234375 -0.296875 -0.234375 -0.734375q0 -0.4375 0.234375 -0.734375q0.25 -0.3125 0.734375 -0.3125q0.5 0 0.75 0.3125q0.25 0.3125 0.25 0.734375zm4.205078 2.8125l0.046875 1.140625q1.0 -1.34375 2.5625 -1.34375q2.8125 0 2.84375 3.75l0 7.015625l-1.71875 0l0 -6.9375q0 -1.25 -0.421875 -1.765625q-0.40625 -0.53125 -1.234375 -0.53125q-0.640625 0 -1.15625 0.4375q-0.515625 0.421875 -0.828125 1.125l0 7.671875l-1.71875 0l0 -10.5625l1.625 0zm8.802734 10.5625l0 -9.171875l-1.375 0l0 -1.390625l1.375 0l0 -1.21875q0.03125 -1.625 0.8125 -2.515625q0.796875 -0.90625 2.234375 -0.90625q0.515625 0 1.046875 0.15625l-0.09375 1.46875q-0.375 -0.078125 -0.796875 -0.078125q-1.46875 0 -1.46875 2.09375l0 1.0l1.8125 0l0 1.390625l-1.8125 0l0 9.171875l-1.734375 0zm5.203125 -5.765625q0 -2.3125 1.125 -3.65625q1.125 -1.34375 2.953125 -1.34375q1.84375 0 2.953125 1.3125q1.125 1.3125 1.15625 3.5625l0 1.109375q0 2.296875 -1.125 3.640625q-1.109375 1.34375 -2.96875 1.34375q-1.828125 0 -2.9375 -1.296875q-1.109375 -1.3125 -1.15625 -3.53125l0 -1.140625zm1.734375 0.984375q0 1.640625 0.640625 2.578125q0.640625 0.921875 1.71875 0.921875q2.296875 0 2.359375 -3.296875l0 -1.1875q0 -1.625 -0.65625 -2.5625q-0.640625 -0.953125 -1.71875 -0.953125q-1.0625 0 -1.703125 0.953125q-0.640625 0.9375 -0.640625 2.546875l0 1.0zm9.1484375 6.0l-1.46875 0l5.0 -15.4375l1.453125 0l-4.984375 15.4375zm9.927734 -3.84375l2.015625 -7.9375l1.75 0l-3.140625 10.5625l-1.28125 0l-3.171875 -10.5625l1.75 0l2.078125 7.9375zm10.5703125 2.625l-1.75 0l0 -12.046875l-2.984375 1.34375l0 -1.640625l4.453125 -1.9375l0.28125 0l0 14.28125zm5.341797 1.21875l-1.46875 0l5.0 -15.4375l1.453125 0l-4.984375 15.4375zm9.927734 -3.84375l2.015625 -7.9375l1.75 0l-3.140625 10.5625l-1.28125 0l-3.171875 -10.5625l1.75 0l2.078125 7.9375zm11.0078125 2.625q-0.15625 -0.34375 -0.234375 -1.15625q-0.90625 1.359375 -2.34375 1.359375q-1.4375 0 -2.25 -0.8125q-0.796875 -0.8125 -0.796875 -2.265625q0 -1.625 1.09375 -2.5625q1.09375 -0.953125 3.0 -0.96875l1.265625 0l0 -1.125q0 -0.953125 -0.421875 -1.34375q-0.40625 -0.40625 -1.265625 -0.40625q-0.78125 0 -1.28125 0.46875q-0.484375 0.46875 -0.484375 1.171875l-1.71875 0q0 -0.8125 0.46875 -1.546875q0.484375 -0.734375 1.296875 -1.15625q0.8125 -0.421875 1.796875 -0.421875q1.625 0 2.46875 0.8125q0.84375 0.796875 0.859375 2.34375l0 5.328125q0.015625 1.21875 0.34375 2.125l0 0.15625l-1.796875 0zm-2.3125 -1.375q0.640625 0 1.21875 -0.34375q0.578125 -0.359375 0.828125 -0.890625l0 -2.515625l-0.96875 0q-1.234375 0.015625 -1.953125 0.546875q-0.703125 0.53125 -0.703125 1.484375q0 0.90625 0.359375 1.3125q0.359375 0.40625 1.21875 0.40625zm10.814453 -7.578125q-0.359375 -0.0625 -0.78125 -0.0625q-1.328125 0 -1.859375 1.453125l0 7.5625l-1.71875 0l0 -10.5625l1.671875 0l0.03125 1.0625q0.6875 -1.265625 1.96875 -1.265625q0.40625 0 0.671875 0.140625l0.015625 1.671875zm3.5839844 8.953125l-1.734375 0l0 -10.5625l1.734375 0l0 10.5625zm0.140625 -13.375q0 0.4375 -0.25 0.734375q-0.25 0.296875 -0.734375 0.296875q-0.5 0 -0.75 -0.296875q-0.234375 -0.296875 -0.234375 -0.734375q0 -0.4375 0.234375 -0.734375q0.25 -0.3125 0.734375 -0.3125q0.5 0 0.75 0.3125q0.25 0.3125 0.25 0.734375zm8.017578 13.375q-0.15625 -0.34375 -0.234375 -1.15625q-0.90625 1.359375 -2.34375 1.359375q-1.4375 0 -2.25 -0.8125q-0.796875 -0.8125 -0.796875 -2.265625q0 -1.625 1.09375 -2.5625q1.09375 -0.953125 3.0 -0.96875l1.265625 0l0 -1.125q0 -0.953125 -0.421875 -1.34375q-0.40625 -0.40625 -1.265625 -0.40625q-0.78125 0 -1.28125 0.46875q-0.484375 0.46875 -0.484375 1.171875l-1.71875 0q0 -0.8125 0.46875 -1.546875q0.484375 -0.734375 1.296875 -1.15625q0.8125 -0.421875 1.796875 -0.421875q1.625 0 2.46875 0.8125q0.84375 0.796875 0.859375 2.34375l0 5.328125q0.015625 1.21875 0.34375 2.125l0 0.15625l-1.796875 0zm-2.3125 -1.375q0.640625 0 1.21875 -0.34375q0.578125 -0.359375 0.828125 -0.890625l0 -2.515625l-0.96875 0q-1.234375 0.015625 -1.953125 0.546875q-0.703125 0.53125 -0.703125 1.484375q0 0.90625 0.359375 1.3125q0.359375 0.40625 1.21875 0.40625zm8.080078 -9.1875l0.046875 1.140625q1.0 -1.34375 2.5625 -1.34375q2.8125 0 2.84375 3.75l0 7.015625l-1.71875 0l0 -6.9375q0 -1.25 -0.421875 -1.765625q-0.40625 -0.53125 -1.234375 -0.53125q-0.640625 0 -1.15625 0.4375q-0.515625 0.421875 -0.828125 1.125l0 7.671875l-1.71875 0l0 -10.5625l1.625 0zm10.318359 -2.5625l0 2.5625l1.578125 0l0 1.390625l-1.578125 0l0 6.546875q0 0.625 0.203125 0.953125q0.203125 0.328125 0.703125 0.328125q0.34375 0 0.6875 -0.125l-0.015625 1.46875q-0.59375 0.203125 -1.203125 0.203125q-1.03125 0 -1.5625 -0.734375q-0.53125 -0.734375 -0.53125 -2.078125l0 -6.5625l-1.625 0l0 -1.390625l1.625 0l0 -2.5625l1.71875 0zm4.111328 14.34375l-1.46875 0l5.0 -15.4375l1.453125 0l-4.984375 15.4375z" fill-rule="nonzero"></path><path stroke="#1155cc" stroke-width="1.5999999046325684" stroke-linejoin="bevel" stroke-linecap="butt" d="m165.48006 302.66483l258.6914 0" fill-rule="nonzero"></path><path fill="#ff0000" d="m428.99957 297.10623q1.203125 0 1.21875 -1.5625l2.59375 0q-0.015625 1.71875 -1.0625 2.796875q-1.046875 1.0625 -2.6875 1.0625q-2.046875 0 -3.125 -1.265625q-1.078125 -1.28125 -1.09375 -3.75l0 -0.84375q0 -2.484375 1.0625 -3.796875q1.0625 -1.3125 3.125 -1.3125q1.75 0 2.75 1.078125q1.015625 1.078125 1.03125 3.0625l-2.59375 0q-0.015625 -0.890625 -0.296875 -1.359375q-0.28125 -0.484375 -0.9375 -0.484375q-0.71875 0 -1.03125 0.515625q-0.3125 0.515625 -0.328125 1.984375l0 1.078125q0 1.28125 0.125 1.796875q0.125 0.515625 0.40625 0.765625q0.296875 0.234375 0.84375 0.234375zm8.074219 -7.546875q0.890625 -1.125 2.203125 -1.125q1.453125 0 2.203125 1.015625q0.75 1.015625 0.765625 3.03125l0 6.71875l-2.78125 0l0 -6.6875q0 -0.9375 -0.296875 -1.34375q-0.28125 -0.421875 -0.921875 -0.421875q-0.75 0 -1.171875 0.703125l0 7.75l-2.765625 0l0 -15.0l2.765625 0l0 5.359375zm12.359375 1.734375l-0.921875 -0.078125q-1.125 0 -1.53125 1.0l0 6.984375l-2.765625 0l0 -10.5625l2.609375 0l0.078125 1.140625q0.65625 -1.34375 1.796875 -1.34375q0.46875 0 0.765625 0.125l-0.03125 2.734375zm7.4277344 7.90625l-2.78125 0l0 -10.859375l-2.703125 1.046875l0 -2.3125l5.1875 -2.109375l0.296875 0l0 14.234375zm4.3359375 -1.40625q0 -0.671875 0.4375 -1.09375q0.453125 -0.4375 1.15625 -0.4375q0.703125 0 1.15625 0.4375q0.453125 0.421875 0.453125 1.09375q0 0.6875 -0.46875 1.109375q-0.453125 0.40625 -1.140625 0.40625q-0.6875 0 -1.140625 -0.421875q-0.453125 -0.421875 -0.453125 -1.09375zm0 -8.0q0 -0.671875 0.4375 -1.09375q0.453125 -0.4375 1.15625 -0.4375q0.703125 0 1.15625 0.4375q0.453125 0.421875 0.453125 1.09375q0 0.6875 -0.46875 1.109375q-0.453125 0.40625 -1.140625 0.40625q-0.6875 0 -1.140625 -0.421875q-0.453125 -0.421875 -0.453125 -1.09375zm4.9257812 3.796875q0 -2.59375 0.9375 -3.875q0.9375 -1.28125 2.625 -1.28125q1.4375 0 2.21875 1.140625l0.109375 -0.9375l2.484375 0l0 10.5625q0 2.015625 -1.140625 3.078125q-1.125 1.078125 -3.234375 1.078125q-0.875 0 -1.828125 -0.34375q-0.953125 -0.34375 -1.421875 -0.875l0.921875 -1.921875q0.390625 0.40625 1.015625 0.65625q0.625 0.265625 1.1875 0.265625q0.921875 0 1.328125 -0.4375q0.40625 -0.4375 0.421875 -1.4375l0 -0.90625q-0.796875 1.046875 -2.0625 1.046875q-1.6875 0 -2.625 -1.3125q-0.921875 -1.328125 -0.9375 -3.71875l0 -0.78125zm2.765625 0.703125q0 1.453125 0.375 2.125q0.390625 0.671875 1.21875 0.671875q0.84375 0 1.265625 -0.609375l0 -5.0625q-0.4375 -0.671875 -1.25 -0.671875q-0.8125 0 -1.21875 0.6875q-0.390625 0.671875 -0.390625 2.15625l0 0.703125zm7.8554688 3.5q0 -0.671875 0.4375 -1.09375q0.453125 -0.4375 1.15625 -0.4375q0.703125 0 1.15625 0.4375q0.453125 0.421875 0.453125 1.09375q0 0.6875 -0.46875 1.109375q-0.453125 0.40625 -1.140625 0.40625q-0.6875 0 -1.140625 -0.421875q-0.453125 -0.421875 -0.453125 -1.09375zm7.9765625 -6.96875l1.34375 0q0.75 0 1.109375 -0.53125q0.359375 -0.53125 0.359375 -1.421875q0 -0.84375 -0.375 -1.3125q-0.359375 -0.484375 -0.96875 -0.484375q-0.578125 0 -0.953125 0.453125q-0.359375 0.453125 -0.359375 1.140625l-2.765625 0q0 -1.125 0.515625 -2.0q0.515625 -0.890625 1.4375 -1.390625q0.921875 -0.5 2.046875 -0.5q1.953125 0 3.0625 1.09375q1.125 1.078125 1.125 2.96875q0 0.96875 -0.515625 1.796875q-0.5 0.8125 -1.3125 1.25q1.0 0.4375 1.484375 1.296875q0.5 0.859375 0.5 2.03125q0 1.890625 -1.203125 3.046875q-1.203125 1.140625 -3.171875 1.140625q-1.8125 0 -2.953125 -1.125q-1.140625 -1.140625 -1.140625 -2.96875l2.765625 0q0 0.75 0.390625 1.28125q0.40625 0.515625 1.015625 0.515625q0.71875 0 1.125 -0.53125q0.421875 -0.53125 0.421875 -1.40625q0 -2.109375 -1.625 -2.109375l-1.359375 0l0 -2.234375zm7.9453125 1.375l0.703125 -7.21875l6.875 0l0 2.359375l-4.609375 0l-0.265625 3.046875q0.8125 -0.53125 1.65625 -0.53125q1.75 0 2.703125 1.25q0.953125 1.25 0.953125 3.53125q0 2.140625 -1.140625 3.453125q-1.125 1.3125 -3.015625 1.3125q-1.125 0 -2.078125 -0.53125q-0.953125 -0.546875 -1.515625 -1.484375q-0.546875 -0.953125 -0.5625 -2.15625l2.734375 0q0.078125 0.890625 0.4375 1.390625q0.375 0.484375 0.96875 0.484375q0.6875 0 1.046875 -0.65625q0.375 -0.671875 0.375 -1.984375q0 -1.21875 -0.453125 -1.84375q-0.4375 -0.625 -1.234375 -0.625q-0.78125 0 -1.21875 0.53125l-0.171875 0.25l-2.1875 -0.578125zm12.2890625 -1.375l1.34375 0q0.75 0 1.109375 -0.53125q0.359375 -0.53125 0.359375 -1.421875q0 -0.84375 -0.375 -1.3125q-0.359375 -0.484375 -0.96875 -0.484375q-0.578125 0 -0.953125 0.453125q-0.359375 0.453125 -0.359375 1.140625l-2.765625 0q0 -1.125 0.515625 -2.0q0.515625 -0.890625 1.4375 -1.390625q0.921875 -0.5 2.046875 -0.5q1.953125 0 3.0625 1.09375q1.125 1.078125 1.125 2.96875q0 0.96875 -0.515625 1.796875q-0.5 0.8125 -1.3125 1.25q1.0 0.4375 1.484375 1.296875q0.5 0.859375 0.5 2.03125q0 1.890625 -1.203125 3.046875q-1.203125 1.140625 -3.171875 1.140625q-1.8125 0 -2.953125 -1.125q-1.140625 -1.140625 -1.140625 -2.96875l2.765625 0q0 0.75 0.390625 1.28125q0.40625 0.515625 1.015625 0.515625q0.71875 0 1.125 -0.53125q0.421875 -0.53125 0.421875 -1.40625q0 -2.109375 -1.625 -2.109375l-1.359375 0l0 -2.234375zm14.2421875 -5.984375l0 2.34375l-0.15625 0q-1.546875 0 -2.46875 0.921875q-0.90625 0.921875 -1.09375 2.59375q0.875 -1.015625 2.21875 -1.015625q1.546875 0 2.46875 1.3125q0.921875 1.3125 0.921875 3.515625q0 1.390625 -0.53125 2.515625q-0.53125 1.125 -1.484375 1.75q-0.9375 0.625 -2.140625 0.625q-1.9375 0 -3.109375 -1.546875q-1.15625 -1.5625 -1.15625 -4.1875l0 -1.03125q0 -2.359375 0.734375 -4.125q0.734375 -1.765625 2.125 -2.71875q1.390625 -0.953125 3.25 -0.953125l0.421875 0zm-2.375 7.125q-0.515625 0 -0.875 0.328125q-0.359375 0.328125 -0.53125 0.828125l0 0.984375q0 1.515625 0.390625 2.265625q0.40625 0.734375 1.0625 0.734375q0.65625 0 1.0625 -0.71875q0.40625 -0.71875 0.40625 -1.84375q0 -1.140625 -0.421875 -1.859375q-0.40625 -0.71875 -1.09375 -0.71875zm14.2421875 -5.390625l-4.484375 12.625l-2.921875 0l4.515625 -11.921875l-5.703125 0l0 -2.296875l8.59375 0l0 1.59375zm11.6640625 11.015625q-0.828125 0.890625 -2.046875 1.359375q-1.203125 0.453125 -2.625 0.453125q-2.453125 0 -3.8125 -1.515625q-1.359375 -1.53125 -1.40625 -4.4375l0 -2.546875q0 -2.9375 1.28125 -4.53125q1.296875 -1.59375 3.75 -1.59375q2.3125 0 3.484375 1.15625q1.1875 1.140625 1.375 3.578125l-2.796875 0q-0.109375 -1.359375 -0.5625 -1.84375q-0.453125 -0.5 -1.40625 -0.5q-1.15625 0 -1.6875 0.859375q-0.53125 0.84375 -0.546875 2.6875l0 2.578125q0 1.953125 0.578125 2.84375q0.578125 0.875 1.90625 0.875q0.859375 0 1.375 -0.34375l0.265625 -0.171875l0 -2.609375l-2.015625 0l0 -2.171875l4.890625 0l0 5.875zm6.5742188 -4.453125l-4.5 -1.96875l0 -2.734375l7.203125 3.5625l0 2.3125l-7.203125 3.578125l0 -2.734375l4.5 -2.015625zm11.332031 3.15625l-3.921875 0l-0.765625 2.90625l-3.03125 0l4.4375 -14.21875l2.625 0l4.484375 14.21875l-3.078125 0l-0.75 -2.90625zm-3.296875 -2.390625l2.65625 0l-1.328125 -5.078125l-1.328125 5.078125z" fill-rule="nonzero"></path><path stroke="#ff0000" stroke-width="1.5999999046325684" stroke-linejoin="bevel" stroke-linecap="butt" d="m424.17145 302.66483l140.46875 0" fill-rule="nonzero"></path><path fill="#000000" d="m135.94598 325.76248q1.03125 0 2.015625 0.53125q0.984375 0.515625 1.53125 1.5q0.546875 0.984375 0.546875 2.046875q0 1.6875 -1.203125 2.890625q-1.1875 1.203125 -2.875 1.203125q-1.703125 0 -2.90625 -1.203125q-1.1875 -1.203125 -1.1875 -2.890625q0 -1.0625 0.546875 -2.046875q0.546875 -0.984375 1.53125 -1.5q0.984375 -0.53125 2.0 -0.53125zm0.015625 0.703125q-0.875 0 -1.6875 0.4375q-0.796875 0.421875 -1.25 1.25q-0.453125 0.8125 -0.453125 1.6875q0 1.390625 0.984375 2.390625q1.0 1.0 2.40625 1.0q1.390625 0 2.375 -1.0q1.0 -1.0 1.0 -2.390625q0 -0.875 -0.46875 -1.6875q-0.453125 -0.828125 -1.265625 -1.25q-0.796875 -0.4375 -1.640625 -0.4375z" fill-rule="nonzero"></path><path fill="#1155cc" d="m168.49568 325.7156q0.984375 -1.28125 2.515625 -1.28125q2.8125 0 2.84375 3.75l0 7.015625l-1.71875 0l0 -6.9375q0 -1.25 -0.421875 -1.765625q-0.40625 -0.53125 -1.234375 -0.53125q-0.640625 0 -1.15625 0.4375q-0.515625 0.421875 -0.828125 1.125l0 7.671875l-1.71875 0l0 -15.0l1.71875 0l0 5.515625zm10.205078 -3.640625l0 2.5625l1.578125 0l0 1.390625l-1.578125 0l0 6.546875q0 0.625 0.203125 0.953125q0.203125 0.328125 0.703125 0.328125q0.34375 0 0.6875 -0.125l-0.015625 1.46875q-0.59375 0.203125 -1.203125 0.203125q-1.03125 0 -1.5625 -0.734375q-0.53125 -0.734375 -0.53125 -2.078125l0 -6.5625l-1.625 0l0 -1.390625l1.625 0l0 -2.5625l1.71875 0zm5.908203 0l0 2.5625l1.578125 0l0 1.390625l-1.578125 0l0 6.546875q0 0.625 0.203125 0.953125q0.203125 0.328125 0.703125 0.328125q0.34375 0 0.6875 -0.125l-0.015625 1.46875q-0.59375 0.203125 -1.203125 0.203125q-1.03125 0 -1.5625 -0.734375q-0.53125 -0.734375 -0.53125 -2.078125l0 -6.5625l-1.625 0l0 -1.390625l1.625 0l0 -2.5625l1.71875 0zm11.267578 8.34375q0 2.515625 -0.90625 3.75q-0.890625 1.234375 -2.546875 1.234375q-1.59375 0 -2.453125 -1.203125l0 5.0625l-1.71875 0l0 -14.625l1.5625 0l0.09375 1.171875q0.859375 -1.375 2.484375 -1.375q1.734375 0 2.59375 1.21875q0.859375 1.203125 0.890625 3.625l0 1.140625zm-1.71875 -0.984375q0 -1.78125 -0.546875 -2.625q-0.546875 -0.84375 -1.75 -0.84375q-1.25 0 -1.890625 1.25l0 5.5q0.640625 1.203125 1.90625 1.203125q1.171875 0 1.71875 -0.84375q0.5625 -0.84375 0.5625 -2.578125l0 -1.0625zm4.0664062 4.8125q0 -0.46875 0.28125 -0.78125q0.28125 -0.3125 0.828125 -0.3125q0.5625 0 0.84375 0.3125q0.296875 0.3125 0.296875 0.78125q0 0.453125 -0.296875 0.765625q-0.28125 0.296875 -0.84375 0.296875q-0.546875 0 -0.828125 -0.296875q-0.28125 -0.3125 -0.28125 -0.765625zm0 -9.0q0 -0.46875 0.28125 -0.78125q0.28125 -0.3125 0.828125 -0.3125q0.5625 0 0.84375 0.3125q0.296875 0.3125 0.296875 0.78125q0 0.453125 -0.296875 0.765625q-0.28125 0.296875 -0.84375 0.296875q-0.546875 0 -0.828125 -0.296875q-0.28125 -0.3125 -0.28125 -0.765625zm5.0273438 11.171875l-1.46875 0l5.0 -15.4375l1.453125 0l-4.984375 15.4375zm7.4121094 0l-1.46875 0l5.0 -15.4375l1.453125 0l-4.984375 15.4375zm8.568359 -11.78125l0.03125 0.96875q0.96875 -1.171875 2.5625 -1.171875q1.765625 0 2.46875 1.53125q0.984375 -1.53125 2.765625 -1.53125q2.921875 0 2.984375 3.640625l0 7.125l-1.71875 0l0 -6.953125q0 -1.15625 -0.40625 -1.71875q-0.40625 -0.5625 -1.390625 -0.5625q-0.78125 0 -1.265625 0.609375q-0.484375 0.609375 -0.5625 1.546875l0 7.078125l-1.734375 0l0 -7.03125q-0.03125 -2.203125 -1.796875 -2.203125q-1.296875 0 -1.84375 1.3125l0 7.921875l-1.71875 0l0 -10.5625l1.625 0zm16.314453 7.6875l1.921875 -7.6875l1.828125 0l-3.453125 12.0625q-0.390625 1.359375 -1.109375 2.0625q-0.703125 0.703125 -1.609375 0.703125q-0.359375 0 -0.90625 -0.15625l0 -1.46875l0.375 0.046875q0.765625 0 1.1875 -0.359375q0.421875 -0.359375 0.6875 -1.234375l0.34375 -1.1875l-3.109375 -10.46875l1.890625 0l1.953125 7.6875zm8.423828 0.25l2.015625 -7.9375l1.75 0l-3.140625 10.5625l-1.28125 0l-3.171875 -10.5625l1.75 0l2.078125 7.9375zm11.0078125 2.625q-0.15625 -0.34375 -0.234375 -1.15625q-0.90625 1.359375 -2.34375 1.359375q-1.4375 0 -2.25 -0.8125q-0.796875 -0.8125 -0.796875 -2.265625q0 -1.625 1.09375 -2.5625q1.09375 -0.953125 3.0 -0.96875l1.265625 0l0 -1.125q0 -0.953125 -0.421875 -1.34375q-0.40625 -0.40625 -1.265625 -0.40625q-0.78125 0 -1.28125 0.46875q-0.484375 0.46875 -0.484375 1.171875l-1.71875 0q0 -0.8125 0.46875 -1.546875q0.484375 -0.734375 1.296875 -1.15625q0.8125 -0.421875 1.796875 -0.421875q1.625 0 2.46875 0.8125q0.84373474 0.796875 0.85935974 2.34375l0 5.328125q0.015625 1.21875 0.34375 2.125l0 0.15625l-1.7968597 0zm-2.3125 -1.375q0.640625 0 1.21875 -0.34375q0.578125 -0.359375 0.828125 -0.890625l0 -2.515625l-0.96875 0q-1.234375 0.015625 -1.953125 0.546875q-0.703125 0.53125 -0.703125 1.484375q0 0.90625 0.359375 1.3125q0.359375 0.40625 1.21875 0.40625zm10.814438 -7.578125q-0.359375 -0.0625 -0.78125 -0.0625q-1.328125 0 -1.859375 1.453125l0 7.5625l-1.71875 0l0 -10.5625l1.671875 0l0.03125 1.0625q0.6875 -1.265625 1.96875 -1.265625q0.40625 0 0.671875 0.140625l0.015625 1.671875zm3.5839844 8.953125l-1.734375 0l0 -10.5625l1.734375 0l0 10.5625zm0.140625 -13.375q0 0.4375 -0.25 0.734375q-0.25 0.296875 -0.734375 0.296875q-0.5 0 -0.75 -0.296875q-0.234375 -0.296875 -0.234375 -0.734375q0 -0.4375 0.234375 -0.734375q0.25 -0.3125 0.734375 -0.3125q0.5 0 0.75 0.3125q0.25 0.3125 0.25 0.734375zm8.017578 13.375q-0.15625 -0.34375 -0.234375 -1.15625q-0.90625 1.359375 -2.34375 1.359375q-1.4375 0 -2.25 -0.8125q-0.796875 -0.8125 -0.796875 -2.265625q0 -1.625 1.09375 -2.5625q1.09375 -0.953125 3.0 -0.96875l1.265625 0l0 -1.125q0 -0.953125 -0.421875 -1.34375q-0.40625 -0.40625 -1.265625 -0.40625q-0.78125 0 -1.28125 0.46875q-0.484375 0.46875 -0.484375 1.171875l-1.71875 0q0 -0.8125 0.46875 -1.546875q0.484375 -0.734375 1.296875 -1.15625q0.8125 -0.421875 1.796875 -0.421875q1.625 0 2.46875 0.8125q0.84375 0.796875 0.859375 2.34375l0 5.328125q0.015625 1.21875 0.34375 2.125l0 0.15625l-1.796875 0zm-2.3125 -1.375q0.640625 0 1.21875 -0.34375q0.578125 -0.359375 0.828125 -0.890625l0 -2.515625l-0.96875 0q-1.234375 0.015625 -1.953125 0.546875q-0.703125 0.53125 -0.703125 1.484375q0 0.90625 0.359375 1.3125q0.359375 0.40625 1.21875 0.40625zm8.080078 -9.1875l0.046875 1.140625q1.0 -1.34375 2.5625 -1.34375q2.8125 0 2.84375 3.75l0 7.015625l-1.71875 0l0 -6.9375q0 -1.25 -0.421875 -1.765625q-0.40625 -0.53125 -1.234375 -0.53125q-0.640625 0 -1.15625 0.4375q-0.515625 0.421875 -0.828125 1.125l0 7.671875l-1.71875 0l0 -10.5625l1.625 0zm10.318359 -2.5625l0 2.5625l1.578125 0l0 1.390625l-1.578125 0l0 6.546875q0 0.625 0.203125 0.953125q0.203125 0.328125 0.703125 0.328125q0.34375 0 0.6875 -0.125l-0.015625 1.46875q-0.59375 0.203125 -1.203125 0.203125q-1.03125 0 -1.5625 -0.734375q-0.53125 -0.734375 -0.53125 -2.078125l0 -6.5625l-1.625 0l0 -1.390625l1.625 0l0 -2.5625l1.71875 0zm3.7519531 12.171875q0 -0.46875 0.28125 -0.78125q0.28125 -0.3125 0.828125 -0.3125q0.5625 0 0.84375 0.3125q0.296875 0.3125 0.296875 0.78125q0 0.453125 -0.296875 0.765625q-0.28125 0.296875 -0.84375 0.296875q-0.546875 0 -0.828125 -0.296875q-0.28125 -0.3125 -0.28125 -0.765625zm7.013672 0.953125l-1.734375 0l0 -10.5625l1.734375 0l0 10.5625zm0.140625 -13.375q0 0.4375 -0.25 0.734375q-0.25 0.296875 -0.734375 0.296875q-0.5 0 -0.75 -0.296875q-0.234375 -0.296875 -0.234375 -0.734375q0 -0.4375 0.234375 -0.734375q0.25 -0.3125 0.734375 -0.3125q0.5 0 0.75 0.3125q0.25 0.3125 0.25 0.734375zm4.205078 2.8125l0.046875 1.140625q1.0 -1.34375 2.5625 -1.34375q2.8125 0 2.84375 3.75l0 7.015625l-1.71875 0l0 -6.9375q0 -1.25 -0.421875 -1.765625q-0.40625 -0.53125 -1.234375 -0.53125q-0.640625 0 -1.15625 0.4375q-0.515625 0.421875 -0.828125 1.125l0 7.671875l-1.71875 0l0 -10.5625l1.625 0zm8.802734 10.5625l0 -9.171875l-1.375 0l0 -1.390625l1.375 0l0 -1.21875q0.03125 -1.625 0.8125 -2.515625q0.796875 -0.90625 2.234375 -0.90625q0.515625 0 1.046875 0.15625l-0.09375 1.46875q-0.375 -0.078125 -0.796875 -0.078125q-1.46875 0 -1.46875 2.09375l0 1.0l1.8125 0l0 1.390625l-1.8125 0l0 9.171875l-1.734375 0zm5.203125 -5.765625q0 -2.3125 1.125 -3.65625q1.125 -1.34375 2.953125 -1.34375q1.84375 0 2.953125 1.3125q1.125 1.3125 1.15625 3.5625l0 1.109375q0 2.296875 -1.125 3.640625q-1.109375 1.34375 -2.96875 1.34375q-1.828125 0 -2.9375 -1.296875q-1.109375 -1.3125 -1.15625 -3.53125l0 -1.140625zm1.734375 0.984375q0 1.640625 0.640625 2.578125q0.640625 0.921875 1.71875 0.921875q2.296875 0 2.359375 -3.296875l0 -1.1875q0 -1.625 -0.65625 -2.5625q-0.640625 -0.953125 -1.71875 -0.953125q-1.0625 0 -1.703125 0.953125q-0.640625 0.9375 -0.640625 2.546875l0 1.0zm9.1484375 6.0l-1.46875 0l5.0 -15.4375l1.453125 0l-4.984375 15.4375zm9.927734 -3.84375l2.015625 -7.9375l1.75 0l-3.140625 10.5625l-1.28125 0l-3.171875 -10.5625l1.75 0l2.078125 7.9375zm10.5703125 2.625l-1.75 0l0 -12.046875l-2.984375 1.34375l0 -1.640625l4.453125 -1.9375l0.28125 0l0 14.28125zm5.341797 1.21875l-1.46875 0l5.0 -15.4375l1.453125 0l-4.984375 15.4375zm9.927734 -3.84375l2.015625 -7.9375l1.75 0l-3.140625 10.5625l-1.28125 0l-3.171875 -10.5625l1.75 0l2.078125 7.9375zm11.0078125 2.625q-0.15625 -0.34375 -0.234375 -1.15625q-0.90625 1.359375 -2.34375 1.359375q-1.4375 0 -2.25 -0.8125q-0.796875 -0.8125 -0.796875 -2.265625q0 -1.625 1.09375 -2.5625q1.09375 -0.953125 3.0 -0.96875l1.265625 0l0 -1.125q0 -0.953125 -0.421875 -1.34375q-0.40625 -0.40625 -1.265625 -0.40625q-0.78125 0 -1.28125 0.46875q-0.484375 0.46875 -0.484375 1.171875l-1.71875 0q0 -0.8125 0.46875 -1.546875q0.484375 -0.734375 1.296875 -1.15625q0.8125 -0.421875 1.796875 -0.421875q1.625 0 2.46875 0.8125q0.84375 0.796875 0.859375 2.34375l0 5.328125q0.015625 1.21875 0.34375 2.125l0 0.15625l-1.796875 0zm-2.3125 -1.375q0.640625 0 1.21875 -0.34375q0.578125 -0.359375 0.828125 -0.890625l0 -2.515625l-0.96875 0q-1.234375 0.015625 -1.953125 0.546875q-0.703125 0.53125 -0.703125 1.484375q0 0.90625 0.359375 1.3125q0.359375 0.40625 1.21875 0.40625zm10.814453 -7.578125q-0.359375 -0.0625 -0.78125 -0.0625q-1.328125 0 -1.859375 1.453125l0 7.5625l-1.71875 0l0 -10.5625l1.671875 0l0.03125 1.0625q0.6875 -1.265625 1.96875 -1.265625q0.40625 0 0.671875 0.140625l0.015625 1.671875zm3.5839844 8.953125l-1.734375 0l0 -10.5625l1.734375 0l0 10.5625zm0.140625 -13.375q0 0.4375 -0.25 0.734375q-0.25 0.296875 -0.734375 0.296875q-0.5 0 -0.75 -0.296875q-0.234375 -0.296875 -0.234375 -0.734375q0 -0.4375 0.234375 -0.734375q0.25 -0.3125 0.734375 -0.3125q0.5 0 0.75 0.3125q0.25 0.3125 0.25 0.734375zm8.017578 13.375q-0.15625 -0.34375 -0.234375 -1.15625q-0.90625 1.359375 -2.34375 1.359375q-1.4375 0 -2.25 -0.8125q-0.796875 -0.8125 -0.796875 -2.265625q0 -1.625 1.09375 -2.5625q1.09375 -0.953125 3.0 -0.96875l1.265625 0l0 -1.125q0 -0.953125 -0.421875 -1.34375q-0.40625 -0.40625 -1.265625 -0.40625q-0.78125 0 -1.28125 0.46875q-0.484375 0.46875 -0.484375 1.171875l-1.71875 0q0 -0.8125 0.46875 -1.546875q0.484375 -0.734375 1.296875 -1.15625q0.8125 -0.421875 1.796875 -0.421875q1.625 0 2.46875 0.8125q0.84375 0.796875 0.859375 2.34375l0 5.328125q0.015625 1.21875 0.34375 2.125l0 0.15625l-1.796875 0zm-2.3125 -1.375q0.640625 0 1.21875 -0.34375q0.578125 -0.359375 0.828125 -0.890625l0 -2.515625l-0.96875 0q-1.234375 0.015625 -1.953125 0.546875q-0.703125 0.53125 -0.703125 1.484375q0 0.90625 0.359375 1.3125q0.359375 0.40625 1.21875 0.40625zm8.080078 -9.1875l0.046875 1.140625q1.0 -1.34375 2.5625 -1.34375q2.8125 0 2.84375 3.75l0 7.015625l-1.71875 0l0 -6.9375q0 -1.25 -0.421875 -1.765625q-0.40625 -0.53125 -1.234375 -0.53125q-0.640625 0 -1.15625 0.4375q-0.515625 0.421875 -0.828125 1.125l0 7.671875l-1.71875 0l0 -10.5625l1.625 0zm10.318359 -2.5625l0 2.5625l1.578125 0l0 1.390625l-1.578125 0l0 6.546875q0 0.625 0.203125 0.953125q0.203125 0.328125 0.703125 0.328125q0.34375 0 0.6875 -0.125l-0.015625 1.46875q-0.59375 0.203125 -1.203125 0.203125q-1.03125 0 -1.5625 -0.734375q-0.53125 -0.734375 -0.53125 -2.078125l0 -6.5625l-1.625 0l0 -1.390625l1.625 0l0 -2.5625l1.71875 0zm4.111328 14.34375l-1.46875 0l5.0 -15.4375l1.453125 0l-4.984375 15.4375z" fill-rule="nonzero"></path><path stroke="#1155cc" stroke-width="1.5999999046325684" stroke-linejoin="bevel" stroke-linecap="butt" d="m165.48006 338.66483l258.6914 0" fill-rule="nonzero"></path><path fill="#ff0000" d="m428.99957 333.10623q1.203125 0 1.21875 -1.5625l2.59375 0q-0.015625 1.71875 -1.0625 2.796875q-1.046875 1.0625 -2.6875 1.0625q-2.046875 0 -3.125 -1.265625q-1.078125 -1.28125 -1.09375 -3.75l0 -0.84375q0 -2.484375 1.0625 -3.796875q1.0625 -1.3125 3.125 -1.3125q1.75 0 2.75 1.078125q1.015625 1.078125 1.03125 3.0625l-2.59375 0q-0.015625 -0.890625 -0.296875 -1.359375q-0.28125 -0.484375 -0.9375 -0.484375q-0.71875 0 -1.03125 0.515625q-0.3125 0.515625 -0.328125 1.984375l0 1.078125q0 1.28125 0.125 1.796875q0.125 0.515625 0.40625 0.765625q0.296875 0.234375 0.84375 0.234375zm8.074219 -7.546875q0.890625 -1.125 2.203125 -1.125q1.453125 0 2.203125 1.015625q0.75 1.015625 0.765625 3.03125l0 6.71875l-2.78125 0l0 -6.6875q0 -0.9375 -0.296875 -1.34375q-0.28125 -0.421875 -0.921875 -0.421875q-0.75 0 -1.171875 0.703125l0 7.75l-2.765625 0l0 -15.0l2.765625 0l0 5.359375zm12.359375 1.734375l-0.921875 -0.078125q-1.125 0 -1.53125 1.0l0 6.984375l-2.765625 0l0 -10.5625l2.609375 0l0.078125 1.140625q0.65625 -1.34375 1.796875 -1.34375q0.46875 0 0.765625 0.125l-0.03125 2.734375zm9.677734 -4.71875l-4.484375 12.625l-2.921875 0l4.515625 -11.921875l-5.703125 0l0 -2.296875l8.59375 0l0 1.59375zm2.0859375 11.21875q0 -0.671875 0.4375 -1.09375q0.453125 -0.4375 1.15625 -0.4375q0.703125 0 1.15625 0.4375q0.453125 0.421875 0.453125 1.09375q0 0.6875 -0.46875 1.109375q-0.453125 0.40625 -1.140625 0.40625q-0.6875 0 -1.140625 -0.421875q-0.453125 -0.421875 -0.453125 -1.09375zm0 -8.0q0 -0.671875 0.4375 -1.09375q0.453125 -0.4375 1.15625 -0.4375q0.703125 0 1.15625 0.4375q0.453125 0.421875 0.453125 1.09375q0 0.6875 -0.46875 1.109375q-0.453125 0.40625 -1.140625 0.40625q-0.6875 0 -1.140625 -0.421875q-0.453125 -0.421875 -0.453125 -1.09375zm4.9257812 3.796875q0 -2.59375 0.9375 -3.875q0.9375 -1.28125 2.625 -1.28125q1.4375 0 2.21875 1.140625l0.109375 -0.9375l2.484375 0l0 10.5625q0 2.015625 -1.140625 3.078125q-1.125 1.078125 -3.234375 1.078125q-0.875 0 -1.828125 -0.34375q-0.953125 -0.34375 -1.421875 -0.875l0.921875 -1.921875q0.390625 0.40625 1.015625 0.65625q0.625 0.265625 1.1875 0.265625q0.921875 0 1.328125 -0.4375q0.40625 -0.4375 0.421875 -1.4375l0 -0.90625q-0.796875 1.046875 -2.0625 1.046875q-1.6875 0 -2.625 -1.3125q-0.921875 -1.328125 -0.9375 -3.71875l0 -0.78125zm2.765625 0.703125q0 1.453125 0.375 2.125q0.390625 0.671875 1.21875 0.671875q0.84375 0 1.265625 -0.609375l0 -5.0625q-0.4375 -0.671875 -1.25 -0.671875q-0.8125 0 -1.21875 0.6875q-0.390625 0.671875 -0.390625 2.15625l0 0.703125zm7.8554688 3.5q0 -0.671875 0.4375 -1.09375q0.453125 -0.4375 1.15625 -0.4375q0.703125 0 1.15625 0.4375q0.453125 0.421875 0.453125 1.09375q0 0.6875 -0.46875 1.109375q-0.453125 0.40625 -1.140625 0.40625q-0.6875 0 -1.140625 -0.421875q-0.453125 -0.421875 -0.453125 -1.09375zm5.8046875 -5.59375l0.703125 -7.21875l6.875 0l0 2.359375l-4.609375 0l-0.265625 3.046875q0.8125 -0.53125 1.65625 -0.53125q1.75 0 2.703125 1.25q0.953125 1.25 0.953125 3.53125q0 2.140625 -1.140625 3.453125q-1.125 1.3125 -3.015625 1.3125q-1.125 0 -2.078125 -0.53125q-0.953125 -0.546875 -1.515625 -1.484375q-0.546875 -0.953125 -0.5625 -2.15625l2.734375 0q0.078125 0.890625 0.4375 1.390625q0.375 0.484375 0.96875 0.484375q0.6875 0 1.046875 -0.65625q0.375 -0.671875 0.375 -1.984375q0 -1.21875 -0.453125 -1.84375q-0.4375 -0.625 -1.234375 -0.625q-0.78125 0 -1.21875 0.53125l-0.171875 0.25l-2.1875 -0.578125zm10.1171875 0l0.703125 -7.21875l6.875 0l0 2.359375l-4.609375 0l-0.265625 3.046875q0.8125 -0.53125 1.65625 -0.53125q1.75 0 2.703125 1.25q0.953125 1.25 0.953125 3.53125q0 2.140625 -1.140625 3.453125q-1.125 1.3125 -3.015625 1.3125q-1.125 0 -2.078125 -0.53125q-0.953125 -0.546875 -1.515625 -1.484375q-0.546875 -0.953125 -0.5625 -2.15625l2.734375 0q0.078125 0.890625 0.4375 1.390625q0.375 0.484375 0.96875 0.484375q0.6875 0 1.046875 -0.65625q0.375 -0.671875 0.375 -1.984375q0 -1.21875 -0.453125 -1.84375q-0.4375 -0.625 -1.234375 -0.625q-0.78125 0 -1.21875 0.53125l-0.171875 0.25l-2.1875 -0.578125zm18.210938 7.0l-8.390625 0l0 -1.953125l3.859375 -4.890625q0.734375 -1.015625 1.078125 -1.78125q0.34375 -0.765625 0.34375 -1.46875q0 -0.953125 -0.328125 -1.484375q-0.328125 -0.546875 -0.9375 -0.546875q-0.671875 0 -1.078125 0.625q-0.390625 0.625 -0.390625 1.765625l-2.78125 0q0 -1.3125 0.546875 -2.390625q0.546875 -1.09375 1.515625 -1.6875q0.984375 -0.609375 2.234375 -0.609375q1.90625 0 2.953125 1.0625q1.046875 1.046875 1.046875 2.984375q0 1.1875 -0.578125 2.4375q-0.578125 1.234375 -2.109375 3.03125l-1.828125 2.609375l4.84375 0l0 2.296875zm9.0234375 -5.375l1.203125 0l0 2.296875l-1.203125 0l0 3.078125l-2.765625 0l0 -3.078125l-4.703125 0l-0.140625 -1.78125l4.828125 -9.359375l2.78125 0l0 8.84375zm-4.921875 0l2.15625 0l0 -4.75l-0.0625 0.109375l-2.09375 4.640625zm13.8359375 5.375l-2.78125 0l0 -10.859375l-2.703125 1.046875l0 -2.3125l5.1875 -2.109375l0.296875 0l0 14.234375zm12.3671875 -12.625l-4.484375 12.625l-2.921875 0l4.515625 -11.921875l-5.703125 0l0 -2.296875l8.59375 0l0 1.59375zm10.0390625 6.75q0 2.9375 -1.078125 4.515625q-1.0625 1.5625 -3.046875 1.5625q-1.953125 0 -3.03125 -1.515625q-1.0625 -1.53125 -1.109375 -4.359375l0 -2.6875q0 -2.9375 1.0625 -4.5q1.078125 -1.5625 3.0625 -1.5625q2.0 0 3.0625 1.546875q1.0625 1.546875 1.078125 4.40625l0 2.59375zm-2.765625 -2.890625q0 -1.671875 -0.34375 -2.515625q-0.328125 -0.84375 -1.03125 -0.84375q-1.3125 0 -1.359375 3.078125l0 3.546875q0 1.71875 0.328125 2.5625q0.34375 0.84375 1.046875 0.84375q0.6875 0 1.0 -0.78125q0.328125 -0.796875 0.359375 -2.421875l0 -3.46875zm12.9609375 -3.859375l-4.484375 12.625l-2.921875 0l4.515625 -11.921875l-5.703125 0l0 -2.296875l8.59375 0l0 1.59375zm11.6640625 11.015625q-0.828125 0.890625 -2.046875 1.359375q-1.203125 0.453125 -2.625 0.453125q-2.453125 0 -3.8125 -1.515625q-1.359375 -1.53125 -1.40625 -4.4375l0 -2.546875q0 -2.9375 1.28125 -4.53125q1.296875 -1.59375 3.75 -1.59375q2.3125 0 3.484375 1.15625q1.1875 1.140625 1.375 3.578125l-2.796875 0q-0.109375 -1.359375 -0.5625 -1.84375q-0.453125 -0.5 -1.40625 -0.5q-1.15625 0 -1.6875 0.859375q-0.53125 0.84375 -0.546875 2.6875l0 2.578125q0 1.953125 0.578125 2.84375q0.578125 0.875 1.90625 0.875q0.859375 0 1.375 -0.34375l0.265625 -0.171875l0 -2.609375l-2.015625 0l0 -2.171875l4.890625 0l0 5.875zm6.5742188 -4.453125l-4.5 -1.96875l0 -2.734375l7.203125 3.5625l0 2.3125l-7.203125 3.578125l0 -2.734375l4.5 -2.015625zm13.753906 -5.765625l-3.515625 0l0 11.828125l-2.890625 0l0 -11.828125l-3.453125 0l0 -2.390625l9.859375 0l0 2.390625z" fill-rule="nonzero"></path><path stroke="#ff0000" stroke-width="1.5999999046325684" stroke-linejoin="bevel" stroke-linecap="butt" d="m424.17145 338.66483l169.73633 0" fill-rule="nonzero"></path><a xlink:href="http://www.google.com/url?q=http%3A%2F%2Fmyvariant.info%2Fv1%2Fvariant%2Fchr1%3Ag.35367G%253EA&amp;sa=D&amp;sntz=1&amp;usg=AFQjCNFD3VGAucTlpL3PtGpBltjW4OcCCQ" target="_blank"><path fill="transparent" fill-opacity="0" d="m165.48006 304.0906l0 -23.453125l258.6914 0l0 23.453125z" fill-rule="evenodd"></path></a><a xlink:href="http://www.google.com/url?q=http%3A%2F%2Fmyvariant.info%2Fv1%2Fvariant%2Fchr1%3Ag.35367G%253EA&amp;sa=D&amp;sntz=1&amp;usg=AFQjCNFD3VGAucTlpL3PtGpBltjW4OcCCQ" target="_blank"><path fill="transparent" fill-opacity="0" d="m424.17145 304.0906l0 -23.453125l140.46875 0l0 23.453125zm140.46875 0l0 -23.453125l0 0l0 23.453125z" fill-rule="evenodd"></path></a><a xlink:href="http://www.google.com/url?q=http%3A%2F%2Fmyvariant.info%2Fv1%2Fvariant%2Fchr1%3Ag.35367G%253EA&amp;sa=D&amp;sntz=1&amp;usg=AFQjCNFD3VGAucTlpL3PtGpBltjW4OcCCQ" target="_blank"><path fill="transparent" fill-opacity="0" d="m564.6402 304.0906l0 -23.453125l0 0l0 23.453125z" fill-rule="evenodd"></path></a><a xlink:href="http://www.google.com/url?q=http%3A%2F%2Fmyvariant.info%2Fv1%2Fvariant%2Fchr7%3Ag.55241707G%253ET&amp;sa=D&amp;sntz=1&amp;usg=AFQjCNHD7qBrZ5FXLRVgWNF-Fm8sZ4cG-Q" target="_blank"><path fill="transparent" fill-opacity="0" d="m165.48006 340.0906l0 -23.453125l258.6914 0l0 23.453125z" fill-rule="evenodd"></path></a><a xlink:href="http://www.google.com/url?q=http%3A%2F%2Fmyvariant.info%2Fv1%2Fvariant%2Fchr7%3Ag.55241707G%253ET&amp;sa=D&amp;sntz=1&amp;usg=AFQjCNHD7qBrZ5FXLRVgWNF-Fm8sZ4cG-Q" target="_blank"><path fill="transparent" fill-opacity="0" d="m424.17145 340.0906l0 -23.453125l169.73633 0l0 23.453125zm169.73633 0l0 -23.453125l0 0l0 23.453125z" fill-rule="evenodd"></path></a><a xlink:href="http://www.google.com/url?q=http%3A%2F%2Fmyvariant.info%2Fv1%2Fvariant%2Fchr7%3Ag.55241707G%253ET&amp;sa=D&amp;sntz=1&amp;usg=AFQjCNHD7qBrZ5FXLRVgWNF-Fm8sZ4cG-Q" target="_blank"><path fill="transparent" fill-opacity="0" d="m593.9078 339.10623l0 -18.75l0 0l0 18.75z" fill-rule="evenodd"></path></a><path fill="#000000" fill-opacity="0.0" d="m60.480053 19.222256l1088.6299 0l0 80.0l-1088.6299 0z" fill-rule="nonzero"></path><path fill="#000000" d="m406.79498 65.83351l-3.421875 0l0 12.46875l-6.890625 0l0 -34.125004l11.0 0q5.171875 0 8.0 2.6875q2.828125 2.671875 2.828125 7.625q0 6.796875 -4.953125 9.515629l5.984375 13.96875l0 0.328125l-7.40625 0l-5.140625 -12.46875zm-3.421875 -5.750004l3.921875 0q2.0625 0 3.09375 -1.359375q1.03125 -1.375 1.03125 -3.671875q0 -5.140625 -4.015625 -5.140625l-4.03125 0l0 10.171875zm29.578125 18.687504q-5.109375 0 -7.96875 -3.046875q-2.859375 -3.046875 -2.859375 -8.71875l0 -2.015625q0 -6.000004 2.625 -9.250004q2.625 -3.265625 7.53125 -3.265625q4.78125 0 7.1875 3.0625q2.421875 3.046875 2.46875 9.046879l0 3.265625l-13.203125 0q0.140625 2.8125 1.234375 4.109375q1.109375 1.296875 3.40625 1.296875q3.328125 0 5.5625 -2.265625l2.59375 4.0q-1.21875 1.6875 -3.546875 2.734375q-2.3125 1.046875 -5.03125 1.046875zm-4.171875 -15.562504l6.640625 0l0 -0.609375q-0.046875 -2.28125 -0.75 -3.453125q-0.703125 -1.171875 -2.4375 -1.171875q-1.734375 0 -2.53125 1.25q-0.78125 1.234375 -0.921875 3.984375zm24.609375 -16.5l0 6.234375l3.40625 0l0 4.984375l-3.40625 0l0 12.593754q0 1.5 0.40625 2.0625q0.421875 0.5625 1.59375 0.5625q0.953125 0 1.5625 -0.171875l-0.046875 5.15625q-1.6875 0.640625 -3.65625 0.640625q-6.421875 0 -6.484375 -7.359375l0 -13.484379l-2.9375 0l0 -4.984375l2.9375 0l0 -6.234375l6.625 0zm19.554688 12.625l-2.203125 -0.1875q-2.71875 0 -3.6875 2.390625l0 16.765629l-6.65625 0l0 -25.359379l6.265625 0l0.1875 2.734375q1.5625 -3.203125 4.328125 -3.203125q1.125 0 1.828125 0.296875l-0.0625 6.5625zm10.3515625 18.968754l-6.65625 0l0 -25.359379l6.65625 0l0 25.359379zm-6.953125 -31.921879q0 -1.546875 0.984375 -2.53125q0.984375 -0.984375 2.625 -0.984375q1.640625 0 2.625 0.984375q0.984375 0.984375 0.984375 2.53125q0 1.515625 -0.984375 2.53125q-0.96875 1.0 -2.640625 1.0q-1.65625 0 -2.625 -1.0q-0.96875 -1.015625 -0.96875 -2.53125zm22.328125 32.39063q-5.109375 0 -7.96875 -3.046875q-2.859375 -3.046875 -2.859375 -8.71875l0 -2.015625q0 -6.000004 2.625 -9.250004q2.625 -3.265625 7.53125 -3.265625q4.78125 0 7.1875 3.0625q2.421875 3.046875 2.46875 9.046879l0 3.265625l-13.203125 0q0.140625 2.8125 1.234375 4.109375q1.109375 1.296875 3.40625 1.296875q3.328125 0 5.5625 -2.265625l2.59375 4.0q-1.21875 1.6875 -3.546875 2.734375q-2.3125 1.046875 -5.03125 1.046875zm-4.171875 -15.562504l6.640625 0l0 -0.609375q-0.046875 -2.28125 -0.75 -3.453125q-0.703125 -1.171875 -2.4375 -1.171875q-1.734375 0 -2.53125 1.25q-0.78125 1.234375 -0.921875 3.984375zm25.21875 5.718754l3.21875 -15.984379l6.90625 0l-6.953125 25.359379l-6.328125 0l-6.984375 -25.359379l6.9375 0l3.203125 15.984379zm20.203125 9.375l-6.65625 0l0 -25.359379l6.65625 0l0 25.359379zm-6.953125 -31.921879q0 -1.546875 0.984375 -2.53125q0.984375 -0.984375 2.625 -0.984375q1.640625 0 2.625 0.984375q0.984375 0.984375 0.984375 2.53125q0 1.515625 -0.984375 2.53125q-0.96875 1.0 -2.640625 1.0q-1.65625 0 -2.625 -1.0q-0.96875 -1.015625 -0.96875 -2.53125zm18.15625 6.5625l0.1875 2.5q2.25 -2.96875 5.890625 -2.96875q6.53125 0 6.71875 9.15625l0 16.671879l-6.65625 0l0 -16.171879q0 -2.15625 -0.640625 -3.125q-0.640625 -0.984375 -2.265625 -0.984375q-1.796875 0 -2.8125 1.859375l0 18.421879l-6.65625 0l0 -25.359379l6.234375 0zm16.765625 11.906254q0 -6.234379 2.25 -9.296879q2.25 -3.078125 6.296875 -3.078125q3.453125 0 5.328125 2.71875l0.25 -2.25l5.984375 0l0 25.359379q0 4.859375 -2.71875 7.421875q-2.71875 2.5625 -7.8125 2.5625q-2.078125 0 -4.375 -0.828125q-2.296875 -0.828125 -3.421875 -2.125l2.21875 -4.59375q0.9375 0.984375 2.4375 1.609375q1.5 0.625 2.84375 0.625q2.21875 0 3.1875 -1.078125q0.984375 -1.0625 1.0 -3.421875l0 -2.1875q-1.890625 2.484375 -4.9375 2.484375q-4.0625 0 -6.28125 -3.15625q-2.203125 -3.15625 -2.25 -8.890625l0 -1.875zm6.625 1.65625q0 3.515625 0.90625 5.125q0.921875 1.609375 2.921875 1.609375q2.03125 0 3.015625 -1.484375l0 -12.109379q-1.03125 -1.625 -2.96875 -1.625q-1.96875 0 -2.921875 1.625q-0.953125 1.609375 -0.953125 5.203129l0 1.65625zm49.15625 -0.0625q0 6.15625 -1.96875 9.25q-1.96875 3.078125 -6.1875 3.078125q-3.3125 0 -5.296875 -2.984375l-0.21875 2.515625l-6.109375 0l0 -36.000004l6.625 0l0 12.703125q1.875 -2.53125 4.953125 -2.53125q4.21875 0 6.1875 3.0625q1.96875 3.046875 2.015625 8.953129l0 1.953125zm-6.640625 -1.671875q0 -4.000004 -0.78125 -5.375004q-0.765625 -1.375 -2.6875 -1.375q-2.078125 0 -3.046875 1.90625l0 11.546879q0.890625 1.78125 3.09375 1.78125q1.90625 0 2.640625 -1.234375q0.734375 -1.25 0.78125 -4.828125l0 -2.421875zm18.75 2.484375l3.375 -14.312504l7.078125 0l-8.34375 29.156254q-1.875 6.453125 -7.046875 6.453125q-1.203125 0 -2.71875 -0.453125l0 -5.171875l0.765625 0.015625q1.546875 0 2.328125 -0.59375q0.796875 -0.59375 1.1875 -2.078125l0.515625 -1.703125l-7.3125 -25.625004l7.125 0l3.046875 14.312504zm48.609375 11.046875l-6.859375 0l0 -14.609379l-10.171875 0l0 14.609379l-6.890625 0l0 -34.125004l6.890625 0l0 13.796875l10.171875 0l0 -13.796875l6.859375 0l0 34.125004zm28.742188 -3.875q-2.0 2.15625 -4.890625 3.25q-2.890625 1.09375 -6.34375 1.09375q-5.875 0 -9.140625 -3.640625q-3.25 -3.65625 -3.34375 -10.609375l0 -6.140629q0 -7.0625 3.078125 -10.859375q3.078125 -3.8125 8.984375 -3.8125q5.5625 0 8.375 2.75q2.828125 2.734375 3.28125 8.59375l-6.703125 0q-0.28125 -3.265625 -1.359375 -4.4375q-1.078125 -1.1875 -3.375 -1.1875q-2.796875 0 -4.0625 2.046875q-1.265625 2.03125 -1.3125 6.484375l0 6.187504q0 4.65625 1.390625 6.78125q1.40625 2.125 4.59375 2.125q2.03125 0 3.296875 -0.828125l0.609375 -0.421875l0 -6.25l-4.828125 0l0 -5.203129l11.75 0l0 14.078129zm15.984375 -5.5l5.734375 -24.750004l7.6875 0l-9.84375 34.125004l-7.171875 0l-9.765625 -34.125004l7.640625 0l5.71875 24.750004zm31.046875 0.421875q0 -2.09375 -1.0625 -3.15625q-1.0625 -1.0625 -3.875 -2.2187538q-5.140625 -1.9375 -7.390625 -4.546875q-2.25 -2.625 -2.25 -6.1875q0 -4.3125 3.0625 -6.921875q3.0625 -2.609375 7.765625 -2.609375q3.140625 0 5.59375 1.328125q2.46875 1.3125 3.796875 3.734375q1.328125 2.40625 1.328125 5.484375l-6.875 0q0 -2.390625 -1.015625 -3.640625q-1.015625 -1.265625 -2.9375 -1.265625q-1.8125 0 -2.828125 1.078125q-1.0 1.0625 -1.0 2.859375q0 1.40625 1.125 2.546875q1.125 1.140625 3.984375 2.359375q5.0 1.796875 7.25 4.421875q2.265625 2.6250038 2.265625 6.687504q0 4.453125 -2.84375 6.96875q-2.828125 2.5 -7.703125 2.5q-3.296875 0 -6.015625 -1.359375q-2.71875 -1.359375 -4.265625 -3.890625q-1.53125 -2.53125 -1.53125 -5.984375l6.921875 0q0 2.953125 1.140625 4.296875q1.15625 1.328125 3.75 1.328125q3.609375 0 3.609375 -3.8125zm29.203125 8.953125l-6.65625 0l0 -25.359379l6.65625 0l0 25.359379zm-6.953125 -31.921879q0 -1.546875 0.984375 -2.53125q0.984375 -0.984375 2.625 -0.984375q1.640625 0 2.625 0.984375q0.984375 0.984375 0.984375 2.53125q0 1.515625 -0.984375 2.53125q-0.96875 1.0 -2.640625 1.0q-1.65625 0 -2.625 -1.0q-0.96875 -1.015625 -0.96875 -2.53125zm11.203125 18.468754q0 -6.234379 2.109375 -9.296879q2.109375 -3.078125 6.140625 -3.078125q2.921875 0 4.875 2.53125l0 -12.703125l6.671875 0l0 36.000004l-6.015625 0l-0.3125 -2.578125q-2.03125 3.046875 -5.25 3.046875q-3.984375 0 -6.078125 -3.046875q-2.09375 -3.046875 -2.140625 -8.953125l0 -1.921875zm6.65625 1.65625q0 3.75 0.796875 5.25q0.796875 1.484375 2.6875 1.484375q1.96875 0 2.984375 -1.765625l0 -11.578129q-0.984375 -1.875 -2.953125 -1.875q-1.828125 0 -2.671875 1.484375q-0.84375 1.46875 -0.84375 5.250004l0 1.75z" fill-rule="nonzero"></path></g></svg>

