<?xml version="1.0" standalone="yes"?>

<svg version="1.1" viewBox="0.0 0.0 1209.0 480.0" fill="none" stroke="none" stroke-linecap="square" stroke-miterlimit="10" xmlns="http://www.w3.org/2000/svg" xmlns:xlink="http://www.w3.org/1999/xlink"><clipPath id="ga08125072_0_19.0"><path d="m0 0l1209.0 0l0 480.0l-1209.0 0l0 -480.0z" clip-rule="nonzero"></path></clipPath><g clip-path="url(#ga08125072_0_19.0)"><path fill="#000000" fill-opacity="0.0" d="m0 0l1209.6011 0l0 480.0l-1209.6011 0z" fill-rule="nonzero"></path><path fill="#000000" fill-opacity="0.0" d="m60.480053 112.0l1088.6299 0l0 347.68503l-1088.6299 0z" fill-rule="nonzero"></path><path fill="#666666" d="m251.13289 170.53542l-0.625 0.78125q-2.6875 3.140625 -7.890625 3.140625q-4.609375 0 -7.234375 -3.046875q-2.625 -3.0625 -2.6875 -8.65625l0 -5.578125q0 -5.984375 2.390625 -8.953125q2.390625 -2.984375 7.15625 -2.984375q4.0625 0 6.359375 2.265625q2.296875 2.265625 2.53125 6.46875l-3.578125 0q-0.203125 -2.65625 -1.46875 -4.15625q-1.265625 -1.5 -3.8125 -1.5q-3.078125 0 -4.5 2.015625q-1.421875 2.0 -1.484375 6.390625l0 5.796875q0 4.296875 1.640625 6.59375q1.640625 2.296875 4.703125 2.296875q2.890625 0 4.40625 -1.40625l0.515625 -0.484375l0 -6.5625l-5.1875 0l0 -3.046875l8.765625 0l0 10.625zm19.476547 -9.609375l-10.0625 0l0 10.078125l11.71875 0l0 3.0625l-15.296875 0l0 -28.4375l15.109375 0l0 3.078125l-11.53125 0l0 9.140625l10.0625 0l0 3.078125zm22.847656 -12.21875l-7.484375 0l0 25.359375l-3.5625 0l0 -25.359375l-7.46875 0l0 -3.078125l18.515625 0l0 3.078125z" fill-rule="nonzero"></path><path fill="#000000" d="m309.7813 155.09792q1.984375 -2.5625 5.046875 -2.5625q5.609375 0 5.6875 7.484375l0 14.046875l-3.4375 0l0 -13.890625q0 -2.484375 -0.84375 -3.515625q-0.828125 -1.046875 -2.484375 -1.046875q-1.28125 0 -2.3125 0.859375q-1.03125 0.859375 -1.65625 2.234375l0 15.359375l-3.453125 0l0 -30.0l3.453125 0l0 11.03125zm20.394531 -7.28125l0 5.109375l3.1875 0l0 2.796875l-3.1875 0l0 13.109375q0 1.25 0.40625 1.890625q0.421875 0.640625 1.40625 0.640625q0.6875 0 1.390625 -0.234375l-0.03125 2.9375q-1.171875 0.390625 -2.40625 0.390625q-2.046875 0 -3.125 -1.46875q-1.078125 -1.46875 -1.078125 -4.140625l0 -13.125l-3.21875 0l0 -2.796875l3.21875 0l0 -5.109375l3.4375 0zm11.816406 0l0 5.109375l3.1875 0l0 2.796875l-3.1875 0l0 13.109375q0 1.25 0.40625 1.890625q0.421875 0.640625 1.40625 0.640625q0.6875 0 1.390625 -0.234375l-0.03125 2.9375q-1.171875 0.390625 -2.40625 0.390625q-2.046875 0 -3.125 -1.46875q-1.078125 -1.46875 -1.078125 -4.140625l0 -13.125l-3.21875 0l0 -2.796875l3.21875 0l0 -5.109375l3.4375 0zm22.566406 16.703125q0 5.015625 -1.8125 7.484375q-1.8125 2.453125 -5.109375 2.453125q-3.1875 0 -4.90625 -2.40625l0 10.140625l-3.4375 0l0 -29.265625l3.125 0l0.1875 2.34375q1.734375 -2.734375 4.96875 -2.734375q3.484375 0 5.203125 2.421875q1.71875 2.421875 1.78125 7.25l0 2.3125zm-3.4375 -1.984375q0 -3.546875 -1.09375 -5.234375q-1.09375 -1.6875 -3.515625 -1.6875q-2.484375 0 -3.78125 2.46875l0 11.0q1.28125 2.421875 3.8125 2.421875q2.34375 0 3.4375 -1.6875q1.109375 -1.6875 1.140625 -5.171875l0 -2.109375zm8.1171875 9.640625q0 -0.9375 0.546875 -1.5625q0.5625 -0.625 1.671875 -0.625q1.125 0 1.703125 0.625q0.578125 0.625 0.578125 1.5625q0 0.890625 -0.578125 1.5q-0.578125 0.609375 -1.703125 0.609375q-1.109375 0 -1.671875 -0.609375q-0.546875 -0.609375 -0.546875 -1.5zm0 -17.0q0 -0.9375 0.546875 -1.5625q0.5625 -0.625 1.671875 -0.625q1.125 0 1.703125 0.625q0.578125 0.625 0.578125 1.5625q0 0.890625 -0.578125 1.5q-0.578125 0.609375 -1.703125 0.609375q-1.109375 0 -1.671875 -0.609375q-0.546875 -0.609375 -0.546875 -1.5zm10.0546875 21.328125l-2.921875 0l9.984375 -30.875l2.90625 0l-9.96875 30.875zm14.824219 0l-2.921875 0l9.984375 -30.875l2.90625 0l-9.96875 30.875zm17.136719 -23.578125l0.078125 1.953125q1.9375 -2.34375 5.09375 -2.34375q3.53125 0 4.9375 3.078125q2.0 -3.078125 5.546875 -3.078125q5.84375 0 5.984375 7.296875l0 14.234375l-3.4375 0l0 -13.90625q0 -2.3125 -0.828125 -3.421875q-0.8125 -1.125 -2.765625 -1.125q-1.5625 0 -2.546875 1.21875q-0.96875 1.203125 -1.125 3.078125l0 14.15625l-3.484375 0l0 -14.0625q-0.046875 -4.390625 -3.5625 -4.390625q-2.625 0 -3.703125 2.609375l0 15.84375l-3.4375 0l0 -21.140625l3.25 0zm32.61328 15.390625l3.84375 -15.390625l3.671875 0l-6.90625 24.125q-0.78125 2.71875 -2.21875 4.125q-1.421875 1.421875 -3.234375 1.421875q-0.703125 0 -1.796875 -0.3125l0 -2.921875l0.765625 0.078125q1.5 0 2.34375 -0.71875q0.859375 -0.703125 1.390625 -2.46875l0.671875 -2.359375l-6.203125 -20.96875l3.765625 0l3.90625 15.390625zm16.878906 0.5l4.0 -15.890625l3.515625 0l-6.265625 21.140625l-2.578125 0l-6.34375 -21.140625l3.515625 0l4.15625 15.890625zm21.984375 5.25q-0.3125 -0.6875 -0.4375 -2.3125q-1.84375 2.703125 -4.6875 2.703125q-2.875 0 -4.484375 -1.609375q-1.609375 -1.609375 -1.609375 -4.546875q0 -3.21875 2.1875 -5.109375q2.1875 -1.90625 5.984375 -1.9375l2.546875 0l0 -2.25q0 -1.890625 -0.84375 -2.6875q-0.84375 -0.8125 -2.5625 -0.8125q-1.5625 0 -2.546875 0.9375q-0.96875 0.921875 -0.96875 2.34375l-3.453125 0q0 -1.609375 0.953125 -3.078125q0.96875 -1.484375 2.578125 -2.328125q1.625 -0.84375 3.625 -0.84375q3.234375 0 4.921875 1.625q1.6875 1.609375 1.734375 4.6875l0 10.671875q0.015625 2.4375 0.65625 4.234375l0 0.3125l-3.59375 0zm-4.609375 -2.75q1.28125 0 2.421875 -0.703125q1.15625 -0.703125 1.6875 -1.765625l0 -5.03125l-1.953125 0q-2.46875 0.03125 -3.890625 1.09375q-1.421875 1.0625 -1.421875 2.984375q0 1.796875 0.71875 2.609375q0.71875 0.8125 2.4375 0.8125zm21.628906 -15.140625q-0.71875 -0.140625 -1.5625 -0.140625q-2.65625 0 -3.71875 2.90625l0 15.125l-3.453125 0l0 -21.140625l3.359375 0l0.0625 2.15625q1.390625 -2.546875 3.921875 -2.546875q0.828125 0 1.375 0.28125l0.015625 3.359375zm7.1679688 17.890625l-3.453125 0l0 -21.140625l3.453125 0l0 21.140625zm0.265625 -26.734375q0 0.875 -0.484375 1.46875q-0.484375 0.578125 -1.484375 0.578125q-0.96875 0 -1.46875 -0.578125q-0.484375 -0.59375 -0.484375 -1.46875q0 -0.890625 0.484375 -1.484375q0.5 -0.609375 1.46875 -0.609375q0.984375 0 1.46875 0.625q0.5 0.609375 0.5 1.46875zm16.035156 26.734375q-0.3125 -0.6875 -0.4375 -2.3125q-1.84375 2.703125 -4.6875 2.703125q-2.875 0 -4.484375 -1.609375q-1.609375 -1.609375 -1.609375 -4.546875q0 -3.21875 2.1875 -5.109375q2.1875 -1.90625 5.984375 -1.9375l2.546875 0l0 -2.25q0 -1.890625 -0.84375 -2.6875q-0.84375 -0.8125 -2.5625 -0.8125q-1.5625 0 -2.546875 0.9375q-0.96875 0.921875 -0.96875 2.34375l-3.453125 0q0 -1.609375 0.953125 -3.078125q0.96875 -1.484375 2.578125 -2.328125q1.625 -0.84375 3.625 -0.84375q3.234375 0 4.921875 1.625q1.6875 1.609375 1.734375 4.6875l0 10.671875q0.015625 2.4375 0.65625 4.234375l0 0.3125l-3.59375 0zm-4.609375 -2.75q1.28125 0 2.421875 -0.703125q1.15625 -0.703125 1.6875 -1.765625l0 -5.03125l-1.953125 0q-2.46875 0.03125 -3.890625 1.09375q-1.421875 1.0625 -1.421875 2.984375q0 1.796875 0.71875 2.609375q0.71875 0.8125 2.4375 0.8125zm16.160156 -18.390625l0.09375 2.296875q2.015625 -2.6875 5.140625 -2.6875q5.609375 0 5.6875 7.484375l0 14.046875l-3.4375 0l0 -13.890625q0 -2.484375 -0.84375 -3.515625q-0.828125 -1.046875 -2.484375 -1.046875q-1.28125 0 -2.3125 0.859375q-1.03125 0.859375 -1.65625 2.234375l0 15.359375l-3.453125 0l0 -21.140625l3.265625 0zm20.621094 -5.109375l0 5.109375l3.1875 0l0 2.796875l-3.1875 0l0 13.109375q0 1.25 0.40625 1.890625q0.421875 0.640625 1.40625 0.640625q0.6875 0 1.390625 -0.234375l-0.03125 2.9375q-1.171875 0.390625 -2.40625 0.390625q-2.046875 0 -3.125 -1.46875q-1.078125 -1.46875 -1.078125 -4.140625l0 -13.125l-3.21875 0l0 -2.796875l3.21875 0l0 -5.109375l3.4375 0zm7.5195312 24.359375q0 -0.9375 0.546875 -1.5625q0.5625 -0.625 1.671875 -0.625q1.125 0 1.703125 0.625q0.578125 0.625 0.578125 1.5625q0 0.890625 -0.578125 1.5q-0.578125 0.609375 -1.703125 0.609375q-1.109375 0 -1.671875 -0.609375q-0.546875 -0.609375 -0.546875 -1.5zm14.027344 1.890625l-3.453125 0l0 -21.140625l3.453125 0l0 21.140625zm0.265625 -26.734375q0 0.875 -0.484375 1.46875q-0.484375 0.578125 -1.484375 0.578125q-0.96875 0 -1.46875 -0.578125q-0.484375 -0.59375 -0.484375 -1.46875q0 -0.890625 0.484375 -1.484375q0.5 -0.609375 1.46875 -0.609375q0.984375 0 1.46875 0.625q0.5 0.609375 0.5 1.46875zm8.425781 5.59375l0.09375 2.296875q2.015625 -2.6875 5.140625 -2.6875q5.609375 0 5.6875 7.484375l0 14.046875l-3.4375 0l0 -13.890625q0 -2.484375 -0.84375 -3.515625q-0.828125 -1.046875 -2.484375 -1.046875q-1.28125 0 -2.3125 0.859375q-1.03125 0.859375 -1.65625 2.234375l0 15.359375l-3.453125 0l0 -21.140625l3.265625 0zm17.621094 21.140625l0 -18.34375l-2.765625 0l0 -2.796875l2.765625 0l0 -2.4375q0.046875 -3.21875 1.625 -5.015625q1.578125 -1.8125 4.4375 -1.8125q1.046875 0 2.09375 0.328125l-0.171875 2.921875q-0.75 -0.171875 -1.578125 -0.171875q-2.953125 0 -2.953125 4.203125l0 1.984375l3.609375 0l0 2.796875l-3.609375 0l0 18.34375l-3.453125 0zm10.40625 -11.546875q0 -4.609375 2.234375 -7.296875q2.234375 -2.6875 5.90625 -2.6875q3.671875 0 5.90625 2.625q2.234375 2.609375 2.296875 7.125l0 2.234375q0 4.578125 -2.234375 7.265625q-2.21875 2.671875 -5.921875 2.671875q-3.671875 0 -5.890625 -2.59375q-2.21875 -2.609375 -2.296875 -7.03125l0 -2.3125zm3.453125 2.0q0 3.25 1.28125 5.125q1.28125 1.859375 3.453125 1.859375q4.5625 0 4.703125 -6.59375l0 -2.390625q0 -3.234375 -1.296875 -5.125q-1.28125 -1.890625 -3.453125 -1.890625q-2.125 0 -3.40625 1.890625q-1.28125 1.890625 -1.28125 5.109375l0 2.015625zm18.296875 11.984375l-2.921875 0l9.984375 -30.875l2.90625 0l-9.96875 30.875zm19.871094 -7.6875l4.0 -15.890625l3.515625 0l-6.265625 21.140625l-2.578125 0l-6.34375 -21.140625l3.515625 0l4.15625 15.890625zm21.109375 5.25l-3.46875 0l0 -24.078125l-5.984375 2.671875l0 -3.28125l8.90625 -3.890625l0.546875 0l0 28.578125zm10.699219 2.4375l-2.921875 0l9.984375 -30.875l2.90625 0l-9.96875 30.875zm13.152344 -13.96875q0 -4.9375 1.796875 -7.46875q1.796875 -2.53125 5.34375 -2.53125q3.078125 0 4.765625 2.46875l0.15625 -2.078125l3.171875 0l0 29.265625l-3.453125 0l0 -9.984375q-1.6875 2.25 -4.65625 2.25q-3.421875 0 -5.265625 -2.484375q-1.828125 -2.5 -1.859375 -7.265625l0 -2.171875zm3.453125 1.984375q0 3.546875 1.09375 5.265625q1.09375 1.71875 3.484375 1.71875q2.421875 0 3.75 -2.328125l0 -11.328125q-1.40625 -2.34375 -3.734375 -2.34375q-2.390625 0 -3.484375 1.71875q-1.09375 1.71875 -1.109375 5.1875l0 2.109375zm28.066406 7.6875q-1.71875 2.25 -5.015625 2.25q-2.875 0 -4.34375 -1.984375q-1.453125 -1.984375 -1.484375 -5.765625l0 -13.78125l3.4375 0l0 13.515625q0 4.953125 2.96875 4.953125q3.15625 0 4.34375 -2.8125l0 -15.65625l3.453125 0l0 21.140625l-3.28125 0l-0.078125 -1.859375zm16.117188 2.25q-3.953125 0 -6.0625 -2.34375q-2.109375 -2.359375 -2.140625 -6.921875l0 -2.546875q0 -4.734375 2.0625 -7.421875q2.0625 -2.6875 5.75 -2.6875q3.703125 0 5.53125 2.375q1.84375 2.359375 1.890625 7.359375l0 2.265625l-11.796875 0l0 0.484375q0 3.40625 1.28125 4.953125q1.28125 1.53125 3.671875 1.53125q1.53125 0 2.6875 -0.578125q1.171875 -0.578125 2.1875 -1.828125l1.796875 2.1875q-2.25 3.171875 -6.859375 3.171875zm-0.390625 -18.953125q-2.15625 0 -3.1875 1.484375q-1.03125 1.46875 -1.171875 4.578125l8.328125 0l0 -0.46875q-0.140625 -3.015625 -1.09375 -4.296875q-0.9375 -1.296875 -2.875 -1.296875zm20.292969 0.671875q-0.71875 -0.140625 -1.5625 -0.140625q-2.65625 0 -3.71875 2.90625l0 15.125l-3.453125 0l0 -21.140625l3.359375 0l0.0625 2.15625q1.390625 -2.546875 3.921875 -2.546875q0.828125 0 1.375 0.28125l0.015625 3.359375zm9.214844 12.140625l3.84375 -15.390625l3.671875 0l-6.90625 24.125q-0.78125 2.71875 -2.21875 4.125q-1.421875 1.421875 -3.234375 1.421875q-0.703125 0 -1.796875 -0.3125l0 -2.921875l0.765625 0.078125q1.5 0 2.34375 -0.71875q0.859375 -0.703125 1.390625 -2.46875l0.671875 -2.359375l-6.203125 -20.96875l3.765625 0l3.90625 15.390625zm11.832031 8.1875l-2.921875 0l9.984375 -30.875l2.90625 0l-9.96875 30.875zm17.433594 -10.453125q0 -2.34375 0.484375 -3.796875q0.484375 -1.46875 2.375 -3.734375l1.375 -1.765625q1.359375 -1.90625 1.359375 -3.984375q0 -2.046875 -0.84375 -3.203125q-0.84375 -1.171875 -2.4375 -1.171875q-1.484375 0 -2.46875 1.0625q-0.984375 1.046875 -0.984375 2.828125l-3.4375 0q0.046875 -3.21875 1.953125 -5.125q1.921875 -1.921875 4.9375 -1.921875q3.15625 0 4.953125 1.96875q1.796875 1.96875 1.796875 5.453125q0 3.3125 -2.71875 6.65625l-1.796875 2.171875q-1.109375 1.578125 -1.109375 4.5625l-3.4375 0zm1.875 4.125q0.96875 0 1.46875 0.59375q0.5 0.59375 0.5 1.484375q0 0.875 -0.5 1.453125q-0.5 0.578125 -1.46875 0.578125q-1.0 0 -1.484375 -0.578125q-0.46875 -0.578125 -0.46875 -1.453125q0 -0.890625 0.46875 -1.484375q0.484375 -0.59375 1.484375 -0.59375zm10.71875 -7.640625q0 -4.9375 1.796875 -7.46875q1.796875 -2.53125 5.34375 -2.53125q3.078125 0 4.765625 2.46875l0.15625 -2.078125l3.171875 0l0 29.265625l-3.453125 0l0 -9.984375q-1.6875 2.25 -4.65625 2.25q-3.421875 0 -5.265625 -2.484375q-1.828125 -2.5 -1.859375 -7.265625l0 -2.171875zm3.453125 1.984375q0 3.546875 1.09375 5.265625q1.09375 1.71875 3.484375 1.71875q2.421875 0 3.75 -2.328125l0 -11.328125q-1.40625 -2.34375 -3.734375 -2.34375q-2.390625 0 -3.484375 1.71875q-1.09375 1.71875 -1.109375 5.1875l0 2.109375zm31.285156 -6.359375l-13.6875 0l0 -3.140625l13.6875 0l0 3.140625zm0 8.109375l-13.6875 0l0 -3.125l13.6875 0l0 3.125z" fill-rule="nonzero"></path><path fill="#ff0000" d="m861.10944 161.48854l9.96875 4.9375l0 3.828125l-13.359375 -7.40625l0 -2.84375l13.359375 -7.390625l0 3.828125l-9.96875 5.046875zm14.753906 1.046875q0 -4.9375 1.796875 -7.46875q1.796875 -2.53125 5.34375 -2.53125q3.078125 0 4.765625 2.46875l0.15625 -2.078125l3.171875 0l0 29.265625l-3.453125 0l0 -9.984375q-1.6875 2.25 -4.65625 2.25q-3.421875 0 -5.265625 -2.484375q-1.828125 -2.5 -1.859375 -7.265625l0 -2.171875zm3.453125 1.984375q0 3.546875 1.09375 5.265625q1.09375 1.71875 3.484375 1.71875q2.421875 0 3.75 -2.328125l0 -11.328125q-1.40625 -2.34375 -3.734375 -2.34375q-2.390625 0 -3.484375 1.71875q-1.09375 1.71875 -1.109375 5.1875l0 2.109375zm28.066406 7.6875q-1.71875 2.25 -5.015625 2.25q-2.875 0 -4.34375 -1.984375q-1.453125 -1.984375 -1.484375 -5.765625l0 -13.78125l3.4375 0l0 13.515625q0 4.953125 2.96875 4.953125q3.15625 0 4.34375 -2.8125l0 -15.65625l3.453125 0l0 21.140625l-3.28125 0l-0.078125 -1.859375zm16.117188 2.25q-3.953125 0 -6.0625 -2.34375q-2.109375 -2.359375 -2.140625 -6.921875l0 -2.546875q0 -4.734375 2.0625 -7.421875q2.0625 -2.6875 5.75 -2.6875q3.703125 0 5.53125 2.375q1.84375 2.359375 1.890625 7.359375l0 2.265625l-11.796875 0l0 0.484375q0 3.40625 1.28125 4.953125q1.28125 1.53125 3.671875 1.53125q1.53125 0 2.6875 -0.578125q1.171875 -0.578125 2.1875 -1.828125l1.796875 2.1875q-2.25 3.171875 -6.859375 3.171875zm-0.390625 -18.953125q-2.15625 0 -3.1875 1.484375q-1.03125 1.46875 -1.171875 4.578125l8.328125 0l0 -0.46875q-0.140625 -3.015625 -1.09375 -4.296875q-0.9375 -1.296875 -2.875 -1.296875zm20.292969 0.671875q-0.71875 -0.140625 -1.5625 -0.140625q-2.65625 0 -3.71875 2.90625l0 15.125l-3.453125 0l0 -21.140625l3.359375 0l0.0625 2.15625q1.390625 -2.546875 3.921875 -2.546875q0.828125 0 1.375 0.28125l0.015625 3.359375zm9.214844 12.140625l3.84375 -15.390625l3.671875 0l-6.90625 24.125q-0.78125 2.71875 -2.21875 4.125q-1.421875 1.421875 -3.234375 1.421875q-0.703125 0 -1.796875 -0.3125l0 -2.921875l0.765625 0.078125q1.5 0 2.34375 -0.71875q0.859375 -0.703125 1.390625 -2.46875l0.671875 -2.359375l-6.203125 -20.96875l3.765625 0l3.90625 15.390625zm21.550781 -6.96875l-10.59375 -5.03125l0 -3.71875l14.0625 7.390625l0 2.84375l-14.0625 7.40625l0 -3.75l10.59375 -5.140625z" fill-rule="nonzero"></path><path fill="#000000" d="m83.82381 236.81374q1.71875 0 3.375 0.890625q1.65625 0.890625 2.578125 2.546875q0.921875 1.65625 0.921875 3.4375q0 2.859375 -2.015625 4.875q-2.015625 2.015625 -4.859375 2.015625q-2.859375 0 -4.875 -2.015625q-2.015625 -2.015625 -2.015625 -4.875q0 -1.796875 0.921875 -3.4375q0.921875 -1.65625 2.578125 -2.546875q1.65625 -0.890625 3.390625 -0.890625z" fill-rule="nonzero"></path><path fill="#000000" d="m127.27693 248.26686l-5.765625 0l-1.328125 4.453125l-2.203125 0l5.5 -17.0625l1.84375 0l5.5 17.0625l-2.203125 0l-1.34375 -4.453125zm-5.203125 -1.859375l4.65625 0l-2.328125 -7.75l-2.328125 7.75zm13.015625 6.3125l-2.0625 0l0 -18.0l2.0625 0l0 18.0zm5.4960938 0l-2.0625 0l0 -18.0l2.0625 0l0 18.0zm12.3515625 -3.15625l2.40625 -9.53125l2.109375 0l-3.765625 12.6875l-1.546875 0l-3.796875 -12.6875l2.109375 0l2.484375 9.53125zm13.203125 3.15625q-0.1875 -0.40625 -0.265625 -1.390625q-1.109375 1.625 -2.8125 1.625q-1.734375 0 -2.703125 -0.96875q-0.953125 -0.96875 -0.953125 -2.71875q0 -1.9375 1.3125 -3.078125q1.3125 -1.140625 3.59375 -1.15625l1.515625 0l0 -1.34375q0 -1.140625 -0.5 -1.625q-0.5 -0.484375 -1.53125 -0.484375q-0.9375 0 -1.53125 0.5625q-0.578125 0.5625 -0.578125 1.40625l-2.078125 0q0 -0.96875 0.578125 -1.84375q0.578125 -0.890625 1.546875 -1.390625q0.96875 -0.515625 2.171875 -0.515625q1.9375 0 2.953125 0.96875q1.015625 0.96875 1.03125 2.828125l0 6.390625q0.015625 1.46875 0.40625 2.546875l0 0.1875l-2.15625 0zm-2.765625 -1.65625q0.765625 0 1.453125 -0.421875q0.6875 -0.421875 1.0 -1.046875l0 -3.03125l-1.171875 0q-1.46875 0.03125 -2.328125 0.671875q-0.859375 0.625 -0.859375 1.78125q0 1.078125 0.4375 1.5625q0.4375 0.484375 1.46875 0.484375zm12.964844 -9.078125q-0.421875 -0.078125 -0.9375 -0.078125q-1.59375 0 -2.21875 1.734375l0 9.078125l-2.078125 0l0 -12.6875l2.015625 0l0.03125 1.296875q0.84375 -1.53125 2.359375 -1.53125q0.5 0 0.828125 0.171875l0 2.015625zm4.3007812 10.734375l-2.0625 0l0 -12.6875l2.0625 0l0 12.6875zm0.171875 -16.046875q0 0.53125 -0.296875 0.890625q-0.296875 0.34375 -0.890625 0.34375q-0.578125 0 -0.875 -0.34375q-0.296875 -0.359375 -0.296875 -0.890625q0 -0.53125 0.296875 -0.890625q0.296875 -0.359375 0.875 -0.359375q0.59375 0 0.890625 0.375q0.296875 0.359375 0.296875 0.875zm9.621094 16.046875q-0.1875 -0.40625 -0.265625 -1.390625q-1.109375 1.625 -2.8125 1.625q-1.734375 0 -2.703125 -0.96875q-0.953125 -0.96875 -0.953125 -2.71875q0 -1.9375 1.3125 -3.078125q1.3125 -1.140625 3.59375 -1.15625l1.515625 0l0 -1.34375q0 -1.140625 -0.5 -1.625q-0.5 -0.484375 -1.53125 -0.484375q-0.9375 0 -1.53125 0.5625q-0.578125 0.5625 -0.578125 1.40625l-2.078125 0q0 -0.96875 0.578125 -1.84375q0.578125 -0.890625 1.546875 -1.390625q0.96875 -0.515625 2.171875 -0.515625q1.9375 0 2.953125 0.96875q1.015625 0.96875 1.03125 2.828125l0 6.390625q0.015625 1.46875 0.40625 2.546875l0 0.1875l-2.15625 0zm-2.765625 -1.65625q0.765625 0 1.453125 -0.421875q0.6875 -0.421875 1.0 -1.046875l0 -3.03125l-1.171875 0q-1.46875 0.03125 -2.328125 0.671875q-0.859375 0.625 -0.859375 1.78125q0 1.078125 0.4375 1.5625q0.4375 0.484375 1.46875 0.484375zm9.683594 -11.03125l0.0625 1.375q1.203125 -1.609375 3.078125 -1.609375q3.375 0 3.421875 4.5l0 8.421875l-2.0625 0l0 -8.328125q0 -1.5 -0.5 -2.125q-0.5 -0.625 -1.5 -0.625q-0.765625 0 -1.390625 0.515625q-0.609375 0.515625 -0.984375 1.34375l0 9.21875l-2.078125 0l0 -12.6875l1.953125 0zm12.378906 -3.0625l0 3.0625l1.90625 0l0 1.6875l-1.90625 0l0 7.859375q0 0.75 0.25 1.140625q0.25 0.375 0.84375 0.375q0.40625 0 0.828125 -0.140625l-0.015625 1.765625q-0.703125 0.234375 -1.453125 0.234375q-1.21875 0 -1.875 -0.875q-0.640625 -0.890625 -0.640625 -2.484375l0 -7.875l-1.9375 0l0 -1.6875l1.9375 0l0 -3.0625l2.0625 0zm10.542969 12.5q0 -0.671875 -0.515625 -1.140625q-0.5 -0.484375 -1.9375 -1.125q-1.671875 -0.703125 -2.359375 -1.1875q-0.6875 -0.5 -1.03125 -1.125q-0.34375 -0.625 -0.34375 -1.484375q0 -1.546875 1.125 -2.578125q1.140625 -1.03125 2.90625 -1.03125q1.84375 0 2.96875 1.078125q1.125 1.078125 1.125 2.765625l-2.0625 0q0 -0.84375 -0.578125 -1.453125q-0.5625 -0.609375 -1.453125 -0.609375q-0.921875 0 -1.453125 0.484375q-0.515625 0.46875 -0.515625 1.265625q0 0.640625 0.375 1.03125q0.390625 0.375 1.84375 1.015625q2.3125 0.890625 3.140625 1.765625q0.828125 0.859375 0.828125 2.171875q0 1.65625 -1.140625 2.65625q-1.125 0.984375 -3.03125 0.984375q-1.984375 0 -3.21875 -1.140625q-1.234375 -1.140625 -1.234375 -2.875l2.09375 0q0.03125 1.046875 0.640625 1.65625q0.609375 0.59375 1.71875 0.59375q1.03125 0 1.5625 -0.46875q0.546875 -0.46875 0.546875 -1.25zm19.710938 -0.390625l1.921875 -9.046875l2.0625 0l-3.109375 12.6875l-1.65625 0l-2.46875 -9.078125l-2.421875 9.078125l-1.65625 0l-3.078125 -12.6875l2.03125 0l1.96875 8.8125l2.359375 -8.8125l1.640625 0l2.40625 9.046875zm8.378906 3.640625l-2.0625 0l0 -12.6875l2.0625 0l0 12.6875zm0.171875 -16.046875q0 0.53125 -0.296875 0.890625q-0.296875 0.34375 -0.890625 0.34375q-0.578125 0 -0.875 -0.34375q-0.296875 -0.359375 -0.296875 -0.890625q0 -0.53125 0.296875 -0.890625q0.296875 -0.359375 0.875 -0.359375q0.59375 0 0.890625 0.375q0.296875 0.359375 0.296875 0.875zm5.8085938 0.296875l0 3.0625l1.9062347 0l0 1.6875l-1.9062347 0l0 7.859375q0 0.75 0.25 1.140625q0.25 0.375 0.84375 0.375q0.40625 0 0.82810974 -0.140625l-0.015625 1.765625q-0.70310974 0.234375 -1.4531097 0.234375q-1.21875 0 -1.875 -0.875q-0.640625 -0.890625 -0.640625 -2.484375l0 -7.875l-1.9375 0l0 -1.6875l1.9375 0l0 -3.0625l2.0625 0zm6.4492035 4.375q1.1875 -1.546875 3.015625 -1.546875q3.375 0 3.421875 4.5l0 8.421875l-2.0625 0l0 -8.328125q0 -1.5 -0.5 -2.125q-0.5 -0.625 -1.5 -0.625q-0.765625 0 -1.390625 0.515625q-0.609375 0.515625 -0.984375 1.34375l0 9.21875l-2.078125 0l0 -18.0l2.078125 0l0 6.625zm14.5703125 4.453125q0 -2.921875 1.09375 -4.453125q1.109375 -1.546875 3.15625 -1.546875q1.8125 0 2.828125 1.484375l0 -6.5625l2.078125 0l0 18.0l-1.890625 0l-0.109375 -1.359375q-1.015625 1.59375 -2.921875 1.59375q-1.96875 0 -3.09375 -1.53125q-1.109375 -1.53125 -1.140625 -4.3125l0 -1.3125zm2.078125 1.1875q0 2.140625 0.625 3.140625q0.640625 1.0 2.078125 1.0q1.546875 0 2.296875 -1.5625l0 -6.390625q-0.796875 -1.53125 -2.296875 -1.53125q-1.421875 0 -2.0625 1.0q-0.625 1.0 -0.640625 3.078125l0 1.265625zm19.453125 0q0 2.96875 -1.0625 4.46875q-1.0625 1.5 -3.09375 1.5q-2.015625 0 -3.03125 -1.734375l-0.09375 1.5l-1.890625 0l0 -18.0l2.0625 0l0 6.71875q1.015625 -1.640625 2.921875 -1.640625q2.09375 0 3.125 1.484375q1.046875 1.46875 1.0625 4.453125l0 1.25zm-2.0625 -1.1875q0 -2.25 -0.625 -3.203125q-0.625 -0.953125 -2.03125 -0.953125q-1.609375 0 -2.390625 1.734375l0 6.03125q0.765625 1.71875 2.40625 1.71875q1.40625 0 2.015625 -0.984375q0.609375 -0.984375 0.625 -3.0625l0 -1.28125zm16.148438 6.921875l-2.15625 0l-6.828125 -13.15625l0 13.15625l-2.15625 0l0 -17.0625l2.15625 0l6.859375 13.203125l0 -13.203125l2.125 0l0 17.0625zm11.171875 -4.3125q0 -1.28125 -0.703125 -1.953125q-0.6875 -0.6875 -2.5 -1.328125q-1.796875 -0.640625 -2.75 -1.34375q-0.953125 -0.71875 -1.4375 -1.625q-0.46875 -0.90625 -0.46875 -2.078125q0 -2.03125 1.359375 -3.34375q1.359375 -1.3125 3.546875 -1.3125q1.5 0 2.671875 0.671875q1.171875 0.671875 1.796875 1.875q0.640625 1.1875 0.640625 2.625l-2.15625 0q0 -1.59375 -0.765625 -2.453125q-0.765625 -0.875 -2.1875 -0.875q-1.296875 0 -2.015625 0.734375q-0.71875 0.71875 -0.71875 2.03125q0 1.078125 0.765625 1.8125q0.78125 0.71875 2.40625 1.296875q2.515625 0.828125 3.59375 2.046875q1.09375 1.21875 1.09375 3.1875q0 2.078125 -1.359375 3.328125q-1.34375 1.25 -3.65625 1.25q-1.5 0 -2.765625 -0.640625q-1.25 -0.65625 -1.96875 -1.828125q-0.71875 -1.1875 -0.71875 -2.71875l2.15625 0q0 1.59375 0.875 2.46875q0.890625 0.875 2.421875 0.875q1.40625 0 2.125 -0.71875q0.71875 -0.734375 0.71875 -1.984375zm12.886719 -3.21875l-5.765625 0l0 7.53125l-2.140625 0l0 -17.0625l8.875 0l0 1.84375l-6.734375 0l0 5.84375l5.765625 0l0 1.84375zm5.765625 0.84375l0 6.6875l-2.140625 0l0 -17.0625l5.4375 0q2.375 0 3.734375 1.421875q1.359375 1.421875 1.359375 3.796875q0 2.453125 -1.296875 3.78125q-1.296875 1.328125 -3.640625 1.375l-3.453125 0zm0 -1.828125l3.296875 0q1.421875 0 2.1875 -0.859375q0.765625 -0.859375 0.765625 -2.453125q0 -1.53125 -0.796875 -2.453125q-0.78125 -0.9375 -2.140625 -0.9375l-3.3125 0l0 6.703125zm22.890625 8.515625q-0.1875 -0.40625 -0.265625 -1.390625q-1.109375 1.625 -2.8125 1.625q-1.734375 0 -2.703125 -0.96875q-0.953125 -0.96875 -0.953125 -2.71875q0 -1.9375 1.3125 -3.078125q1.3125 -1.140625 3.59375 -1.15625l1.515625 0l0 -1.34375q0 -1.140625 -0.5 -1.625q-0.5 -0.484375 -1.53125 -0.484375q-0.9375 0 -1.53125 0.5625q-0.578125 0.5625 -0.578125 1.40625l-2.078125 0q0 -0.96875 0.578125 -1.84375q0.578125 -0.890625 1.546875 -1.390625q0.96875 -0.515625 2.171875 -0.515625q1.9375 0 2.953125 0.96875q1.015625 0.96875 1.03125 2.828125l0 6.390625q0.015625 1.46875 0.40625 2.546875l0 0.1875l-2.15625 0zm-2.765625 -1.65625q0.765625 0 1.453125 -0.421875q0.6875 -0.421875 1.0 -1.046875l0 -3.03125l-1.171875 0q-1.46875 0.03125 -2.328125 0.671875q-0.859375 0.625 -0.859375 1.78125q0 1.078125 0.4375 1.5625q0.4375 0.484375 1.46875 0.484375zm9.683594 -11.03125l0.0625 1.375q1.203125 -1.609375 3.078125 -1.609375q3.375 0 3.421875 4.5l0 8.421875l-2.0625 0l0 -8.328125q0 -1.5 -0.5 -2.125q-0.5 -0.625 -1.5 -0.625q-0.765625 0 -1.390625 0.515625q-0.609375 0.515625 -0.984375 1.34375l0 9.21875l-2.078125 0l0 -12.6875l1.953125 0zm11.613281 0l0.0625 1.375q1.203125 -1.609375 3.078125 -1.609375q3.375 0 3.421875 4.5l0 8.421875l-2.0625 0l0 -8.328125q0 -1.5 -0.5 -2.125q-0.5 -0.625 -1.5 -0.625q-0.765625 0 -1.390625 0.515625q-0.609375 0.515625 -0.984375 1.34375l0 9.21875l-2.078125 0l0 -12.6875l1.953125 0zm9.222656 5.765625q0 -2.765625 1.34375 -4.375q1.34375 -1.625 3.546875 -1.625q2.203125 0 3.546875 1.578125q1.34375 1.5625 1.375 4.28125l0 1.328125q0 2.75 -1.34375 4.359375q-1.328125 1.609375 -3.546875 1.609375q-2.203125 0 -3.546875 -1.5625q-1.328125 -1.5625 -1.375 -4.21875l0 -1.375zm2.078125 1.1875q0 1.953125 0.765625 3.078125q0.765625 1.125 2.078125 1.125q2.734375 0 2.8125 -3.96875l0 -1.421875q0 -1.953125 -0.78125 -3.078125q-0.765625 -1.140625 -2.0625 -1.140625q-1.28125 0 -2.046875 1.140625q-0.765625 1.125 -0.765625 3.0625l0 1.203125zm13.125 -10.015625l0 3.0625l1.90625 0l0 1.6875l-1.90625 0l0 7.859375q0 0.75 0.25 1.140625q0.25 0.375 0.84375 0.375q0.40625 0 0.828125 -0.140625l-0.015625 1.765625q-0.703125 0.234375 -1.453125 0.234375q-1.21875 0 -1.875 -0.875q-0.640625 -0.890625 -0.640625 -2.484375l0 -7.875l-1.9375 0l0 -1.6875l1.9375 0l0 -3.0625l2.0625 0zm10.902344 15.75q-0.1875 -0.40625 -0.265625 -1.390625q-1.109375 1.625 -2.8125 1.625q-1.734375 0 -2.703125 -0.96875q-0.953125 -0.96875 -0.953125 -2.71875q0 -1.9375 1.3125 -3.078125q1.3125 -1.140625 3.59375 -1.15625l1.515625 0l0 -1.34375q0 -1.140625 -0.5 -1.625q-0.5 -0.484375 -1.53125 -0.484375q-0.9375 0 -1.53125 0.5625q-0.578125 0.5625 -0.578125 1.40625l-2.078125 0q0 -0.96875 0.578125 -1.84375q0.578125 -0.890625 1.546875 -1.390625q0.96875 -0.515625 2.171875 -0.515625q1.9375 0 2.953125 0.96875q1.015625 0.96875 1.03125 2.828125l0 6.390625q0.015625 1.46875 0.40625 2.546875l0 0.1875l-2.15625 0zm-2.765625 -1.65625q0.765625 0 1.453125 -0.421875q0.6875 -0.421875 1.0 -1.046875l0 -3.03125l-1.171875 0q-1.46875 0.03125 -2.328125 0.671875q-0.859375 0.625 -0.859375 1.78125q0 1.078125 0.4375 1.5625q0.4375 0.484375 1.46875 0.484375zm10.449219 -14.09375l0 3.0625l1.90625 0l0 1.6875l-1.90625 0l0 7.859375q0 0.75 0.25 1.140625q0.25 0.375 0.84375 0.375q0.40625 0 0.828125 -0.140625l-0.015625 1.765625q-0.703125 0.234375 -1.453125 0.234375q-1.21875 0 -1.875 -0.875q-0.640625 -0.890625 -0.640625 -2.484375l0 -7.875l-1.9375 0l0 -1.6875l1.9375 0l0 -3.0625l2.0625 0zm6.6054688 15.75l-2.0625 0l0 -12.6875l2.0625 0l0 12.6875zm0.171875 -16.046875q0 0.53125 -0.296875 0.890625q-0.296875 0.34375 -0.890625 0.34375q-0.578125 0 -0.875 -0.34375q-0.296875 -0.359375 -0.296875 -0.890625q0 -0.53125 0.296875 -0.890625q0.296875 -0.359375 0.875 -0.359375q0.59375 0 0.890625 0.375q0.296875 0.359375 0.296875 0.875zm2.6523438 9.125q0 -2.765625 1.34375 -4.375q1.34375 -1.625 3.546875 -1.625q2.203125 0 3.546875 1.578125q1.34375 1.5625 1.375 4.28125l0 1.328125q0 2.75 -1.34375 4.359375q-1.328125 1.609375 -3.546875 1.609375q-2.203125 0 -3.546875 -1.5625q-1.328125 -1.5625 -1.375 -4.21875l0 -1.375zm2.078125 1.1875q0 1.953125 0.765625 3.078125q0.765625 1.125 2.078125 1.125q2.734375 0 2.8125 -3.96875l0 -1.421875q0 -1.953125 -0.78125 -3.078125q-0.765625 -1.140625 -2.0625 -1.140625q-1.28125 0 -2.046875 1.140625q-0.765625 1.125 -0.765625 3.0625l0 1.203125zm12.359375 -6.953125l0.0625 1.375q1.203125 -1.609375 3.078125 -1.609375q3.375 0 3.421875 4.5l0 8.421875l-2.0625 0l0 -8.328125q0 -1.5 -0.5 -2.125q-0.5 -0.625 -1.5 -0.625q-0.765625 0 -1.390625 0.515625q-0.609375 0.515625 -0.984375 1.34375l0 9.21875l-2.078125 0l0 -12.6875l1.953125 0zm9.800781 11.546875q0 -0.5625 0.328125 -0.9375q0.34375 -0.375 1.0 -0.375q0.671875 0 1.015625 0.375q0.359375 0.375 0.359375 0.9375q0 0.546875 -0.359375 0.90625q-0.34375 0.359375 -1.015625 0.359375q-0.65625 0 -1.0 -0.359375q-0.328125 -0.359375 -0.328125 -0.90625zm0 -10.0q0 -0.5625 0.328125 -0.9375q0.34375 -0.375 1.0 -0.375q0.671875 0 1.015625 0.375q0.359375 0.375 0.359375 0.9375q0 0.546875 -0.359375 0.90625q-0.34375 0.359375 -1.015625 0.359375q-0.65625 0 -1.0 -0.359375q-0.328125 -0.359375 -0.328125 -0.90625z" fill-rule="nonzero"></path><path fill="#000000" d="m135.94598 290.3758q1.03125 0 2.015625 0.53125q0.984375 0.515625 1.53125 1.5q0.546875 0.984375 0.546875 2.046875q0 1.6875 -1.203125 2.890625q-1.1875 1.203125 -2.875 1.203125q-1.703125 0 -2.90625 -1.203125q-1.1875 -1.203125 -1.1875 -2.890625q0 -1.0625 0.546875 -2.046875q0.546875 -0.984375 1.53125 -1.5q0.984375 -0.53125 2.0 -0.53125zm0.015625 0.703125q-0.875 0 -1.6875 0.4375q-0.796875 0.421875 -1.25 1.25q-0.453125 0.8125 -0.453125 1.6875q0 1.390625 0.984375 2.390625q1.0 1.0 2.40625 1.0q1.390625 0 2.375 -1.0q1.0 -1.0 1.0 -2.390625q0 -0.875 -0.46875 -1.6875q-0.453125 -0.828125 -1.265625 -1.25q-0.796875 -0.4375 -1.640625 -0.4375z" fill-rule="nonzero"></path><path fill="#1155cc" d="m168.65193 289.86017q1.03125 -1.34375 2.640625 -1.34375q2.9375 0 2.984375 3.921875l0 7.375l-1.796875 0l0 -7.296875q0 -1.296875 -0.4375 -1.84375q-0.4375 -0.546875 -1.3125 -0.546875q-0.671875 0 -1.21875 0.453125q-0.53125 0.453125 -0.859375 1.171875l0 8.0625l-1.8125 0l0 -15.75l1.8125 0l0 5.796875zm10.862076 -3.828125l0 2.6875l1.671875 0l0 1.46875l-1.671875 0l0 6.875q0 0.65625 0.203125 1.0q0.21875 0.328125 0.75 0.328125q0.359375 0 0.734375 -0.109375l-0.03125 1.53125q-0.609375 0.203125 -1.265625 0.203125q-1.0625 0 -1.640625 -0.765625q-0.5625 -0.765625 -0.5625 -2.171875l0 -6.890625l-1.6875 0l0 -1.46875l1.6875 0l0 -2.6875l1.8125 0zm6.3005524 0l0 2.6875l1.671875 0l0 1.46875l-1.671875 0l0 6.875q0 0.65625 0.203125 1.0q0.21875 0.328125 0.75 0.328125q0.359375 0 0.734375 -0.109375l-0.03125 1.53125q-0.609375 0.203125 -1.265625 0.203125q-1.0625 0 -1.640625 -0.765625q-0.5625 -0.765625 -0.5625 -2.171875l0 -6.890625l-1.6875 0l0 -1.46875l1.6875 0l0 -2.6875l1.8125 0zm11.941177 8.765625q0 2.640625 -0.953125 3.9375q-0.953125 1.28125 -2.671875 1.28125q-1.671875 0 -2.578125 -1.265625l0 5.328125l-1.8125 0l0 -15.359375l1.640625 0l0.09375 1.234375q0.921875 -1.4375 2.625 -1.4375q1.8125 0 2.71875 1.28125q0.90625 1.265625 0.9375 3.796875l0 1.203125zm-1.8125 -1.03125q0 -1.875 -0.578125 -2.75q-0.5625 -0.890625 -1.84375 -0.890625q-1.296875 0 -1.96875 1.296875l0 5.78125q0.65625 1.265625 2.0 1.265625q1.234375 0 1.8125 -0.890625q0.578125 -0.890625 0.578125 -2.703125l0 -1.109375zm4.44014 5.046875q0 -0.484375 0.28125 -0.8125q0.296875 -0.328125 0.875 -0.328125q0.59375 0 0.890625 0.328125q0.296875 0.328125 0.296875 0.8125q0 0.484375 -0.296875 0.796875q-0.296875 0.3125 -0.890625 0.3125q-0.578125 0 -0.875 -0.3125q-0.28125 -0.3125 -0.28125 -0.796875zm0 -9.0q0 -0.484375 0.28125 -0.8125q0.296875 -0.328125 0.875 -0.328125q0.59375 0 0.890625 0.328125q0.296875 0.328125 0.296875 0.8125q0 0.484375 -0.296875 0.796875q-0.296875 0.3125 -0.890625 0.3125q-0.578125 0 -0.875 -0.3125q-0.28125 -0.3125 -0.28125 -0.796875zm5.352951 11.28125l-1.546875 0l5.25 -16.21875l1.515625 0l-5.21875 16.21875zm7.9043274 0l-1.546875 0l5.25 -16.21875l1.515625 0l-5.21875 16.21875zm9.107452 -12.375l0.046875 1.03125q1.015625 -1.234375 2.671875 -1.234375q1.859375 0 2.59375 1.609375q1.046875 -1.609375 2.921875 -1.609375q3.0625 0 3.125 3.828125l0 7.46875l-1.796875 0l0 -7.296875q0 -1.21875 -0.4375 -1.796875q-0.421875 -0.59375 -1.453125 -0.59375q-0.8125 0 -1.328125 0.640625q-0.515625 0.625 -0.59375 1.609375l0 7.4375l-1.828125 0l0 -7.390625q-0.03125 -2.296875 -1.875 -2.296875q-1.375 0 -1.9375 1.375l0 8.3125l-1.8125 0l0 -11.09375l1.703125 0zm17.376297 8.078125l2.015625 -8.078125l1.9375 0l-3.640625 12.65625q-0.40625 1.4375 -1.15625 2.171875q-0.75 0.75 -1.703125 0.75q-0.359375 0 -0.9375 -0.171875l0 -1.53125l0.390625 0.03125q0.796875 0 1.234375 -0.375q0.453125 -0.359375 0.734375 -1.28125l0.359375 -1.25l-3.265625 -11.0l1.984375 0l2.046875 8.078125zm8.99263 0.25l2.109375 -8.328125l1.84375 0l-3.296875 11.09375l-1.359375 0l-3.328125 -11.09375l1.84375 0l2.1875 8.328125zm11.685272 2.765625q-0.15625 -0.359375 -0.234375 -1.203125q-0.96875 1.40625 -2.453125 1.40625q-1.515625 0 -2.359375 -0.84375q-0.84375 -0.84375 -0.84375 -2.390625q0 -1.6875 1.140625 -2.671875q1.15625 -1.0 3.15625 -1.03125l1.328125 0l0 -1.171875q0 -1.0 -0.4375 -1.40625q-0.4375 -0.421875 -1.34375 -0.421875q-0.828125 0 -1.34375 0.484375q-0.5 0.484375 -0.5 1.234375l-1.8125 0q0 -0.859375 0.5 -1.625q0.5 -0.78125 1.34375 -1.21875q0.859375 -0.4375 1.90625 -0.4375q1.703125 0 2.578125 0.84375q0.890625 0.84375 0.921875 2.46875l0 5.59375q0 1.28125 0.34375 2.21875l0 0.171875l-1.890625 0zm-2.421875 -1.453125q0.671875 0 1.265625 -0.359375q0.609375 -0.375 0.890625 -0.921875l0 -2.65625l-1.03125 0q-1.28125 0.03125 -2.03125 0.59375q-0.75 0.546875 -0.75 1.5625q0 0.9375 0.375 1.359375q0.390625 0.421875 1.28125 0.421875zm11.513123 -7.9375q-0.375 -0.078125 -0.828125 -0.078125q-1.390625 0 -1.9375 1.53125l0 7.9375l-1.8125 0l0 -11.09375l1.765625 0l0.015625 1.125q0.734375 -1.328125 2.0625 -1.328125q0.4375 0 0.71875 0.140625l0.015625 1.765625zm3.8630066 9.390625l-1.8125 0l0 -11.09375l1.8125 0l0 11.09375zm0.140625 -14.03125q0 0.453125 -0.265625 0.765625q-0.25 0.296875 -0.765625 0.296875q-0.515625 0 -0.78125 -0.296875q-0.25 -0.3125 -0.25 -0.765625q0 -0.46875 0.25 -0.78125q0.265625 -0.328125 0.78125 -0.328125q0.515625 0 0.765625 0.328125q0.265625 0.328125 0.265625 0.78125zm8.493622 14.03125q-0.15625 -0.359375 -0.234375 -1.203125q-0.96875 1.40625 -2.453125 1.40625q-1.515625 0 -2.359375 -0.84375q-0.84375 -0.84375 -0.84375 -2.390625q0 -1.6875 1.140625 -2.671875q1.15625 -1.0 3.15625 -1.03125l1.328125 0l0 -1.171875q0 -1.0 -0.4375 -1.40625q-0.4375 -0.421875 -1.34375 -0.421875q-0.828125 0 -1.34375 0.484375q-0.5 0.484375 -0.5 1.234375l-1.8125 0q0 -0.859375 0.5 -1.625q0.5 -0.78125 1.34375 -1.21875q0.859375 -0.4375 1.90625 -0.4375q1.703125 0 2.578125 0.84375q0.890625 0.84375 0.921875 2.46875l0 5.59375q0 1.28125 0.34375 2.21875l0 0.171875l-1.890625 0zm-2.421875 -1.453125q0.671875 0 1.265625 -0.359375q0.609375 -0.375 0.890625 -0.921875l0 -2.65625l-1.03125 0q-1.28125 0.03125 -2.03125 0.59375q-0.75 0.546875 -0.75 1.5625q0 0.9375 0.375 1.359375q0.390625 0.421875 1.28125 0.421875zm8.638123 -9.640625l0.0625 1.203125q1.046875 -1.40625 2.6875 -1.40625q2.9375 0 2.984375 3.921875l0 7.375l-1.796875 0l0 -7.296875q0 -1.296875 -0.4375 -1.84375q-0.4375 -0.546875 -1.3125 -0.546875q-0.671875 0 -1.21875 0.453125q-0.53125 0.453125 -0.859375 1.171875l0 8.0625l-1.8125 0l0 -11.09375l1.703125 0zm10.992279 -2.6875l0 2.6875l1.671875 0l0 1.46875l-1.671875 0l0 6.875q0 0.65625 0.203125 1.0q0.21875 0.328125 0.75 0.328125q0.359375 0 0.734375 -0.109375l-0.03125 1.53125q-0.609375 0.203125 -1.265625 0.203125q-1.0625 0 -1.640625 -0.765625q-0.5625 -0.765625 -0.5625 -2.171875l0 -6.890625l-1.6875 0l0 -1.46875l1.6875 0l0 -2.6875l1.8125 0zm4.0505676 12.78125q0 -0.484375 0.28125 -0.8125q0.296875 -0.328125 0.875 -0.328125q0.59375 0 0.890625 0.328125q0.296875 0.328125 0.296875 0.8125q0 0.484375 -0.296875 0.796875q-0.296875 0.3125 -0.890625 0.3125q-0.578125 0 -0.875 -0.3125q-0.28125 -0.3125 -0.28125 -0.796875zm7.441345 1.0l-1.8125 0l0 -11.09375l1.8125 0l0 11.09375zm0.140625 -14.03125q0 0.453125 -0.265625 0.765625q-0.25 0.296875 -0.765625 0.296875q-0.515625 0 -0.78125 -0.296875q-0.25 -0.3125 -0.25 -0.765625q0 -0.46875 0.25 -0.78125q0.265625 -0.328125 0.78125 -0.328125q0.515625 0 0.765625 0.328125q0.265625 0.328125 0.265625 0.78125zm4.4935913 2.9375l0.0625 1.203125q1.046875 -1.40625 2.6875 -1.40625q2.9375 0 2.984375 3.921875l0 7.375l-1.796875 0l0 -7.296875q0 -1.296875 -0.4375 -1.84375q-0.4375 -0.546875 -1.3125 -0.546875q-0.671875 0 -1.21875 0.453125q-0.53125 0.453125 -0.859375 1.171875l0 8.0625l-1.8125 0l0 -11.09375l1.703125 0zm9.414154 11.09375l0 -9.625l-1.453125 0l0 -1.46875l1.453125 0l0 -1.28125q0.03125 -1.6875 0.84375 -2.640625q0.828125 -0.953125 2.34375 -0.953125q0.546875 0 1.09375 0.171875l-0.09375 1.546875q-0.390625 -0.09375 -0.828125 -0.09375q-1.546875 0 -1.546875 2.203125l0 1.046875l1.890625 0l0 1.46875l-1.890625 0l0 9.625l-1.8125 0zm5.560852 -6.0625q0 -2.421875 1.171875 -3.828125q1.1875 -1.40625 3.109375 -1.40625q1.921875 0 3.09375 1.375q1.1875 1.375 1.21875 3.734375l0 1.171875q0 2.40625 -1.171875 3.8125q-1.171875 1.40625 -3.125 1.40625q-1.921875 0 -3.09375 -1.359375q-1.15625 -1.359375 -1.203125 -3.6875l0 -1.21875zm1.828125 1.046875q0 1.71875 0.65625 2.703125q0.671875 0.96875 1.8125 0.96875q2.40625 0 2.46875 -3.46875l0 -1.25q0 -1.703125 -0.671875 -2.6875q-0.671875 -0.984375 -1.8125 -0.984375q-1.125 0 -1.796875 0.984375q-0.65625 0.984375 -0.65625 2.671875l0 1.0625zm9.768219 6.296875l-1.546875 0l5.25 -16.21875l1.515625 0l-5.21875 16.21875zm10.544952 -4.046875l2.109375 -8.328125l1.84375 0l-3.296875 11.09375l-1.359375 0l-3.328125 -11.09375l1.84375 0l2.1875 8.328125zm11.232147 2.765625l-1.828125 0l0 -12.640625l-3.140625 1.40625l0 -1.734375l4.671875 -2.03125l0.296875 0l0 15.0zm5.7786865 1.28125l-1.546875 0l5.25 -16.21875l1.515625 0l-5.21875 16.21875zm7.0137024 -7.328125q0 -2.59375 0.9375 -3.921875q0.953125 -1.328125 2.828125 -1.328125q1.609375 0 2.5 1.28125l0.078125 -1.078125l1.65625 0l0 15.359375l-1.8125 0l0 -5.234375q-0.875 1.171875 -2.4375 1.171875q-1.796875 0 -2.765625 -1.296875q-0.953125 -1.3125 -0.984375 -3.8125l0 -1.140625zm1.828125 1.03125q0 1.875 0.5625 2.78125q0.578125 0.890625 1.828125 0.890625q1.265625 0 1.96875 -1.21875l0 -5.953125q-0.734375 -1.21875 -1.953125 -1.21875q-1.25 0 -1.828125 0.90625q-0.578125 0.890625 -0.578125 2.703125l0 1.109375zm14.893219 4.046875q-0.90625 1.171875 -2.640625 1.171875q-1.5 0 -2.28125 -1.03125q-0.765625 -1.046875 -0.765625 -3.03125l0 -7.234375l1.796875 0l0 7.09375q0 2.59375 1.5625 2.59375q1.65625 0 2.28125 -1.46875l0 -8.21875l1.8125 0l0 11.09375l-1.71875 0l-0.046875 -0.96875zm8.622498 1.171875q-2.078125 0 -3.1875 -1.234375q-1.109375 -1.234375 -1.125 -3.625l0 -1.34375q0 -2.484375 1.078125 -3.890625q1.078125 -1.40625 3.015625 -1.40625q1.953125 0 2.921875 1.25q0.96875 1.234375 0.984375 3.859375l0 1.1875l-6.203125 0l0 0.25q0 1.78125 0.671875 2.59375q0.671875 0.8125 1.9375 0.8125q0.796875 0 1.40625 -0.296875q0.609375 -0.3125 1.15625 -0.96875l0.9375 1.15625q-1.1875 1.65625 -3.59375 1.65625zm-0.21875 -9.9375q-1.125 0 -1.671875 0.78125q-0.53125 0.765625 -0.609375 2.390625l4.375 0l0 -0.25q-0.078125 -1.578125 -0.578125 -2.25q-0.5 -0.671875 -1.515625 -0.671875zm10.815277 0.34375q-0.375 -0.078125 -0.828125 -0.078125q-1.390625 0 -1.9375 1.53125l0 7.9375l-1.8125 0l0 -11.09375l1.765625 0l0.015625 1.125q0.734375 -1.328125 2.0625 -1.328125q0.4375 0 0.71875 0.140625l0.015625 1.765625zm4.9411316 6.375l2.015625 -8.078125l1.9375 0l-3.640625 12.65625q-0.40625 1.4375 -1.15625 2.171875q-0.75 0.75 -1.703125 0.75q-0.359375 0 -0.9375 -0.171875l0 -1.53125l0.390625 0.03125q0.796875 0 1.234375 -0.375q0.453125 -0.359375 0.734375 -1.28125l0.359375 -1.25l-3.265625 -11.0l1.984375 0l2.046875 8.078125zm7.7113647 -1.1875q0 -1.234375 0.25 -2.0q0.265625 -0.765625 1.265625 -1.953125l0.703125 -0.921875q0.71875 -1.015625 0.71875 -2.09375q0 -1.078125 -0.453125 -1.6875q-0.4375 -0.609375 -1.265625 -0.609375q-0.78125 0 -1.296875 0.5625q-0.515625 0.546875 -0.515625 1.46875l-1.796875 0q0.015625 -1.6875 1.015625 -2.6875q1.0 -1.015625 2.59375 -1.015625q1.65625 0 2.59375 1.046875q0.953125 1.03125 0.953125 2.859375q0 1.734375 -1.4375 3.5l-0.9375 1.125q-0.578125 0.84375 -0.578125 2.40625l-1.8125 0zm0.984375 2.15625q0.515625 0 0.765625 0.3125q0.265625 0.3125 0.265625 0.78125q0 0.453125 -0.265625 0.765625q-0.25 0.296875 -0.765625 0.296875q-0.515625 0 -0.78125 -0.296875q-0.25 -0.3125 -0.25 -0.765625q0 -0.46875 0.25 -0.78125q0.265625 -0.3125 0.78125 -0.3125z" fill-rule="nonzero"></path><path stroke="#1155cc" stroke-width="1.7066667079925537" stroke-linejoin="bevel" stroke-linecap="butt" d="m165.48006 303.50916l265.75818 0" fill-rule="nonzero"></path><path fill="#ff0000" d="m431.9101 293.90704q0 -2.734375 0.90625 -4.0625q0.90625 -1.328125 2.703125 -1.328125q1.46875 0 2.328125 1.3125l0.171875 -1.109375l2.546875 0l0 15.359375l-2.921875 0l0 -5.125q-0.8125 1.0625 -2.125 1.0625q-1.765625 0 -2.6875 -1.359375q-0.90625 -1.359375 -0.921875 -3.90625l0 -0.84375zm2.90625 0.734375q0 1.609375 0.34375 2.296875q0.359375 0.671875 1.1875 0.671875q0.890625 0 1.296875 -0.6875l0 -5.28125q-0.40625 -0.71875 -1.28125 -0.71875q-0.828125 0 -1.1875 0.671875q-0.34375 0.65625 -0.359375 2.21875l0 0.828125zm16.195312 -2.453125l-7.8125 0l0 -2.4375l7.8125 0l0 2.4375zm0 4.4375l-7.8125 0l0 -2.4375l7.8125 0l0 2.4375zm9.7109375 5.53125l-7.9375 0l0 -2.34375l7.9375 0l0 2.34375zm5.904175 -2.140625q-2.234375 0 -3.484375 -1.328125q-1.25 -1.34375 -1.25 -3.8125l0 -0.890625q0 -2.625 1.140625 -4.046875q1.15625 -1.421875 3.296875 -1.421875q2.09375 0 3.140625 1.34375q1.0625 1.328125 1.09375 3.953125l0 1.421875l-5.78125 0q0.0625 1.234375 0.546875 1.8125q0.484375 0.5625 1.484375 0.5625q1.453125 0 2.4375 -1.0l1.140625 1.75q-0.546875 0.75 -1.5625 1.203125q-1.0 0.453125 -2.203125 0.453125zm-1.8125 -6.8125l2.890625 0l0 -0.265625q-0.015625 -0.984375 -0.328125 -1.5q-0.296875 -0.515625 -1.0625 -0.515625q-0.765625 0 -1.109375 0.546875q-0.328125 0.546875 -0.390625 1.734375zm11.252716 -1.1875l1.296875 -3.296875l3.078125 0l-2.53125 5.421875l2.625 5.671875l-3.09375 0l-1.359375 -3.46875l-1.359375 3.46875l-3.09375 0l2.625 -5.671875l-2.515625 -5.421875l3.09375 0l1.234375 3.296875zm8.99765 7.796875l-2.921875 0l0 -11.09375l2.921875 0l0 11.09375zm-3.046875 -13.96875q0 -0.671875 0.421875 -1.09375q0.4375 -0.4375 1.15625 -0.4375q0.71875 0 1.140625 0.4375q0.4375 0.421875 0.4375 1.09375q0 0.671875 -0.4375 1.109375q-0.421875 0.4375 -1.15625 0.4375q-0.71875 0 -1.140625 -0.4375q-0.421875 -0.4375 -0.421875 -1.109375zm10.279938 11.0q0 -0.375 -0.359375 -0.6875q-0.34375 -0.3125 -1.5625 -0.84375q-1.796875 -0.734375 -2.46875 -1.5q-0.671875 -0.78125 -0.671875 -1.953125q0 -1.453125 1.046875 -2.390625q1.046875 -0.953125 2.78125 -0.953125q1.828125 0 2.921875 0.953125q1.09375 0.9375 1.09375 2.515625l-2.890625 0q0 -1.34375 -1.125 -1.34375q-0.46875 0 -0.765625 0.28125q-0.296875 0.28125 -0.296875 0.796875q0 0.375 0.328125 0.65625q0.328125 0.28125 1.546875 0.796875q1.78125 0.65625 2.5 1.46875q0.734375 0.796875 0.734375 2.078125q0 1.5 -1.125 2.40625q-1.109375 0.890625 -2.921875 0.890625q-1.21875 0 -2.15625 -0.46875q-0.921875 -0.484375 -1.453125 -1.328125q-0.53125 -0.859375 -0.53125 -1.84375l2.765625 0q0.015625 0.765625 0.34375 1.140625q0.34375 0.375 1.09375 0.375q1.171875 0 1.171875 -1.046875zm8.1539 -10.859375l0 2.734375l1.484375 0l0 2.1875l-1.484375 0l0 5.5q0 0.65625 0.171875 0.90625q0.171875 0.25 0.6875 0.25q0.421875 0 0.6875 -0.078125l-0.015625 2.25q-0.734375 0.28125 -1.59375 0.28125q-2.8125 0 -2.84375 -3.21875l0 -5.890625l-1.28125 0l0 -2.1875l1.28125 0l0 -2.734375l2.90625 0zm8.081726 10.859375q0 -0.375 -0.359375 -0.6875q-0.34375 -0.3125 -1.5625 -0.84375q-1.796875 -0.734375 -2.46875 -1.5q-0.671875 -0.78125 -0.671875 -1.953125q0 -1.453125 1.046875 -2.390625q1.046875 -0.953125 2.78125 -0.953125q1.828125 0 2.921875 0.953125q1.09375 0.9375 1.09375 2.515625l-2.890625 0q0 -1.34375 -1.125 -1.34375q-0.46875 0 -0.765625 0.28125q-0.296875 0.28125 -0.296875 0.796875q0 0.375 0.328125 0.65625q0.328125 0.28125 1.546875 0.796875q1.78125 0.65625 2.5 1.46875q0.734375 0.796875 0.734375 2.078125q0 1.5 -1.125 2.40625q-1.109375 0.890625 -2.921875 0.890625q-1.21875 0 -2.15625 -0.46875q-0.921875 -0.484375 -1.453125 -1.328125q-0.53125 -0.859375 -0.53125 -1.84375l2.765625 0q0.015625 0.765625 0.34375 1.140625q0.34375 0.375 1.09375 0.375q1.171875 0 1.171875 -1.046875zm11.87262 5.3125l-7.9375 0l0 -2.34375l7.9375 0l0 2.34375zm1.6697998 -3.828125q0 -0.6875 0.453125 -1.140625q0.46875 -0.453125 1.21875 -0.453125q0.734375 0 1.21875 0.453125q0.484375 0.4375 0.484375 1.140625q0 0.71875 -0.5 1.15625q-0.484375 0.4375 -1.203125 0.4375q-0.71875 0 -1.203125 -0.4375q-0.46875 -0.4375 -0.46875 -1.15625zm0 -8.0q0 -0.6875 0.453125 -1.140625q0.46875 -0.453125 1.21875 -0.453125q0.734375 0 1.21875 0.453125q0.484375 0.4375 0.484375 1.140625q0 0.71875 -0.5 1.15625q-0.484375 0.4375 -1.203125 0.4375q-0.71875 0 -1.203125 -0.4375q-0.46875 -0.4375 -0.46875 -1.15625zm5.227783 3.59375q0 -2.71875 0.921875 -4.0625q0.921875 -1.34375 2.6875 -1.34375q1.28125 0 2.125 1.109375l0 -5.5625l2.921875 0l0 15.75l-2.625 0l-0.140625 -1.125q-0.890625 1.328125 -2.296875 1.328125q-1.75 0 -2.671875 -1.328125q-0.90625 -1.34375 -0.921875 -3.921875l0 -0.84375zm2.90625 0.734375q0 1.640625 0.34375 2.296875q0.359375 0.640625 1.1875 0.640625q0.859375 0 1.296875 -0.765625l0 -5.0625q-0.421875 -0.828125 -1.296875 -0.828125q-0.796875 0 -1.171875 0.65625q-0.359375 0.640625 -0.359375 2.296875l0 0.765625zm16.695312 -0.03125q0 2.703125 -0.859375 4.046875q-0.859375 1.34375 -2.703125 1.34375q-1.4375 0 -2.3125 -1.296875l-0.09375 1.09375l-2.671875 0l0 -15.75l2.890625 0l0 5.5625q0.828125 -1.109375 2.171875 -1.109375q1.84375 0 2.703125 1.34375q0.859375 1.328125 0.875 3.90625l0 0.859375zm-2.890625 -0.734375q0 -1.75 -0.34375 -2.34375q-0.34375 -0.609375 -1.171875 -0.609375q-0.921875 0 -1.34375 0.828125l0 5.0625q0.390625 0.78125 1.359375 0.78125q0.828125 0 1.140625 -0.546875q0.328125 -0.546875 0.359375 -2.109375l0 -1.0625zm7.4661865 -5.171875l0.078125 1.09375q0.984375 -1.296875 2.578125 -1.296875q2.859375 0 2.9375 4.0l0 7.296875l-2.90625 0l0 -7.078125q0 -0.9375 -0.296875 -1.359375q-0.28125 -0.4375 -0.984375 -0.4375q-0.78125 0 -1.234375 0.8125l0 8.0625l-2.90625 0l0 -11.09375l2.734375 0zm12.747437 8.125q0 -0.375 -0.359375 -0.6875q-0.34375 -0.3125 -1.5625 -0.84375q-1.796875 -0.734375 -2.46875 -1.5q-0.671875 -0.78125 -0.671875 -1.953125q0 -1.453125 1.046875 -2.390625q1.046875 -0.953125 2.78125 -0.953125q1.828125 0 2.921875 0.953125q1.09375 0.9375 1.09375 2.515625l-2.890625 0q0 -1.34375 -1.125 -1.34375q-0.46875 0 -0.765625 0.28125q-0.296875 0.28125 -0.296875 0.796875q0 0.375 0.328125 0.65625q0.328125 0.28125 1.546875 0.796875q1.78125 0.65625 2.5 1.46875q0.734375 0.796875 0.734375 2.078125q0 1.5 -1.125 2.40625q-1.109375 0.890625 -2.921875 0.890625q-1.21875 0 -2.15625 -0.46875q-0.921875 -0.484375 -1.453125 -1.328125q-0.53125 -0.859375 -0.53125 -1.84375l2.765625 0q0.015625 0.765625 0.34375 1.140625q0.34375 0.375 1.09375 0.375q1.171875 0 1.171875 -1.046875zm5.4351196 2.96875l0 -8.90625l-1.34375 0l0 -2.1875l1.34375 0l0 -1.0q0.015625 -1.828125 0.96875 -2.84375q0.96875 -1.03125 2.65625 -1.03125q0.515625 0 1.3125 0.203125l-0.015625 2.328125q-0.296875 -0.09375 -0.71875 -0.09375q-1.28125 0 -1.28125 1.53125l0 0.90625l1.734375 0l0 2.1875l-1.734375 0l0 8.90625l-2.921875 0zm14.972229 -5.203125q0 2.625 -0.90625 4.015625q-0.890625 1.390625 -2.671875 1.390625q-1.34375 0 -2.171875 -1.09375l0 5.15625l-2.890625 0l0 -15.359375l2.6875 0l0.09375 1.015625q0.828125 -1.21875 2.265625 -1.21875q1.78125 0 2.671875 1.296875q0.90625 1.28125 0.921875 3.953125l0 0.84375zm-2.890625 -0.71875q0 -1.609375 -0.359375 -2.28125q-0.359375 -0.671875 -1.1875 -0.671875q-0.890625 0 -1.3125 0.75l0 5.203125q0.390625 0.71875 1.328125 0.71875q0.859375 0 1.1875 -0.71875q0.34375 -0.734375 0.34375 -2.28125l0 -0.71875z" fill-rule="nonzero"></path><path stroke="#ff0000" stroke-width="1.7066667079925537" stroke-linejoin="bevel" stroke-linecap="butt" d="m431.23822 303.50916l154.25403 0" fill-rule="nonzero"></path><path fill="#000000" d="m83.82381 337.14703q1.71875 0 3.375 0.890625q1.65625 0.890625 2.578125 2.546875q0.921875 1.65625 0.921875 3.4375q0 2.859375 -2.015625 4.875q-2.015625 2.015625 -4.859375 2.015625q-2.859375 0 -4.875 -2.015625q-2.015625 -2.015625 -2.015625 -4.875q0 -1.796875 0.921875 -3.4375q0.921875 -1.65625 2.578125 -2.546875q1.65625 -0.890625 3.390625 -0.890625z" fill-rule="nonzero"></path><path fill="#000000" d="m127.27693 348.60016l-5.765625 0l-1.328125 4.453125l-2.203125 0l5.5 -17.0625l1.84375 0l5.5 17.0625l-2.203125 0l-1.34375 -4.453125zm-5.203125 -1.859375l4.65625 0l-2.328125 -7.75l-2.328125 7.75zm13.015625 6.3125l-2.0625 0l0 -18.0l2.0625 0l0 18.0zm5.4960938 0l-2.0625 0l0 -18.0l2.0625 0l0 18.0zm10.7109375 -12.6875l0.0625 1.375q1.203125 -1.609375 3.078125 -1.609375q3.375 0 3.421875 4.5l0 8.421875l-2.0625 0l0 -8.328125q0 -1.5 -0.5 -2.125q-0.5 -0.625 -1.5 -0.625q-0.765625 0 -1.390625 0.515625q-0.609375 0.515625 -0.984375 1.34375l0 9.21875l-2.078125 0l0 -12.6875l1.953125 0zm9.222656 5.765625q0 -2.765625 1.34375 -4.375q1.34375 -1.625 3.546875 -1.625q2.203125 0 3.546875 1.578125q1.34375 1.5625 1.375 4.28125l0 1.328125q0 2.75 -1.34375 4.359375q-1.328125 1.609375 -3.546875 1.609375q-2.203125 0 -3.546875 -1.5625q-1.328125 -1.5625 -1.375 -4.21875l0 -1.375zm2.078125 1.1875q0 1.953125 0.765625 3.078125q0.765625 1.125 2.078125 1.125q2.734375 0 2.8125 -3.96875l0 -1.421875q0 -1.953125 -0.78125 -3.078125q-0.765625 -1.140625 -2.0625 -1.140625q-1.28125 0 -2.046875 1.140625q-0.765625 1.125 -0.765625 3.0625l0 1.203125zm12.359375 -6.953125l0.0625 1.375q1.203125 -1.609375 3.078125 -1.609375q3.375 0 3.421875 4.5l0 8.421875l-2.0625 0l0 -8.328125q0 -1.5 -0.5 -2.125q-0.5 -0.625 -1.5 -0.625q-0.765625 0 -1.390625 0.515625q-0.609375 0.515625 -0.984375 1.34375l0 9.21875l-2.078125 0l0 -12.6875l1.953125 0zm13.503906 6.328125l-4.84375 0l0 -1.78125l4.84375 0l0 1.78125zm8.28125 3.109375q0 -0.671875 -0.515625 -1.140625q-0.5 -0.484375 -1.9375 -1.125q-1.671875 -0.703125 -2.359375 -1.1875q-0.6875 -0.5 -1.03125 -1.125q-0.34375 -0.625 -0.34375 -1.484375q0 -1.546875 1.125 -2.578125q1.140625 -1.03125 2.90625 -1.03125q1.84375 0 2.96875 1.078125q1.125 1.078125 1.125 2.765625l-2.0625 0q0 -0.84375 -0.578125 -1.453125q-0.5625 -0.609375 -1.453125 -0.609375q-0.921875 0 -1.453125 0.484375q-0.515625 0.46875 -0.515625 1.265625q0 0.640625 0.375 1.03125q0.390625 0.375 1.84375 1.015625q2.3125 0.890625 3.140625 1.765625q0.828125 0.859375 0.828125 2.171875q0 1.65625 -1.140625 2.65625q-1.125 0.984375 -3.03125 0.984375q-1.984375 0 -3.21875 -1.140625q-1.234375 -1.140625 -1.234375 -2.875l2.09375 0q0.03125 1.046875 0.640625 1.65625q0.609375 0.59375 1.71875 0.59375q1.03125 0 1.5625 -0.46875q0.546875 -0.46875 0.546875 -1.25zm8.230469 -0.203125l2.3125 -9.234375l2.203125 0l-4.15625 14.484375q-0.46875 1.625 -1.328125 2.46875q-0.84375 0.859375 -1.9375 0.859375q-0.421875 0 -1.078125 -0.1875l0 -1.765625l0.453125 0.046875q0.90625 0 1.40625 -0.421875q0.515625 -0.421875 0.84375 -1.484375l0.40625 -1.421875l-3.734375 -12.578125l2.265625 0l2.34375 9.234375zm8.480469 -9.234375l0.0625 1.375q1.203125 -1.609375 3.078125 -1.609375q3.375 0 3.421875 4.5l0 8.421875l-2.0625 0l0 -8.328125q0 -1.5 -0.5 -2.125q-0.5 -0.625 -1.5 -0.625q-0.765625 0 -1.390625 0.515625q-0.609375 0.515625 -0.984375 1.34375l0 9.21875l-2.078125 0l0 -12.6875l1.953125 0zm9.222656 5.765625q0 -2.765625 1.34375 -4.375q1.34375 -1.625 3.546875 -1.625q2.203125 0 3.546875 1.578125q1.34375 1.5625 1.375 4.28125l0 1.328125q0 2.75 -1.34375 4.359375q-1.328125 1.609375 -3.546875 1.609375q-2.203125 0 -3.546875 -1.5625q-1.328125 -1.5625 -1.375 -4.21875l0 -1.375zm2.078125 1.1875q0 1.953125 0.765625 3.078125q0.765625 1.125 2.078125 1.125q2.734375 0 2.8125 -3.96875l0 -1.421875q0 -1.953125 -0.78125 -3.078125q-0.765625 -1.140625 -2.0625 -1.140625q-1.28125 0 -2.046875 1.140625q-0.765625 1.125 -0.765625 3.0625l0 1.203125zm12.359375 -6.953125l0.0625 1.375q1.203125 -1.609375 3.078125 -1.609375q3.375 0 3.421875 4.5l0 8.421875l-2.0625 0l0 -8.328125q0 -1.5 -0.5 -2.125q-0.5 -0.625 -1.5 -0.625q-0.765625 0 -1.390625 0.515625q-0.609375 0.515625 -0.984375 1.34375l0 9.21875l-2.078125 0l0 -12.6875l1.953125 0zm13.128906 9.234375l2.3125 -9.234375l2.203125 0l-4.15625 14.484375q-0.46875 1.625 -1.328125 2.46875q-0.84375 0.859375 -1.9375 0.859375q-0.421875 0 -1.078125 -0.1875l0 -1.765625l0.453125 0.046875q0.90625 0 1.40625 -0.421875q0.515625 -0.421875 0.84375 -1.484375l0.40625 -1.421875l-3.734375 -12.578125l2.265625 0l2.34375 9.234375zm8.4804535 -9.234375l0.046875 1.171875q1.171875 -1.40625 3.0625 -1.40625q2.125 0 2.96875 1.84375q1.1875 -1.84375 3.328125 -1.84375q3.5 0 3.578125 4.375l0 8.546875l-2.0625 0l0 -8.34375q0 -1.390625 -0.5 -2.0625q-0.484375 -0.671875 -1.65625 -0.671875q-0.9375 0 -1.53125 0.734375q-0.578125 0.71875 -0.671875 1.84375l0 8.5l-2.078125 0l0 -8.4375q-0.03125 -2.640625 -2.140625 -2.640625q-1.578125 0 -2.21875 1.578125l0 9.5l-2.0625 0l0 -12.6875l1.9375 0zm15.667969 5.765625q0 -2.765625 1.34375 -4.375q1.34375 -1.625 3.546875 -1.625q2.203125 0 3.546875 1.578125q1.34375 1.5625 1.375 4.28125l0 1.328125q0 2.75 -1.34375 4.359375q-1.328125 1.609375 -3.546875 1.609375q-2.203125 0 -3.546875 -1.5625q-1.328125 -1.5625 -1.375 -4.21875l0 -1.375zm2.078125 1.1875q0 1.953125 0.765625 3.078125q0.765625 1.125 2.078125 1.125q2.734375 0 2.8125 -3.96875l0 -1.421875q0 -1.953125 -0.78125 -3.078125q-0.765625 -1.140625 -2.0625 -1.140625q-1.28125 0 -2.046875 1.140625q-0.765625 1.125 -0.765625 3.0625l0 1.203125zm16.875 4.625q-1.03125 1.34375 -3.015625 1.34375q-1.71875 0 -2.59375 -1.1875q-0.875 -1.1875 -0.890625 -3.46875l0 -8.265625l2.0625 0l0 8.109375q0 2.96875 1.78125 2.96875q1.890625 0 2.59375 -1.6875l0 -9.390625l2.078125 0l0 12.6875l-1.96875 0l-0.046875 -1.109375zm11.3046875 -2.140625q0 -0.671875 -0.515625 -1.140625q-0.5 -0.484375 -1.9375 -1.125q-1.671875 -0.703125 -2.359375 -1.1875q-0.6875 -0.5 -1.03125 -1.125q-0.34375 -0.625 -0.34375 -1.484375q0 -1.546875 1.125 -2.578125q1.140625 -1.03125 2.90625 -1.03125q1.84375 0 2.96875 1.078125q1.125 1.078125 1.125 2.765625l-2.0625 0q0 -0.84375 -0.578125 -1.453125q-0.5625 -0.609375 -1.453125 -0.609375q-0.921875 0 -1.453125 0.484375q-0.515625 0.46875 -0.515625 1.265625q0 0.640625 0.375 1.03125q0.390625 0.375 1.84375 1.015625q2.3125 0.890625 3.140625 1.765625q0.828125 0.859375 0.828125 2.171875q0 1.65625 -1.140625 2.65625q-1.125 0.984375 -3.03125 0.984375q-1.984375 0 -3.21875 -1.140625q-1.234375 -1.140625 -1.234375 -2.875l2.09375 0q0.03125 1.046875 0.640625 1.65625q0.609375 0.59375 1.71875 0.59375q1.03125 0 1.5625 -0.46875q0.546875 -0.46875 0.546875 -1.25zm13.8515625 0.09375l2.40625 -9.53125l2.109375 0l-3.765625 12.6875l-1.546875 0l-3.796875 -12.6875l2.109375 0l2.484375 9.53125zm13.203125 3.15625q-0.1875 -0.40625 -0.265625 -1.390625q-1.109375 1.625 -2.8125 1.625q-1.734375 0 -2.703125 -0.96875q-0.953125 -0.96875 -0.953125 -2.71875q0 -1.9375 1.3125 -3.078125q1.3125 -1.140625 3.59375 -1.15625l1.515625 0l0 -1.34375q0 -1.140625 -0.5 -1.625q-0.5 -0.484375 -1.53125 -0.484375q-0.9375 0 -1.53125 0.5625q-0.578125 0.5625 -0.578125 1.40625l-2.078125 0q0 -0.96875 0.578125 -1.84375q0.578125 -0.890625 1.546875 -1.390625q0.96875 -0.515625 2.171875 -0.515625q1.9375 0 2.953125 0.96875q1.015625 0.96875 1.03125 2.828125l0 6.390625q0.015625 1.46875 0.40625 2.546875l0 0.1875l-2.15625 0zm-2.765625 -1.65625q0.765625 0 1.453125 -0.421875q0.6875 -0.421875 1.0 -1.046875l0 -3.03125l-1.171875 0q-1.46875 0.03125 -2.328125 0.671875q-0.859375 0.625 -0.859375 1.78125q0 1.078125 0.4375 1.5625q0.4375 0.484375 1.46875 0.484375zm12.964844 -9.078125q-0.421875 -0.078125 -0.9375 -0.078125q-1.59375 0 -2.21875 1.734375l0 9.078125l-2.078125 0l0 -12.6875l2.015625 0l0.03125 1.296875q0.84375 -1.53125 2.359375 -1.53125q0.5 0 0.828125 0.171875l0 2.015625zm4.3007812 10.734375l-2.0625 0l0 -12.6875l2.0625 0l0 12.6875zm0.171875 -16.046875q0 0.53125 -0.296875 0.890625q-0.296875 0.34375 -0.890625 0.34375q-0.578125 0 -0.875 -0.34375q-0.296875 -0.359375 -0.296875 -0.890625q0 -0.53125 0.296875 -0.890625q0.296875 -0.359375 0.875 -0.359375q0.59375 0 0.890625 0.375q0.296875 0.359375 0.296875 0.875zm9.621094 16.046875q-0.1875 -0.40625 -0.265625 -1.390625q-1.109375 1.625 -2.8125 1.625q-1.734375 0 -2.703125 -0.96875q-0.953125 -0.96875 -0.953125 -2.71875q0 -1.9375 1.3125 -3.078125q1.3125 -1.140625 3.59375 -1.15625l1.515625 0l0 -1.34375q0 -1.140625 -0.5 -1.625q-0.5 -0.484375 -1.53125 -0.484375q-0.9375 0 -1.53125 0.5625q-0.578125 0.5625 -0.578125 1.40625l-2.078125 0q0 -0.96875 0.578125 -1.84375q0.578125 -0.890625 1.546875 -1.390625q0.96875 -0.515625 2.171875 -0.515625q1.9375 0 2.953125 0.96875q1.015625 0.96875 1.03125 2.828125l0 6.390625q0.015625 1.46875 0.40625 2.546875l0 0.1875l-2.15625 0zm-2.765625 -1.65625q0.765625 0 1.453125 -0.421875q0.6875 -0.421875 1.0 -1.046875l0 -3.03125l-1.171875 0q-1.46875 0.03125 -2.328125 0.671875q-0.859375 0.625 -0.859375 1.78125q0 1.078125 0.4375 1.5625q0.4375 0.484375 1.46875 0.484375zm9.683594 -11.03125l0.0625 1.375q1.203125 -1.609375 3.078125 -1.609375q3.375 0 3.421875 4.5l0 8.421875l-2.0625 0l0 -8.328125q0 -1.5 -0.5 -2.125q-0.5 -0.625 -1.5 -0.625q-0.765625 0 -1.390625 0.515625q-0.609375 0.515625 -0.984375 1.34375l0 9.21875l-2.078125 0l0 -12.6875l1.953125 0zm12.378906 -3.0625l0 3.0625l1.90625 0l0 1.6875l-1.90625 0l0 7.859375q0 0.75 0.25 1.140625q0.25 0.375 0.84375 0.375q0.40625 0 0.828125 -0.140625l-0.015625 1.765625q-0.703125 0.234375 -1.453125 0.234375q-1.21875 0 -1.875 -0.875q-0.640625 -0.890625 -0.640625 -2.484375l0 -7.875l-1.9375 0l0 -1.6875l1.9375 0l0 -3.0625l2.0625 0zm10.542969 12.5q0 -0.671875 -0.515625 -1.140625q-0.5 -0.484375 -1.9375 -1.125q-1.671875 -0.703125 -2.359375 -1.1875q-0.6875 -0.5 -1.03125 -1.125q-0.34375 -0.625 -0.34375 -1.484375q0 -1.546875 1.125 -2.578125q1.140625 -1.03125 2.90625 -1.03125q1.84375 0 2.96875 1.078125q1.125 1.078125 1.125 2.765625l-2.0625 0q0 -0.84375 -0.578125 -1.453125q-0.5625 -0.609375 -1.453125 -0.609375q-0.921875 0 -1.453125 0.484375q-0.515625 0.46875 -0.515625 1.265625q0 0.640625 0.375 1.03125q0.390625 0.375 1.84375 1.015625q2.3125 0.890625 3.140625 1.765625q0.828125 0.859375 0.828125 2.171875q0 1.65625 -1.140625 2.65625q-1.125 0.984375 -3.03125 0.984375q-1.984375 0 -3.21875 -1.140625q-1.234375 -1.140625 -1.234375 -2.875l2.09375 0q0.03125 1.046875 0.640625 1.65625q0.609375 0.59375 1.71875 0.59375q1.03125 0 1.5625 -0.46875q0.546875 -0.46875 0.546875 -1.25zm9.8203125 -3.671875q0 -2.765625 1.34375 -4.375q1.34375 -1.625 3.546875 -1.625q2.203125 0 3.546875 1.578125q1.34375 1.5625 1.375 4.28125l0 1.328125q0 2.75 -1.34375 4.359375q-1.328125 1.609375 -3.546875 1.609375q-2.203125 0 -3.546875 -1.5625q-1.328125 -1.5625 -1.375 -4.21875l0 -1.375zm2.078125 1.1875q0 1.953125 0.765625 3.078125q0.765625 1.125 2.078125 1.125q2.734375 0 2.8125 -3.96875l0 -1.421875q0 -1.953125 -0.78125 -3.078125q-0.765625 -1.140625 -2.0625 -1.140625q-1.28125 0 -2.046875 1.140625q-0.765625 1.125 -0.765625 3.0625l0 1.203125zm12.359375 -6.953125l0.0625 1.375q1.203125 -1.609375 3.078125 -1.609375q3.375 0 3.421875 4.5l0 8.421875l-2.0625 0l0 -8.328125q0 -1.5 -0.5 -2.125q-0.5 -0.625 -1.5 -0.625q-0.765625 0 -1.390625 0.515625q-0.609375 0.515625 -0.984375 1.34375l0 9.21875l-2.078125 0l0 -12.6875l1.953125 0zm14.75 5.765625q0 -2.953125 1.078125 -4.46875q1.078125 -1.53125 3.15625 -1.53125q1.921875 0 2.9375 1.65625l0.109375 -1.421875l1.875 0l0 12.8125q0 2.34375 -1.21875 3.609375q-1.203125 1.265625 -3.359375 1.265625q-0.9375 0 -2.109375 -0.46875q-1.15625 -0.46875 -1.75 -1.140625l0.84375 -1.4375q1.296875 1.265625 2.859375 1.265625q2.578125 0 2.65625 -2.8125l0 -1.65625q-1.015625 1.484375 -2.859375 1.484375q-1.96875 0 -3.078125 -1.484375q-1.09375 -1.484375 -1.140625 -4.265625l0 -1.40625zm2.078125 1.1875q0 2.140625 0.625 3.140625q0.625 1.0 2.046875 1.0q1.546875 0 2.328125 -1.578125l0 -6.34375q-0.8125 -1.5625 -2.296875 -1.5625q-1.4375 0 -2.078125 1.0q-0.625 1.0 -0.625 3.078125l0 1.265625zm14.683594 5.96875q-2.359375 0 -3.625 -1.40625q-1.265625 -1.421875 -1.296875 -4.15625l0 -1.53125q0 -2.828125 1.234375 -4.4375q1.25 -1.625 3.453125 -1.625q2.234375 0 3.328125 1.421875q1.109375 1.421875 1.125 4.421875l0 1.359375l-7.078125 0l0 0.296875q0 2.03125 0.765625 2.96875q0.78125 0.921875 2.21875 0.921875q0.90625 0 1.609375 -0.34375q0.703125 -0.359375 1.3125 -1.109375l1.078125 1.3125q-1.359375 1.90625 -4.125 1.90625zm-0.234375 -11.375q-1.28125 0 -1.90625 0.890625q-0.625 0.890625 -0.703125 2.75l5.0 0l0 -0.28125q-0.09375 -1.8125 -0.65625 -2.578125q-0.5625 -0.78125 -1.734375 -0.78125zm8.894531 -1.546875l0.0625 1.375q1.203125 -1.609375 3.078125 -1.609375q3.375 0 3.421875 4.5l0 8.421875l-2.0625 0l0 -8.328125q0 -1.5 -0.5 -2.125q-0.5 -0.625 -1.5 -0.625q-0.765625 0 -1.390625 0.515625q-0.609375 0.515625 -0.984375 1.34375l0 9.21875l-2.078125 0l0 -12.6875l1.953125 0zm14.191406 12.921875q-2.359375 0 -3.625 -1.40625q-1.265625 -1.421875 -1.296875 -4.15625l0 -1.53125q0 -2.828125 1.234375 -4.4375q1.25 -1.625 3.453125 -1.625q2.234375 0 3.328125 1.421875q1.109375 1.421875 1.125 4.421875l0 1.359375l-7.078125 0l0 0.296875q0 2.03125 0.765625 2.96875q0.78125 0.921875 2.21875 0.921875q0.90625 0 1.609375 -0.34375q0.703125 -0.359375 1.3125 -1.109375l1.078125 1.3125q-1.359375 1.90625 -4.125 1.90625zm-0.234375 -11.375q-1.28125 0 -1.90625 0.890625q-0.625 0.890625 -0.703125 2.75l5.0 0l0 -0.28125q-0.09375 -1.8125 -0.65625 -2.578125q-0.5625 -0.78125 -1.734375 -0.78125zm14.140625 -5.265625l-0.359375 4.1875l-1.296875 0l0.015625 -5.78125l1.640625 0l0 1.59375zm3.15625 0l-0.34375 4.1875l-1.296875 0l0 -5.78125l1.640625 0l0 1.59375zm3.1132812 16.40625l0 -17.0625l4.859375 0q2.328125 0 3.5 1.140625q1.1875 1.125 1.1875 3.40625q0 1.1875 -0.59375 2.109375q-0.59375 0.90625 -1.625 1.421875q1.171875 0.34375 1.859375 1.4375q0.6875 1.09375 0.6875 2.625q0 2.296875 -1.265625 3.609375q-1.25 1.3125 -3.578125 1.3125l-5.03125 0zm2.140625 -7.984375l0 6.140625l2.9375 0q1.21875 0 1.921875 -0.796875q0.71875 -0.8125 0.71875 -2.265625q0 -3.078125 -2.59375 -3.078125l-2.984375 0zm0 -1.796875l2.75 0q1.125 0 1.796875 -0.75q0.6875 -0.75 0.6875 -2.0q0 -1.40625 -0.625 -2.046875q-0.609375 -0.640625 -1.890625 -0.640625l-2.71875 0l0 5.4375zm20.917969 -5.4375l-4.484375 0l0 15.21875l-2.140625 0l0 -15.21875l-4.484375 0l0 -1.84375l11.109375 0l0 1.84375zm6.3359375 7.359375l-1.671875 2.015625l0 5.84375l-2.140625 0l0 -17.0625l2.140625 0l0 8.234375l1.40625 -1.859375l4.59375 -6.375l2.578125 0l-5.546875 7.515625l5.984375 9.546875l-2.5625 0l-4.78125 -7.859375zm10.671875 -8.546875l-0.359375 4.1875l-1.296875 0l0.015625 -5.78125l1.640625 0l0 1.59375zm3.15625 0l-0.34375 4.1875l-1.296875 0l0 -5.78125l1.640625 0l0 1.59375zm2.9570312 15.265625q0 -0.5625 0.328125 -0.9375q0.34375 -0.375 1.0 -0.375q0.671875 0 1.015625 0.375q0.359375 0.375 0.359375 0.9375q0 0.546875 -0.359375 0.90625q-0.34375 0.359375 -1.015625 0.359375q-0.65625 0 -1.0 -0.359375q-0.328125 -0.359375 -0.328125 -0.90625zm0 -10.0q0 -0.5625 0.328125 -0.9375q0.34375 -0.375 1.0 -0.375q0.671875 0 1.015625 0.375q0.359375 0.375 0.359375 0.9375q0 0.546875 -0.359375 0.90625q-0.34375 0.359375 -1.015625 0.359375q-0.65625 0 -1.0 -0.359375q-0.328125 -0.359375 -0.328125 -0.90625z" fill-rule="nonzero"></path><path fill="#000000" d="m135.94598 390.37582q1.03125 0 2.015625 0.53125q0.984375 0.515625 1.53125 1.5q0.546875 0.984375 0.546875 2.046875q0 1.6875 -1.203125 2.890625q-1.1875 1.203125 -2.875 1.203125q-1.703125 0 -2.90625 -1.203125q-1.1875 -1.203125 -1.1875 -2.890625q0 -1.0625 0.546875 -2.046875q0.546875 -0.984375 1.53125 -1.5q0.984375 -0.53125 2.0 -0.53125zm0.015625 0.703125q-0.875 0 -1.6875 0.4375q-0.796875 0.421875 -1.25 1.25q-0.453125 0.8125 -0.453125 1.6875q0 1.390625 0.984375 2.390625q1.0 1.0 2.40625 1.0q1.390625 0 2.375 -1.0q1.0 -1.0 1.0 -2.390625q0 -0.875 -0.46875 -1.6875q-0.453125 -0.828125 -1.265625 -1.25q-0.796875 -0.4375 -1.640625 -0.4375z" fill-rule="nonzero"></path><path fill="#1155cc" d="m168.65193 389.8602q1.03125 -1.34375 2.640625 -1.34375q2.9375 0 2.984375 3.921875l0 7.375l-1.796875 0l0 -7.296875q0 -1.296875 -0.4375 -1.84375q-0.4375 -0.546875 -1.3125 -0.546875q-0.671875 0 -1.21875 0.453125q-0.53125 0.453125 -0.859375 1.171875l0 8.0625l-1.8125 0l0 -15.75l1.8125 0l0 5.796875zm10.862076 -3.828125l0 2.6875l1.671875 0l0 1.46875l-1.671875 0l0 6.875q0 0.65625 0.203125 1.0q0.21875 0.328125 0.75 0.328125q0.359375 0 0.734375 -0.109375l-0.03125 1.53125q-0.609375 0.203125 -1.265625 0.203125q-1.0625 0 -1.640625 -0.765625q-0.5625 -0.765625 -0.5625 -2.171875l0 -6.890625l-1.6875 0l0 -1.46875l1.6875 0l0 -2.6875l1.8125 0zm6.3005524 0l0 2.6875l1.671875 0l0 1.46875l-1.671875 0l0 6.875q0 0.65625 0.203125 1.0q0.21875 0.328125 0.75 0.328125q0.359375 0 0.734375 -0.109375l-0.03125 1.53125q-0.609375 0.203125 -1.265625 0.203125q-1.0625 0 -1.640625 -0.765625q-0.5625 -0.765625 -0.5625 -2.171875l0 -6.890625l-1.6875 0l0 -1.46875l1.6875 0l0 -2.6875l1.8125 0zm11.941177 8.765625q0 2.640625 -0.953125 3.9375q-0.953125 1.28125 -2.671875 1.28125q-1.671875 0 -2.578125 -1.265625l0 5.328125l-1.8125 0l0 -15.359375l1.640625 0l0.09375 1.234375q0.921875 -1.4375 2.625 -1.4375q1.8125 0 2.71875 1.28125q0.90625 1.265625 0.9375 3.796875l0 1.203125zm-1.8125 -1.03125q0 -1.875 -0.578125 -2.75q-0.5625 -0.890625 -1.84375 -0.890625q-1.296875 0 -1.96875 1.296875l0 5.78125q0.65625 1.265625 2.0 1.265625q1.234375 0 1.8125 -0.890625q0.578125 -0.890625 0.578125 -2.703125l0 -1.109375zm4.44014 5.046875q0 -0.484375 0.28125 -0.8125q0.296875 -0.328125 0.875 -0.328125q0.59375 0 0.890625 0.328125q0.296875 0.328125 0.296875 0.8125q0 0.484375 -0.296875 0.796875q-0.296875 0.3125 -0.890625 0.3125q-0.578125 0 -0.875 -0.3125q-0.28125 -0.3125 -0.28125 -0.796875zm0 -9.0q0 -0.484375 0.28125 -0.8125q0.296875 -0.328125 0.875 -0.328125q0.59375 0 0.890625 0.328125q0.296875 0.328125 0.296875 0.8125q0 0.484375 -0.296875 0.796875q-0.296875 0.3125 -0.890625 0.3125q-0.578125 0 -0.875 -0.3125q-0.28125 -0.3125 -0.28125 -0.796875zm5.352951 11.28125l-1.546875 0l5.25 -16.21875l1.515625 0l-5.21875 16.21875zm7.9043274 0l-1.546875 0l5.25 -16.21875l1.515625 0l-5.21875 16.21875zm9.107452 -12.375l0.046875 1.03125q1.015625 -1.234375 2.671875 -1.234375q1.859375 0 2.59375 1.609375q1.046875 -1.609375 2.921875 -1.609375q3.0625 0 3.125 3.828125l0 7.46875l-1.796875 0l0 -7.296875q0 -1.21875 -0.4375 -1.796875q-0.421875 -0.59375 -1.453125 -0.59375q-0.8125 0 -1.328125 0.640625q-0.515625 0.625 -0.59375 1.609375l0 7.4375l-1.828125 0l0 -7.390625q-0.03125 -2.296875 -1.875 -2.296875q-1.375 0 -1.9375 1.375l0 8.3125l-1.8125 0l0 -11.09375l1.703125 0zm17.376297 8.078125l2.015625 -8.078125l1.9375 0l-3.640625 12.65625q-0.40625 1.4375 -1.15625 2.171875q-0.75 0.75 -1.703125 0.75q-0.359375 0 -0.9375 -0.171875l0 -1.53125l0.390625 0.03125q0.796875 0 1.234375 -0.375q0.453125 -0.359375 0.734375 -1.28125l0.359375 -1.25l-3.265625 -11.0l1.984375 0l2.046875 8.078125zm8.99263 0.25l2.109375 -8.328125l1.84375 0l-3.296875 11.09375l-1.359375 0l-3.328125 -11.09375l1.84375 0l2.1875 8.328125zm11.685272 2.765625q-0.15625 -0.359375 -0.234375 -1.203125q-0.96875 1.40625 -2.453125 1.40625q-1.515625 0 -2.359375 -0.84375q-0.84375 -0.84375 -0.84375 -2.390625q0 -1.6875 1.140625 -2.671875q1.15625 -1.0 3.15625 -1.03125l1.328125 0l0 -1.171875q0 -1.0 -0.4375 -1.40625q-0.4375 -0.421875 -1.34375 -0.421875q-0.828125 0 -1.34375 0.484375q-0.5 0.484375 -0.5 1.234375l-1.8125 0q0 -0.859375 0.5 -1.625q0.5 -0.78125 1.34375 -1.21875q0.859375 -0.4375 1.90625 -0.4375q1.703125 0 2.578125 0.84375q0.890625 0.84375 0.921875 2.46875l0 5.59375q0 1.28125 0.34375 2.21875l0 0.171875l-1.890625 0zm-2.421875 -1.453125q0.671875 0 1.265625 -0.359375q0.609375 -0.375 0.890625 -0.921875l0 -2.65625l-1.03125 0q-1.28125 0.03125 -2.03125 0.59375q-0.75 0.546875 -0.75 1.5625q0 0.9375 0.375 1.359375q0.390625 0.421875 1.28125 0.421875zm11.513123 -7.9375q-0.375 -0.078125 -0.828125 -0.078125q-1.390625 0 -1.9375 1.53125l0 7.9375l-1.8125 0l0 -11.09375l1.765625 0l0.015625 1.125q0.734375 -1.328125 2.0625 -1.328125q0.4375 0 0.71875 0.140625l0.015625 1.765625zm3.8630066 9.390625l-1.8125 0l0 -11.09375l1.8125 0l0 11.09375zm0.140625 -14.03125q0 0.453125 -0.265625 0.765625q-0.25 0.296875 -0.765625 0.296875q-0.515625 0 -0.78125 -0.296875q-0.25 -0.3125 -0.25 -0.765625q0 -0.46875 0.25 -0.78125q0.265625 -0.328125 0.78125 -0.328125q0.515625 0 0.765625 0.328125q0.265625 0.328125 0.265625 0.78125zm8.493622 14.03125q-0.15625 -0.359375 -0.234375 -1.203125q-0.96875 1.40625 -2.453125 1.40625q-1.515625 0 -2.359375 -0.84375q-0.84375 -0.84375 -0.84375 -2.390625q0 -1.6875 1.140625 -2.671875q1.15625 -1.0 3.15625 -1.03125l1.328125 0l0 -1.171875q0 -1.0 -0.4375 -1.40625q-0.4375 -0.421875 -1.34375 -0.421875q-0.828125 0 -1.34375 0.484375q-0.5 0.484375 -0.5 1.234375l-1.8125 0q0 -0.859375 0.5 -1.625q0.5 -0.78125 1.34375 -1.21875q0.859375 -0.4375 1.90625 -0.4375q1.703125 0 2.578125 0.84375q0.890625 0.84375 0.921875 2.46875l0 5.59375q0 1.28125 0.34375 2.21875l0 0.171875l-1.890625 0zm-2.421875 -1.453125q0.671875 0 1.265625 -0.359375q0.609375 -0.375 0.890625 -0.921875l0 -2.65625l-1.03125 0q-1.28125 0.03125 -2.03125 0.59375q-0.75 0.546875 -0.75 1.5625q0 0.9375 0.375 1.359375q0.390625 0.421875 1.28125 0.421875zm8.638123 -9.640625l0.0625 1.203125q1.046875 -1.40625 2.6875 -1.40625q2.9375 0 2.984375 3.921875l0 7.375l-1.796875 0l0 -7.296875q0 -1.296875 -0.4375 -1.84375q-0.4375 -0.546875 -1.3125 -0.546875q-0.671875 0 -1.21875 0.453125q-0.53125 0.453125 -0.859375 1.171875l0 8.0625l-1.8125 0l0 -11.09375l1.703125 0zm10.992279 -2.6875l0 2.6875l1.671875 0l0 1.46875l-1.671875 0l0 6.875q0 0.65625 0.203125 1.0q0.21875 0.328125 0.75 0.328125q0.359375 0 0.734375 -0.109375l-0.03125 1.53125q-0.609375 0.203125 -1.265625 0.203125q-1.0625 0 -1.640625 -0.765625q-0.5625 -0.765625 -0.5625 -2.171875l0 -6.890625l-1.6875 0l0 -1.46875l1.6875 0l0 -2.6875l1.8125 0zm4.0505676 12.78125q0 -0.484375 0.28125 -0.8125q0.296875 -0.328125 0.875 -0.328125q0.59375 0 0.890625 0.328125q0.296875 0.328125 0.296875 0.8125q0 0.484375 -0.296875 0.796875q-0.296875 0.3125 -0.890625 0.3125q-0.578125 0 -0.875 -0.3125q-0.28125 -0.3125 -0.28125 -0.796875zm7.441345 1.0l-1.8125 0l0 -11.09375l1.8125 0l0 11.09375zm0.140625 -14.03125q0 0.453125 -0.265625 0.765625q-0.25 0.296875 -0.765625 0.296875q-0.515625 0 -0.78125 -0.296875q-0.25 -0.3125 -0.25 -0.765625q0 -0.46875 0.25 -0.78125q0.265625 -0.328125 0.78125 -0.328125q0.515625 0 0.765625 0.328125q0.265625 0.328125 0.265625 0.78125zm4.4935913 2.9375l0.0625 1.203125q1.046875 -1.40625 2.6875 -1.40625q2.9375 0 2.984375 3.921875l0 7.375l-1.796875 0l0 -7.296875q0 -1.296875 -0.4375 -1.84375q-0.4375 -0.546875 -1.3125 -0.546875q-0.671875 0 -1.21875 0.453125q-0.53125 0.453125 -0.859375 1.171875l0 8.0625l-1.8125 0l0 -11.09375l1.703125 0zm9.414154 11.09375l0 -9.625l-1.453125 0l0 -1.46875l1.453125 0l0 -1.28125q0.03125 -1.6875 0.84375 -2.640625q0.828125 -0.953125 2.34375 -0.953125q0.546875 0 1.09375 0.171875l-0.09375 1.546875q-0.390625 -0.09375 -0.828125 -0.09375q-1.546875 0 -1.546875 2.203125l0 1.046875l1.890625 0l0 1.46875l-1.890625 0l0 9.625l-1.8125 0zm5.560852 -6.0625q0 -2.421875 1.171875 -3.828125q1.1875 -1.40625 3.109375 -1.40625q1.921875 0 3.09375 1.375q1.1875 1.375 1.21875 3.734375l0 1.171875q0 2.40625 -1.171875 3.8125q-1.171875 1.40625 -3.125 1.40625q-1.921875 0 -3.09375 -1.359375q-1.15625 -1.359375 -1.203125 -3.6875l0 -1.21875zm1.828125 1.046875q0 1.71875 0.65625 2.703125q0.671875 0.96875 1.8125 0.96875q2.40625 0 2.46875 -3.46875l0 -1.25q0 -1.703125 -0.671875 -2.6875q-0.671875 -0.984375 -1.8125 -0.984375q-1.125 0 -1.796875 0.984375q-0.65625 0.984375 -0.65625 2.671875l0 1.0625zm9.768219 6.296875l-1.546875 0l5.25 -16.21875l1.515625 0l-5.21875 16.21875zm10.544952 -4.046875l2.109375 -8.328125l1.84375 0l-3.296875 11.09375l-1.359375 0l-3.328125 -11.09375l1.84375 0l2.1875 8.328125zm11.232147 2.765625l-1.828125 0l0 -12.640625l-3.140625 1.40625l0 -1.734375l4.671875 -2.03125l0.296875 0l0 15.0zm5.7786865 1.28125l-1.546875 0l5.25 -16.21875l1.515625 0l-5.21875 16.21875zm7.0137024 -7.328125q0 -2.59375 0.9375 -3.921875q0.953125 -1.328125 2.828125 -1.328125q1.609375 0 2.5 1.28125l0.078125 -1.078125l1.65625 0l0 15.359375l-1.8125 0l0 -5.234375q-0.875 1.171875 -2.4375 1.171875q-1.796875 0 -2.765625 -1.296875q-0.953125 -1.3125 -0.984375 -3.8125l0 -1.140625zm1.828125 1.03125q0 1.875 0.5625 2.78125q0.578125 0.890625 1.828125 0.890625q1.265625 0 1.96875 -1.21875l0 -5.953125q-0.734375 -1.21875 -1.953125 -1.21875q-1.25 0 -1.828125 0.90625q-0.578125 0.890625 -0.578125 2.703125l0 1.109375zm14.893219 4.046875q-0.90625 1.171875 -2.640625 1.171875q-1.5 0 -2.28125 -1.03125q-0.765625 -1.046875 -0.765625 -3.03125l0 -7.234375l1.796875 0l0 7.09375q0 2.59375 1.5625 2.59375q1.65625 0 2.28125 -1.46875l0 -8.21875l1.8125 0l0 11.09375l-1.71875 0l-0.046875 -0.96875zm8.622498 1.171875q-2.078125 0 -3.1875 -1.234375q-1.109375 -1.234375 -1.125 -3.625l0 -1.34375q0 -2.484375 1.078125 -3.890625q1.078125 -1.40625 3.015625 -1.40625q1.953125 0 2.921875 1.25q0.96875 1.234375 0.984375 3.859375l0 1.1875l-6.203125 0l0 0.25q0 1.78125 0.671875 2.59375q0.671875 0.8125 1.9375 0.8125q0.796875 0 1.40625 -0.296875q0.609375 -0.3125 1.15625 -0.96875l0.9375 1.15625q-1.1875 1.65625 -3.59375 1.65625zm-0.21875 -9.9375q-1.125 0 -1.671875 0.78125q-0.53125 0.765625 -0.609375 2.390625l4.375 0l0 -0.25q-0.078125 -1.578125 -0.578125 -2.25q-0.5 -0.671875 -1.515625 -0.671875zm10.815277 0.34375q-0.375 -0.078125 -0.828125 -0.078125q-1.390625 0 -1.9375 1.53125l0 7.9375l-1.8125 0l0 -11.09375l1.765625 0l0.015625 1.125q0.734375 -1.328125 2.0625 -1.328125q0.4375 0 0.71875 0.140625l0.015625 1.765625zm4.9411316 6.375l2.015625 -8.078125l1.9375 0l-3.640625 12.65625q-0.40625 1.4375 -1.15625 2.171875q-0.75 0.75 -1.703125 0.75q-0.359375 0 -0.9375 -0.171875l0 -1.53125l0.390625 0.03125q0.796875 0 1.234375 -0.375q0.453125 -0.359375 0.734375 -1.28125l0.359375 -1.25l-3.265625 -11.0l1.984375 0l2.046875 8.078125zm7.7113647 -1.1875q0 -1.234375 0.25 -2.0q0.265625 -0.765625 1.265625 -1.953125l0.703125 -0.921875q0.71875 -1.015625 0.71875 -2.09375q0 -1.078125 -0.453125 -1.6875q-0.4375 -0.609375 -1.265625 -0.609375q-0.78125 0 -1.296875 0.5625q-0.515625 0.546875 -0.515625 1.46875l-1.796875 0q0.015625 -1.6875 1.015625 -2.6875q1.0 -1.015625 2.59375 -1.015625q1.65625 0 2.59375 1.046875q0.953125 1.03125 0.953125 2.859375q0 1.734375 -1.4375 3.5l-0.9375 1.125q-0.578125 0.84375 -0.578125 2.40625l-1.8125 0zm0.984375 2.15625q0.515625 0 0.765625 0.3125q0.265625 0.3125 0.265625 0.78125q0 0.453125 -0.265625 0.765625q-0.25 0.296875 -0.765625 0.296875q-0.515625 0 -0.78125 -0.296875q-0.25 -0.3125 -0.25 -0.765625q0 -0.46875 0.25 -0.78125q0.265625 -0.3125 0.78125 -0.3125z" fill-rule="nonzero"></path><path stroke="#1155cc" stroke-width="1.7066667079925537" stroke-linejoin="bevel" stroke-linecap="butt" d="m165.48006 403.50916l265.75818 0" fill-rule="nonzero"></path><path fill="#ff0000" d="m431.9101 393.90707q0 -2.734375 0.90625 -4.0625q0.90625 -1.328125 2.703125 -1.328125q1.46875 0 2.328125 1.3125l0.171875 -1.109375l2.546875 0l0 15.359375l-2.921875 0l0 -5.125q-0.8125 1.0625 -2.125 1.0625q-1.765625 0 -2.6875 -1.359375q-0.90625 -1.359375 -0.921875 -3.90625l0 -0.84375zm2.90625 0.734375q0 1.609375 0.34375 2.296875q0.359375 0.671875 1.1875 0.671875q0.890625 0 1.296875 -0.6875l0 -5.28125q-0.40625 -0.71875 -1.28125 -0.71875q-0.828125 0 -1.1875 0.671875q-0.34375 0.65625 -0.359375 2.21875l0 0.828125zm16.195312 -2.453125l-7.8125 0l0 -2.4375l7.8125 0l0 2.4375zm0 4.4375l-7.8125 0l0 -2.4375l7.8125 0l0 2.4375zm2.2265625 -2.703125q0 -2.71875 0.921875 -4.0625q0.921875 -1.34375 2.6875 -1.34375q1.28125 0 2.125 1.109375l0 -5.5625l2.921875 0l0 15.75l-2.625 0l-0.140625 -1.125q-0.890625 1.328125 -2.296875 1.328125q-1.75 0 -2.671875 -1.328125q-0.90625 -1.34375 -0.921875 -3.921875l0 -0.84375zm2.90625 0.734375q0 1.640625 0.34375 2.296875q0.359375 0.640625 1.1875 0.640625q0.859375 0 1.296875 -0.765625l0 -5.0625q-0.421875 -0.828125 -1.296875 -0.828125q-0.796875 0 -1.171875 0.65625q-0.359375 0.640625 -0.359375 2.296875l0 0.765625zm16.695343 -0.03125q0 2.703125 -0.859375 4.046875q-0.859375 1.34375 -2.703125 1.34375q-1.4375 0 -2.3125 -1.296875l-0.09375 1.09375l-2.671875 0l0 -15.75l2.890625 0l0 5.5625q0.828125 -1.109375 2.171875 -1.109375q1.84375 0 2.703125 1.34375q0.859375 1.328125 0.875 3.90625l0 0.859375zm-2.890625 -0.734375q0 -1.75 -0.34375 -2.34375q-0.34375 -0.609375 -1.171875 -0.609375q-0.921875 0 -1.34375 0.828125l0 5.0625q0.390625 0.78125 1.359375 0.78125q0.828125 0 1.140625 -0.546875q0.328125 -0.546875 0.359375 -2.109375l0 -1.0625zm7.466156 -5.171875l0.078125 1.09375q0.984375 -1.296875 2.578125 -1.296875q2.859375 0 2.9375 4.0l0 7.296875l-2.90625 0l0 -7.078125q0 -0.9375 -0.296875 -1.359375q-0.28125 -0.4375 -0.984375 -0.4375q-0.78125 0 -1.234375 0.8125l0 8.0625l-2.90625 0l0 -11.09375l2.734375 0zm12.747437 8.125q0 -0.375 -0.359375 -0.6875q-0.34375 -0.3125 -1.5625 -0.84375q-1.796875 -0.734375 -2.46875 -1.5q-0.671875 -0.78125 -0.671875 -1.953125q0 -1.453125 1.046875 -2.390625q1.046875 -0.953125 2.78125 -0.953125q1.828125 0 2.921875 0.953125q1.09375 0.9375 1.09375 2.515625l-2.890625 0q0 -1.34375 -1.125 -1.34375q-0.46875 0 -0.765625 0.28125q-0.296875 0.28125 -0.296875 0.796875q0 0.375 0.328125 0.65625q0.328125 0.28125 1.546875 0.796875q1.78125 0.65625 2.5 1.46875q0.734375 0.796875 0.734375 2.078125q0 1.5 -1.125 2.40625q-1.109375 0.890625 -2.921875 0.890625q-1.21875 0 -2.15625 -0.46875q-0.921875 -0.484375 -1.453125 -1.328125q-0.53125 -0.859375 -0.53125 -1.84375l2.765625 0q0.015625 0.765625 0.34375 1.140625q0.34375 0.375 1.09375 0.375q1.171875 0 1.171875 -1.046875zm5.43515 2.96875l0 -8.90625l-1.34375 0l0 -2.1875l1.34375 0l0 -1.0q0.015625 -1.828125 0.96875 -2.84375q0.96875 -1.03125 2.65625 -1.03125q0.515625 0 1.3125 0.203125l-0.015625 2.328125q-0.296875 -0.09375 -0.71875 -0.09375q-1.28125 0 -1.28125 1.53125l0 0.90625l1.734375 0l0 2.1875l-1.734375 0l0 8.90625l-2.921875 0zm14.9722595 -5.203125q0 2.625 -0.90625 4.015625q-0.890625 1.390625 -2.671875 1.390625q-1.34375 0 -2.171875 -1.09375l0 5.15625l-2.890625 0l0 -15.359375l2.6875 0l0.09375 1.015625q0.828125 -1.21875 2.265625 -1.21875q1.78125 0 2.671875 1.296875q0.90625 1.28125 0.921875 3.953125l0 0.84375zm-2.890625 -0.71875q0 -1.609375 -0.359375 -2.28125q-0.359375 -0.671875 -1.1875 -0.671875q-0.890625 0 -1.3125 0.75l0 5.203125q0.390625 0.71875 1.328125 0.71875q0.859375 0 1.1875 -0.71875q0.34375 -0.734375 0.34375 -2.28125l0 -0.71875zm5.0443115 4.4375q0 -0.6875 0.453125 -1.140625q0.46875 -0.453125 1.21875 -0.453125q0.734375 0 1.21875 0.453125q0.484375 0.4375 0.484375 1.140625q0 0.71875 -0.5 1.15625q-0.484375 0.4375 -1.203125 0.4375q-0.71875 0 -1.203125 -0.4375q-0.46875 -0.4375 -0.46875 -1.15625zm5.613037 -4.40625q0 -2.71875 0.984375 -4.0625q0.984375 -1.34375 2.765625 -1.34375q1.5 0 2.328125 1.1875l0.109375 -0.984375l2.609375 0l0 11.09375q0 2.125 -1.1875 3.25q-1.1875 1.125 -3.40625 1.125q-0.921875 0 -1.921875 -0.375q-1.0 -0.359375 -1.5 -0.921875l0.984375 -2.015625q0.40625 0.4375 1.0625 0.703125q0.65625 0.28125 1.234375 0.28125q0.984375 0 1.40625 -0.46875q0.421875 -0.46875 0.4375 -1.5l0 -0.953125q-0.84375 1.078125 -2.171875 1.078125q-1.765625 0 -2.734375 -1.375q-0.96875 -1.375 -1.0 -3.890625l0 -0.828125zm2.90625 0.734375q0 1.53125 0.390625 2.234375q0.40625 0.703125 1.28125 0.703125q0.890625 0 1.328125 -0.640625l0 -5.296875q-0.453125 -0.71875 -1.3125 -0.71875q-0.859375 0 -1.28125 0.71875q-0.40625 0.703125 -0.40625 2.265625l0 0.734375zm12.6484375 5.359375q-2.234375 0 -3.484375 -1.328125q-1.25 -1.34375 -1.25 -3.8125l0 -0.890625q0 -2.625 1.140625 -4.046875q1.15625 -1.421875 3.296875 -1.421875q2.09375 0 3.140625 1.34375q1.0625 1.328125 1.09375 3.953125l0 1.421875l-5.78125 0q0.0625 1.234375 0.546875 1.8125q0.484375 0.5625 1.484375 0.5625q1.453125 0 2.4375 -1.0l1.140625 1.75q-0.546875 0.75 -1.5625 1.203125q-1.0 0.453125 -2.203125 0.453125zm-1.8125 -6.8125l2.890625 0l0 -0.265625q-0.015625 -0.984375 -0.328125 -1.5q-0.296875 -0.515625 -1.0625 -0.515625q-0.765625 0 -1.109375 0.546875q-0.328125 0.546875 -0.390625 1.734375zm10.205872 -4.484375l0.078125 1.09375q0.984375 -1.296875 2.578125 -1.296875q2.859375 0 2.9375 4.0l0 7.296875l-2.90625 0l0 -7.078125q0 -0.9375 -0.296875 -1.359375q-0.28125 -0.4375 -0.984375 -0.4375q-0.78125 0 -1.234375 0.8125l0 8.0625l-2.90625 0l0 -11.09375l2.734375 0zm12.309937 11.296875q-2.234375 0 -3.484375 -1.328125q-1.25 -1.34375 -1.25 -3.8125l0 -0.890625q0 -2.625 1.140625 -4.046875q1.15625 -1.421875 3.296875 -1.421875q2.09375 0 3.140625 1.34375q1.0625 1.328125 1.09375 3.953125l0 1.421875l-5.78125 0q0.0625 1.234375 0.546875 1.8125q0.484375 0.5625 1.484375 0.5625q1.453125 0 2.4375 -1.0l1.140625 1.75q-0.546875 0.75 -1.5625 1.203125q-1.0 0.453125 -2.203125 0.453125zm-1.8125 -6.8125l2.890625 0l0 -0.265625q-0.015625 -0.984375 -0.328125 -1.5q-0.296875 -0.515625 -1.0625 -0.515625q-0.765625 0 -1.109375 0.546875q-0.328125 0.546875 -0.390625 1.734375zm10.205811 -4.484375l0.078125 1.09375q0.984375 -1.296875 2.578125 -1.296875q2.859375 0 2.9375 4.0l0 7.296875l-2.90625 0l0 -7.078125q0 -0.9375 -0.296875 -1.359375q-0.28125 -0.4375 -0.984375 -0.4375q-0.78125 0 -1.234375 0.8125l0 8.0625l-2.90625 0l0 -11.09375l2.734375 0zm13.106812 11.09375q-0.125 -0.25 -0.25 -0.859375q-0.78125 1.0625 -2.109375 1.0625q-1.390625 0 -2.3125 -0.921875q-0.921875 -0.921875 -0.921875 -2.390625q0 -1.734375 1.109375 -2.6875q1.125 -0.953125 3.21875 -0.984375l0.875 0l0 -0.890625q0 -0.75 -0.265625 -1.046875q-0.25 -0.3125 -0.734375 -0.3125q-1.09375 0 -1.09375 1.265625l-2.90625 0q0 -1.53125 1.15625 -2.53125q1.15625 -1.0 2.921875 -1.0q1.828125 0 2.828125 0.953125q1.0 0.9375 1.0 2.703125l0 5.21875q0.015625 1.4375 0.40625 2.25l0 0.171875l-2.921875 0zm-1.71875 -2.078125q0.484375 0 0.8125 -0.1875q0.34375 -0.203125 0.515625 -0.46875l0 -2.296875l-0.703125 0q-0.734375 0 -1.15625 0.46875q-0.421875 0.46875 -0.421875 1.265625q0 1.21875 0.953125 1.21875zm9.21106 -9.015625l0.078125 1.03125q0.984375 -1.234375 2.578125 -1.234375q1.65625 0 2.34375 1.5q0.953125 -1.5 2.71875 -1.5q2.921875 0 2.984375 4.03125l0 7.265625l-2.890625 0l0 -7.078125q0 -0.96875 -0.28125 -1.375q-0.265625 -0.421875 -0.890625 -0.421875q-0.8125 0 -1.21875 1.0l0.03125 0.34375l0 7.53125l-2.90625 0l0 -7.0625q0 -0.953125 -0.265625 -1.375q-0.25 -0.4375 -0.90625 -0.4375q-0.75 0 -1.1875 0.8125l0 8.0625l-2.90625 0l0 -11.09375l2.71875 0zm17.569092 11.296875q-2.234375 0 -3.484375 -1.328125q-1.25 -1.34375 -1.25 -3.8125l0 -0.890625q0 -2.625 1.140625 -4.046875q1.15625 -1.421875 3.296875 -1.421875q2.09375 0 3.140625 1.34375q1.0625 1.328125 1.09375 3.953125l0 1.421875l-5.78125 0q0.0625 1.234375 0.546875 1.8125q0.484375 0.5625 1.484375 0.5625q1.453125 0 2.4375 -1.0l1.140625 1.75q-0.546875 0.75 -1.5625 1.203125q-1.0 0.453125 -2.203125 0.453125zm-1.8125 -6.8125l2.890625 0l0 -0.265625q-0.015625 -0.984375 -0.328125 -1.5q-0.296875 -0.515625 -1.0625 -0.515625q-0.765625 0 -1.109375 0.546875q-0.328125 0.546875 -0.390625 1.734375zm7.7839355 5.125q0 -0.6875 0.453125 -1.140625q0.46875 -0.453125 1.21875 -0.453125q0.734375 0 1.21875 0.453125q0.484375 0.4375 0.484375 1.140625q0 0.71875 -0.5 1.15625q-0.484375 0.4375 -1.203125 0.4375q-0.71875 0 -1.203125 -0.4375q-0.46875 -0.4375 -0.46875 -1.15625zm0 -8.0q0 -0.6875 0.453125 -1.140625q0.46875 -0.453125 1.21875 -0.453125q0.734375 0 1.21875 0.453125q0.484375 0.4375 0.484375 1.140625q0 0.71875 -0.5 1.15625q-0.484375 0.4375 -1.203125 0.4375q-0.71875 0 -1.203125 -0.4375q-0.46875 -0.4375 -0.46875 -1.15625zm5.759033 9.484375l0 -14.9375l4.609375 0q2.34375 0 3.546875 1.046875q1.21875 1.046875 1.21875 3.046875q0 1.140625 -0.5 1.96875q-0.5 0.8125 -1.375 1.1875q1.0 0.296875 1.546875 1.171875q0.546875 0.859375 0.546875 2.125q0 2.171875 -1.203125 3.28125q-1.1875 1.109375 -3.453125 1.109375l-4.9375 0zm3.015625 -6.484375l0 3.984375l1.921875 0q0.8125 0 1.234375 -0.5q0.421875 -0.5 0.421875 -1.4375q0 -2.0 -1.453125 -2.046875l-2.125 0zm0 -2.203125l1.5625 0q1.78125 0 1.78125 -1.828125q0 -1.015625 -0.421875 -1.453125q-0.40625 -0.453125 -1.328125 -0.453125l-1.59375 0l0 3.734375zm18.62207 -3.734375l-3.703125 0l0 12.421875l-3.015625 0l0 -12.421875l-3.640625 0l0 -2.515625l10.359375 0l0 2.515625zm6.1117554 6.65625l-1.1875 1.5l0 4.265625l-3.015625 0l0 -14.9375l3.015625 0l0 6.515625l0.953125 -1.609375l2.78125 -4.90625l3.6875 0l-4.28125 6.5625l4.34375 8.375l-3.578125 0l-2.71875 -5.765625z" fill-rule="nonzero"></path><path stroke="#ff0000" stroke-width="1.7066667079925537" stroke-linejoin="bevel" stroke-linecap="butt" d="m431.23822 403.50916l215.79108 0" fill-rule="nonzero"></path><a xlink:href="http://www.google.com/url?q=http%3A%2F%2Fmyvariant.info%2Fv1%2Fquery%3Fq%3D_exists_%3Adbnsfp&amp;sa=D&amp;sntz=1&amp;usg=AFQjCNG2BYe5IJ6otbl8Hti0cCGxJTbuTQ" target="_blank"><path fill="transparent" fill-opacity="0" d="m165.48006 305.01642l0 -24.984375l265.75818 0l0 24.984375z" fill-rule="evenodd"></path></a><a xlink:href="http://www.google.com/url?q=http%3A%2F%2Fmyvariant.info%2Fv1%2Fquery%3Fq%3D_exists_%3Adbnsfp&amp;sa=D&amp;sntz=1&amp;usg=AFQjCNG2BYe5IJ6otbl8Hti0cCGxJTbuTQ" target="_blank"><path fill="transparent" fill-opacity="0" d="m431.23822 305.01642l0 -24.984375l154.25403 0l0 24.984375zm154.25403 0l0 -24.984375l0 0l0 24.984375z" fill-rule="evenodd"></path></a><a xlink:href="http://www.google.com/url?q=http%3A%2F%2Fmyvariant.info%2Fv1%2Fquery%3Fq%3D_exists_%3Adbnsfp&amp;sa=D&amp;sntz=1&amp;usg=AFQjCNG2BYe5IJ6otbl8Hti0cCGxJTbuTQ" target="_blank"><path fill="transparent" fill-opacity="0" d="m585.49225 305.01642l0 -24.984375l0 0l0 24.984375z" fill-rule="evenodd"></path></a><a xlink:href="http://www.google.com/url?q=http%3A%2F%2Fmyvariant.info%2Fv1%2Fquery%3Fq%3Ddbnsfp.genename%3ABTK&amp;sa=D&amp;sntz=1&amp;usg=AFQjCNEHHExa3-Zi85AMMHrwWHNEgnqk6g" target="_blank"><path fill="transparent" fill-opacity="0" d="m165.48006 405.01645l0 -24.984375l265.75818 0l0 24.984375z" fill-rule="evenodd"></path></a><a xlink:href="http://www.google.com/url?q=http%3A%2F%2Fmyvariant.info%2Fv1%2Fquery%3Fq%3Ddbnsfp.genename%3ABTK&amp;sa=D&amp;sntz=1&amp;usg=AFQjCNEHHExa3-Zi85AMMHrwWHNEgnqk6g" target="_blank"><path fill="transparent" fill-opacity="0" d="m431.23822 405.01645l0 -24.984375l215.79108 0l0 24.984375zm215.79108 0l0 -24.984375l0 0l0 24.984375z" fill-rule="evenodd"></path></a><a xlink:href="http://www.google.com/url?q=http%3A%2F%2Fmyvariant.info%2Fv1%2Fquery%3Fq%3Ddbnsfp.genename%3ABTK&amp;sa=D&amp;sntz=1&amp;usg=AFQjCNEHHExa3-Zi85AMMHrwWHNEgnqk6g" target="_blank"><path fill="transparent" fill-opacity="0" d="m647.0293 405.01645l0 -24.984375l0 0l0 24.984375z" fill-rule="evenodd"></path></a><path fill="#000000" fill-opacity="0.0" d="m60.480053 19.222256l1088.6299 0l0 80.0l-1088.6299 0z" fill-rule="nonzero"></path><path fill="#000000" d="m391.2403 44.177258l6.4375 24.671879l6.421875 -24.671879l9.0 0l0 34.125004l-6.90625 0l0 -9.234375l0.625 -14.234379l-6.8125 23.468754l-4.6875 0l-6.828125 -23.468754l0.640625 14.234379l0 9.234375l-6.890625 0l0 -34.125004l9.0 0zm39.117188 34.125004q-0.28125 -0.59375 -0.5625 -1.96875q-1.78125 2.4375 -4.828125 2.4375q-3.1875 0 -5.296875 -2.109375q-2.09375 -2.109375 -2.09375 -5.46875q0 -3.984375 2.546875 -6.15625q2.546875 -2.1875038 7.328125 -2.2343788l2.015625 0l0 -2.03125q0 -1.71875 -0.59375 -2.421875q-0.578125 -0.703125 -1.703125 -0.703125q-2.484375 0 -2.484375 2.90625l-6.640625 0q0 -3.515625 2.640625 -5.796875q2.640625 -2.28125 6.671875 -2.28125q4.171875 0 6.453125 2.171875q2.28125 2.15625 2.28125 6.1875l0 11.937504q0.046875 3.28125 0.9375 5.125l0 0.40625l-6.671875 0zm-3.921875 -4.734375q1.109375 0 1.875 -0.4375q0.78125 -0.453125 1.15625 -1.0625l0 -5.28125l-1.59375 0q-1.6875 0 -2.671875 1.078125q-0.96875 1.078125 -0.96875 2.890625q0 2.8125 2.203125 2.8125zm22.875 -5.046875l-1.78125 2.0l0 7.78125l-6.625 0l0 -36.000004l6.625 0l0 19.453125l0.828125 -1.21875l4.59375 -7.59375l7.890625 0l-7.359375 10.453125l8.0625 14.906254l-7.59375 0l-4.640625 -9.78125zm21.515625 9.78125l-6.65625 0l0 -25.359379l6.65625 0l0 25.359379zm-6.953125 -31.921879q0 -1.546875 0.984375 -2.53125q0.984375 -0.984375 2.625 -0.984375q1.640625 0 2.625 0.984375q0.984375 0.984375 0.984375 2.53125q0 1.515625 -0.984375 2.53125q-0.96875 1.0 -2.640625 1.0q-1.65625 0 -2.625 -1.0q-0.96875 -1.015625 -0.96875 -2.53125zm18.15625 6.5625l0.1875 2.5q2.25 -2.96875 5.890625 -2.96875q6.53125 0 6.71875 9.15625l0 16.671879l-6.65625 0l0 -16.171879q0 -2.15625 -0.640625 -3.125q-0.640625 -0.984375 -2.265625 -0.984375q-1.796875 0 -2.8125 1.859375l0 18.421879l-6.65625 0l0 -25.359379l6.234375 0zm16.765625 11.906254q0 -6.234379 2.25 -9.296879q2.25 -3.078125 6.296875 -3.078125q3.453125 0 5.328125 2.71875l0.25 -2.25l5.984375 0l0 25.359379q0 4.859375 -2.71875 7.421875q-2.71875 2.5625 -7.8125 2.5625q-2.078125 0 -4.375 -0.828125q-2.296875 -0.828125 -3.421875 -2.125l2.21875 -4.59375q0.9375 0.984375 2.4375 1.609375q1.5 0.625 2.84375 0.625q2.21875 0 3.1875 -1.078125q0.984375 -1.0625 1.0 -3.421875l0 -2.1875q-1.890625 2.484375 -4.9375 2.484375q-4.0625 0 -6.28125 -3.15625q-2.203125 -3.15625 -2.25 -8.890625l0 -1.875zm6.625 1.65625q0 3.515625 0.90625 5.125q0.921875 1.609375 2.921875 1.609375q2.03125 0 3.015625 -1.484375l0 -12.109379q-1.03125 -1.625 -2.96875 -1.625q-1.96875 0 -2.921875 1.625q-0.953125 1.609375 -0.953125 5.203129l0 1.65625zm30.890625 11.796875l0 -20.375004l-3.0625 0l0 -4.984375l3.0625 0l0 -2.28125q0.03125 -4.1875 2.21875 -6.515625q2.1875 -2.34375 6.0625 -2.34375q1.171875 0 3.0 0.46875l-0.046875 5.296875q-0.6875 -0.203125 -1.625 -0.203125q-2.953125 0 -2.953125 3.515625l0 2.0625l3.96875 0l0 4.984375l-3.96875 0l0 20.375004l-6.65625 0zm21.164062 0l-6.65625 0l0 -36.000004l6.65625 0l0 36.000004zm15.375 0.46875q-5.109375 0 -7.96875 -3.046875q-2.859375 -3.046875 -2.859375 -8.71875l0 -2.015625q0 -6.000004 2.625 -9.250004q2.625 -3.265625 7.53125 -3.265625q4.78125 0 7.1875 3.0625q2.421875 3.046875 2.46875 9.046879l0 3.265625l-13.203125 0q0.140625 2.8125 1.234375 4.109375q1.109375 1.296875 3.40625 1.296875q3.328125 0 5.5625 -2.265625l2.59375 4.0q-1.21875 1.6875 -3.546875 2.734375q-2.3125 1.046875 -5.03125 1.046875zm-4.171875 -15.562504l6.640625 0l0 -0.609375q-0.046875 -2.28125 -0.75 -3.453125q-0.703125 -1.171875 -2.4375 -1.171875q-1.734375 0 -2.53125 1.25q-0.78125 1.234375 -0.921875 3.984375zm25.390625 -2.75l2.953125 -7.515625l7.03125 0l-5.796875 12.390629l6.0 12.96875l-7.046875 0l-3.125 -7.953125l-3.09375 7.953125l-7.078125 0l6.0 -12.96875l-5.734375 -12.390629l7.046875 0l2.84375 7.515625zm20.195312 17.843754l-6.65625 0l0 -25.359379l6.65625 0l0 25.359379zm-6.953125 -31.921879q0 -1.546875 0.984375 -2.53125q0.984375 -0.984375 2.625 -0.984375q1.640625 0 2.625 0.984375q0.984375 0.984375 0.984375 2.53125q0 1.515625 -0.984375 2.53125q-0.96875 1.0 -2.640625 1.0q-1.65625 0 -2.625 -1.0q-0.96875 -1.015625 -0.96875 -2.53125zm31.875 20.062504q0 6.15625 -1.96875 9.25q-1.96875 3.078125 -6.1875 3.078125q-3.3125 0 -5.296875 -2.984375l-0.21875 2.515625l-6.109375 0l0 -36.000004l6.625 0l0 12.703125q1.875 -2.53125 4.953125 -2.53125q4.21875 0 6.1875 3.0625q1.96875 3.046875 2.015625 8.953129l0 1.953125zm-6.640625 -1.671875q0 -4.000004 -0.78125 -5.375004q-0.765625 -1.375 -2.6875 -1.375q-2.078125 0 -3.046875 1.90625l0 11.546879q0.890625 1.78125 3.09375 1.78125q1.90625 0 2.640625 -1.234375q0.734375 -1.25 0.78125 -4.828125l0 -2.421875zm17.578125 13.53125l-6.65625 0l0 -36.000004l6.65625 0l0 36.000004zm15.375 0.46875q-5.109375 0 -7.96875 -3.046875q-2.859375 -3.046875 -2.859375 -8.71875l0 -2.015625q0 -6.000004 2.625 -9.250004q2.625 -3.265625 7.53125 -3.265625q4.78125 0 7.1875 3.0625q2.421875 3.046875 2.46875 9.046879l0 3.265625l-13.203125 0q0.140625 2.8125 1.234375 4.109375q1.109375 1.296875 3.40625 1.296875q3.328125 0 5.5625 -2.265625l2.59375 4.0q-1.21875 1.6875 -3.546875 2.734375q-2.3125 1.046875 -5.03125 1.046875zm-4.171875 -15.562504l6.640625 0l0 -0.609375q-0.046875 -2.28125 -0.75 -3.453125q-0.703125 -1.171875 -2.4375 -1.171875q-1.734375 0 -2.53125 1.25q-0.78125 1.234375 -0.921875 3.984375zm27.078125 1.5937538q0 -6.234379 2.078125 -9.281254q2.09375 -3.046875 6.1875 -3.046875q3.328125 0 5.296875 3.0l0.421875 -2.53125l5.796875 0l0 35.10938l-6.65625 0l0 -11.71875q-1.859375 2.4375 -4.875 2.4375q-4.015625 0 -6.109375 -3.109375q-2.09375 -3.109375 -2.140625 -8.9375l0 -1.921875zm6.65625 1.65625q0 3.6875 0.796875 5.25q0.796875 1.546875 2.71875 1.546875q2.015625 0 2.953125 -1.5625l0 -12.078129q-0.9375 -1.640625 -2.9375 -1.640625q-1.890625 0 -2.703125 1.53125q-0.8125 1.515625 -0.828125 5.078129l0 1.875zm30.5625 9.515625q-2.0625 2.796875 -5.53125 2.796875q-3.5 0 -5.3125 -2.40625q-1.796875 -2.40625 -1.796875 -7.0l0 -16.421879l6.640625 0l0 16.593754q0.046875 3.703125 2.453125 3.703125q2.28125 0 3.28125 -1.96875l0 -18.328129l6.6875 0l0 25.359379l-6.234375 0l-0.1875 -2.328125zm21.390625 2.796875q-5.109375 0 -7.96875 -3.046875q-2.859375 -3.046875 -2.859375 -8.71875l0 -2.015625q0 -6.000004 2.625 -9.250004q2.625 -3.265625 7.53125 -3.265625q4.78125 0 7.1875 3.0625q2.421875 3.046875 2.46875 9.046879l0 3.265625l-13.203125 0q0.140625 2.8125 1.234375 4.109375q1.109375 1.296875 3.40625 1.296875q3.328125 0 5.5625 -2.265625l2.59375 4.0q-1.21875 1.6875 -3.546875 2.734375q-2.3125 1.046875 -5.03125 1.046875zm-4.171875 -15.562504l6.640625 0l0 -0.609375q-0.046875 -2.28125 -0.75 -3.453125q-0.703125 -1.171875 -2.4375 -1.171875q-1.734375 0 -2.53125 1.25q-0.78125 1.234375 -0.921875 3.984375zm29.421875 -3.875l-2.203125 -0.1875q-2.71875 0 -3.6875 2.390625l0 16.765629l-6.65625 0l0 -25.359379l6.265625 0l0.1875 2.734375q1.5625 -3.203125 4.328125 -3.203125q1.125 0 1.828125 0.296875l-0.0625 6.5625zm10.3515625 18.968754l-6.65625 0l0 -25.359379l6.65625 0l0 25.359379zm-6.953125 -31.921879q0 -1.546875 0.984375 -2.53125q0.984375 -0.984375 2.625 -0.984375q1.640625 0 2.625 0.984375q0.984375 0.984375 0.984375 2.53125q0 1.515625 -0.984375 2.53125q-0.96875 1.0 -2.640625 1.0q-1.65625 0 -2.625 -1.0q-0.96875 -1.015625 -0.96875 -2.53125zm22.328125 32.39063q-5.109375 0 -7.96875 -3.046875q-2.859375 -3.046875 -2.859375 -8.71875l0 -2.015625q0 -6.000004 2.625 -9.250004q2.625 -3.265625 7.53125 -3.265625q4.78125 0 7.1875 3.0625q2.421875 3.046875 2.46875 9.046879l0 3.265625l-13.203125 0q0.140625 2.8125 1.234375 4.109375q1.109375 1.296875 3.40625 1.296875q3.328125 0 5.5625 -2.265625l2.59375 4.0q-1.21875 1.6875 -3.546875 2.734375q-2.3125 1.046875 -5.03125 1.046875zm-4.171875 -15.562504l6.640625 0l0 -0.609375q-0.046875 -2.28125 -0.75 -3.453125q-0.703125 -1.171875 -2.4375 -1.171875q-1.734375 0 -2.53125 1.25q-0.78125 1.234375 -0.921875 3.984375zm28.125 8.296879q0 -0.84375 -0.8125 -1.5625q-0.796875 -0.71875 -3.59375 -1.9375q-4.09375 -1.65625 -5.640625 -3.4375q-1.53125 -1.7812538 -1.53125 -4.437504q0 -3.328125 2.40625 -5.484375q2.40625 -2.171875 6.359375 -2.171875q4.171875 0 6.671875 2.15625q2.515625 2.15625 2.515625 5.78125l-6.625 0q0 -3.09375 -2.578125 -3.09375q-1.0625 0 -1.75 0.65625q-0.671875 0.65625 -0.671875 1.828125q0 0.84375 0.75 1.5q0.75 0.640625 3.546875 1.828125q4.046875 1.5000038 5.71875 3.3437538q1.6875 1.84375 1.6875 4.765625q0 3.40625 -2.5625 5.46875q-2.546875 2.0625 -6.703125 2.0625q-2.78125 0 -4.921875 -1.09375q-2.125 -1.09375 -3.34375 -3.03125q-1.203125 -1.953125 -1.203125 -4.203125l6.3125 0q0.046875 1.734375 0.796875 2.609375q0.765625 0.859375 2.5 0.859375q2.671875 0 2.671875 -2.40625z" fill-rule="nonzero"></path></g></svg>

